<svg width="612" height="506" viewBox="0 0 612 506" fill="none" xmlns="http://www.w3.org/2000/svg">
<g filter="url(#filter0_dn_166_1327)">
<path d="M540.683 295.887L323.817 186.211C312.466 180.471 299.063 180.471 287.713 186.211L70.8459 295.887C41.5818 310.686 41.5818 352.477 70.8458 367.277L287.713 476.952C299.063 482.692 312.466 482.692 323.817 476.952L540.683 367.277C569.948 352.477 569.948 310.686 540.683 295.887Z" fill="#13505B"/>
</g>
<g filter="url(#filter1_f_166_1327)">
<ellipse cx="310.765" cy="325.082" rx="108.5" ry="44" fill="#09161F"/>
</g>
<path d="M305.565 205.924L248.283 177.283L191 205.924L248.283 234.565L305.565 205.924Z" fill="#4D4D4D"/>
<path d="M305.565 205.924L248.283 177.283V120L305.565 148.641V205.924Z" fill="#999999"/>
<path d="M248.283 177.283L191 205.924V148.641L248.283 120V177.283Z" fill="#999999"/>
<path d="M248.283 234.565L191 205.924V148.641L248.283 177.283V234.565Z" fill="#0C7489"/>
<path d="M248.283 234.565L305.565 205.924V148.641L248.283 177.283V234.565Z" fill="#0A5D6E"/>
<path d="M305.565 148.641L248.283 120L191 148.641L248.283 177.283L305.565 148.641Z" fill="#3D90A1" fill-opacity="0.694118"/>
<path d="M433.565 202.924L376.283 174.283L319 202.924L376.283 231.565L433.565 202.924Z" fill="#4D4D4D"/>
<path d="M433.565 202.924L376.283 174.283V117L433.565 145.641V202.924Z" fill="#999999"/>
<path d="M376.283 174.283L319 202.924V145.641L376.283 117V174.283Z" fill="#999999"/>
<path d="M376.283 231.565L319 202.924V145.641L376.283 174.283V231.565Z" fill="#0C7489"/>
<path d="M376.283 231.565L433.565 202.924V145.641L376.283 174.283V231.565Z" fill="#0A5D6E"/>
<path d="M433.565 145.641L376.283 117L319 145.641L376.283 174.283L433.565 145.641Z" fill="#3D90A1" fill-opacity="0.694118"/>
<path d="M369.565 107.924L312.283 79.2827L255 107.924L312.283 136.565L369.565 107.924Z" fill="#4D4D4D"/>
<path d="M369.565 107.924L312.283 79.2827V22L369.565 50.6413V107.924Z" fill="#999999"/>
<path d="M312.283 79.2827L255 107.924V50.6413L312.283 22V79.2827Z" fill="#999999"/>
<path d="M312.283 136.565L255 107.924V50.6414L312.283 79.2827V136.565Z" fill="#0C7489"/>
<path d="M312.283 136.565L369.565 107.924V50.6414L312.283 79.2827V136.565Z" fill="#0A5D6E"/>
<path d="M369.565 50.6413L312.283 22L255 50.6413L312.283 79.2827L369.565 50.6413Z" fill="#3D90A1" fill-opacity="0.694118"/>
<path d="M369.565 237.924L312.283 209.283L255 237.924L312.283 266.565L369.565 237.924Z" fill="#4D4D4D"/>
<path d="M369.565 237.924L312.283 209.283V152L369.565 180.641V237.924Z" fill="#999999"/>
<path d="M312.283 209.283L255 237.924V180.641L312.283 152V209.283Z" fill="#999999"/>
<path d="M312.283 266.565L255 237.924V180.641L312.283 209.283V266.565Z" fill="#CFEBED"/>
<path d="M312.283 266.565L369.565 237.924V180.641L312.283 209.283V266.565Z" fill="#B8E2E4"/>
<path d="M369.565 180.641L312.283 152L255 180.641L312.283 209.283L369.565 180.641Z" fill="#E7F5F6"/>
<path d="M299.547 105.886C364.027 82.7257 424.564 67.9634 470.287 62.7947C493.165 60.2087 512.221 60.038 526.17 62.3618C540.308 64.7172 548.391 69.4865 550.73 75.9969C553.069 82.5073 549.867 91.3299 540.459 102.143C531.177 112.811 516.368 124.806 497.073 137.367C458.511 162.473 402.416 189.603 337.936 212.763C273.456 235.924 212.919 250.687 167.196 255.856C144.318 258.442 125.262 258.612 111.313 256.288C97.1749 253.933 89.0914 249.163 86.753 242.653C84.4146 236.143 87.6159 227.32 97.024 216.507C106.306 205.839 121.116 193.845 140.41 181.283C178.972 156.177 235.067 129.047 299.547 105.886Z" stroke="url(#paint0_linear_166_1327)" stroke-width="4"/>
<path d="M329.905 91.1763C393.878 115.692 449.297 144.218 487.18 170.483C506.135 183.625 520.603 196.136 529.568 207.226C538.638 218.446 541.602 227.607 539.011 234.371C536.419 241.134 528.091 245.969 513.845 248.255C499.765 250.514 480.641 250.151 457.758 247.26C412.024 241.483 351.734 225.667 287.761 201.151C223.788 176.636 168.368 148.11 130.485 121.845C111.531 108.704 97.062 96.1927 88.0978 85.1028C79.0278 73.8821 76.0633 64.7203 78.6552 57.9567C81.2471 51.1931 89.5748 46.3596 103.821 44.0738C117.9 41.8147 137.025 42.1771 159.907 45.068C205.641 50.8457 265.932 66.661 329.905 91.1763Z" stroke="#0C7489" stroke-width="4"/>
<path d="M433.565 139.924L376.283 111.283L319 139.924L376.283 168.565L433.565 139.924Z" fill="#4D4D4D"/>
<path d="M433.565 139.924L376.283 111.283V54L433.565 82.6413V139.924Z" fill="#999999"/>
<path d="M376.283 111.283L319 139.924V82.6413L376.283 54V111.283Z" fill="#999999"/>
<path d="M376.283 168.565L319 139.924V82.6414L376.283 111.283V168.565Z" fill="#CFEBED"/>
<path d="M376.283 168.565L433.565 139.924V82.6414L376.283 111.283V168.565Z" fill="#B8E2E4"/>
<path d="M433.565 82.6413L376.283 54L319 82.6413L376.283 111.283L433.565 82.6413Z" fill="#E7F5F6"/>
<path d="M305.83 140.006L248.547 111.364L191.265 140.006L248.547 168.647L305.83 140.006Z" fill="#4D4D4D"/>
<path d="M305.83 140.006L248.547 111.364V54.0818L305.83 82.7231V140.006Z" fill="#999999"/>
<path d="M248.547 111.364L191.265 140.006V82.7231L248.547 54.0818V111.364Z" fill="#999999"/>
<path d="M248.547 168.647L191.265 140.006V82.7231L248.547 111.364V168.647Z" fill="#CFEBED"/>
<path d="M248.547 168.647L305.83 140.006V82.7231L248.547 111.364V168.647Z" fill="#B8E2E4"/>
<path d="M305.83 82.7231L248.547 54.0818L191.265 82.7231L248.547 111.364L305.83 82.7231Z" fill="#E7F5F6"/>
<path d="M368.83 174.006L311.547 145.364L254.265 174.006L311.547 202.647L368.83 174.006Z" fill="#4D4D4D"/>
<path d="M368.83 174.006L311.547 145.364V88.0817L368.83 116.723V174.006Z" fill="#999999"/>
<path d="M311.547 145.364L254.265 174.006V116.723L311.547 88.0817V145.364Z" fill="#999999"/>
<path d="M311.547 202.647L254.265 174.006V116.723L311.547 145.364V202.647Z" fill="#0C7489"/>
<path d="M311.547 202.647L368.83 174.006V116.723L311.547 145.364V202.647Z" fill="#0A5D6E"/>
<path d="M368.83 116.723L311.547 88.0817L254.265 116.723L311.547 145.364L368.83 116.723Z" fill="#3D90A1" fill-opacity="0.694118"/>
<defs>
<filter id="filter0_dn_166_1327" x="38.2977" y="177.306" width="542.934" height="328.551" filterUnits="userSpaceOnUse" color-interpolation-filters="sRGB">
<feFlood flood-opacity="0" result="BackgroundImageFix"/>
<feColorMatrix in="SourceAlpha" type="matrix" values="0 0 0 0 0 0 0 0 0 0 0 0 0 0 0 0 0 0 127 0" result="hardAlpha"/>
<feOffset dx="4" dy="10"/>
<feGaussianBlur stdDeviation="7.3"/>
<feComposite in2="hardAlpha" operator="out"/>
<feColorMatrix type="matrix" values="0 0 0 0 0.239216 0 0 0 0 0.564706 0 0 0 0 0.631373 0 0 0 0.694118 0"/>
<feBlend mode="normal" in2="BackgroundImageFix" result="effect1_dropShadow_166_1327"/>
<feBlend mode="normal" in="SourceGraphic" in2="BackgroundImageFix" result="shape"/>
<feTurbulence type="fractalNoise" baseFrequency="0.66666668653488159 0.66666668653488159" stitchTiles="stitch" numOctaves="3" result="noise" seed="4270" />
<feColorMatrix in="noise" type="luminanceToAlpha" result="alphaNoise" />
<feComponentTransfer in="alphaNoise" result="coloredNoise1">
<feFuncA type="discrete" tableValues="1 1 1 1 1 1 1 1 1 1 1 1 1 1 1 1 1 1 1 1 1 1 1 1 1 1 1 1 1 1 1 1 1 1 1 1 1 1 1 1 1 1 1 1 1 1 1 1 1 1 1 0 0 0 0 0 0 0 0 0 0 0 0 0 0 0 0 0 0 0 0 0 0 0 0 0 0 0 0 0 0 0 0 0 0 0 0 0 0 0 0 0 0 0 0 0 0 0 0 0 "/>
</feComponentTransfer>
<feComposite operator="in" in2="shape" in="coloredNoise1" result="noise1Clipped" />
<feFlood flood-color="rgba(0, 0, 0, 0.25)" result="color1Flood" />
<feComposite operator="in" in2="noise1Clipped" in="color1Flood" result="color1" />
<feMerge result="effect2_noise_166_1327">
<feMergeNode in="shape" />
<feMergeNode in="color1" />
</feMerge>
<feBlend mode="normal" in="effect2_noise_166_1327" in2="effect1_dropShadow_166_1327" result="effect2_noise_166_1327"/>
</filter>
<filter id="filter1_f_166_1327" x="114.265" y="193.082" width="393" height="264" filterUnits="userSpaceOnUse" color-interpolation-filters="sRGB">
<feFlood flood-opacity="0" result="BackgroundImageFix"/>
<feBlend mode="normal" in="SourceGraphic" in2="BackgroundImageFix" result="shape"/>
<feGaussianBlur stdDeviation="44" result="effect1_foregroundBlur_166_1327"/>
</filter>
<linearGradient id="paint0_linear_166_1327" x1="93" y1="-72.5" x2="266.5" y2="299" gradientUnits="userSpaceOnUse">
<stop stop-color="#DAFFEF"/>
<stop offset="1" stop-color="#13505B"/>
</linearGradient>
</defs>
</svg>
