<?xml version="1.0" encoding="UTF-8"?>
<svg version="1.1" xmlns="http://www.w3.org/2000/svg" width="26" height="26">
<path d="M0 0 C2.14576637 -0.02685938 4.29162645 -0.04633088 6.4375 -0.0625 C7.63246094 -0.07410156 8.82742187 -0.08570313 10.05859375 -0.09765625 C13 0 13 0 14 1 C14.09986975 3.84335048 14.13877881 6.65697163 14.125 9.5 C14.13080078 10.69689453 14.13080078 10.69689453 14.13671875 11.91796875 C14.12660767 17.87339233 14.12660767 17.87339233 13 19 C10.89868079 19.12602054 8.79256212 19.1757922 6.6875 19.1875 C5.53636719 19.20167969 4.38523437 19.21585938 3.19921875 19.23046875 C0.17587763 19.01267006 -1.46565871 18.5831811 -4 17 C-4 16.01 -4 15.02 -4 14 C-3.01 14 -2.02 14 -1 14 C-1 13.34 -1 12.68 -1 12 C-1.99 11.67 -2.98 11.34 -4 11 C-4 10.34 -4 9.68 -4 9 C-3.01 9 -2.02 9 -1 9 C-1 8.01 -1 7.02 -1 6 C-1.99 6 -2.98 6 -4 6 C-4 5.01 -4 4.02 -4 3 C-3.01 3 -2.02 3 -1 3 C-0.67 2.01 -0.34 1.02 0 0 Z M9 4 C10 7 10 7 10 7 Z " fill="#66C2C2" transform="translate(8,4)"/>
</svg>
