<?xml version="1.0" encoding="UTF-8"?>
<svg version="1.1" xmlns="http://www.w3.org/2000/svg" width="28" height="28">
<path d="M0 0 C0.625 2.3125 0.625 2.3125 1 5 C0.01 6.485 0.01 6.485 -1 8 C-0.505 8.61875 -0.01 9.2375 0.5 9.875 C2 12 2 12 2 14 C0.35 14 -1.3 14 -3 14 C-3 14.99 -3 15.98 -3 17 C-6.96 17 -10.92 17 -15 17 C-15 16.01 -15 15.02 -15 14 C-16.65 14 -18.3 14 -20 14 C-19.67 13.21625 -19.34 12.4325 -19 11.625 C-17.85992807 8.63231119 -17.86684687 7.59179169 -18.5625 4.5 C-19 2 -19 2 -18 0 C-11.43297806 -2.38800798 -6.67674329 -1.77864063 0 0 Z " fill="#67C3C3" transform="translate(23,7)"/>
<path d="M0 0 C0.33 1.32 0.66 2.64 1 4 C-1.31 4.66 -3.62 5.32 -6 6 C-6.66 5.34 -7.32 4.68 -8 4 C-8.99 4.33 -9.98 4.66 -11 5 C-11 4.34 -11 3.68 -11 3 C-12.1446875 3.495 -12.1446875 3.495 -13.3125 4 C-16 5 -16 5 -19 5 C-18.67 3.35 -18.34 1.7 -18 0 C-11.3523435 -2.2158855 -6.73146436 -1.79321797 0 0 Z " fill="#6BCACA" transform="translate(23,7)"/>
<path d="M0 0 C1.32 0 2.64 0 4 0 C4 0.66 4 1.32 4 2 C5.32 1.34 6.64 0.68 8 0 C8.33 0.99 8.66 1.98 9 3 C9.99 2.34 10.98 1.68 12 1 C14.1875 1.375 14.1875 1.375 16 2 C15 4 15 4 12.99609375 4.703125 C6.93308442 5.99903539 2.8911426 5.9637142 -3 4 C-1.75 2 -1.75 2 0 0 Z " fill="#61B9B9" transform="translate(8,10)"/>
<path d="M0 0 C0 0.66 0 1.32 0 2 C-1.65 2 -3.3 2 -5 2 C-5 2.99 -5 3.98 -5 5 C-8.63 5 -12.26 5 -16 5 C-15 3 -15 3 -12.3828125 1.89453125 C-10.77019531 1.35892578 -10.77019531 1.35892578 -9.125 0.8125 C-8.05507813 0.44769531 -6.98515625 0.08289063 -5.8828125 -0.29296875 C-3 -1 -3 -1 0 0 Z " fill="#5EB2B2" transform="translate(25,19)"/>
<path d="M0 0 C2.97 0.33 5.94 0.66 9 1 C8.01 2.485 8.01 2.485 7 4 C4.03 3.67 1.06 3.34 -2 3 C-1.34 2.01 -0.68 1.02 0 0 Z " fill="#6FD3D3" transform="translate(6,15)"/>
<path d="M0 0 C-0.33 0.66 -0.66 1.32 -1 2 C-3.28515625 2.6328125 -3.28515625 2.6328125 -6.0625 3.125 C-6.98160156 3.29257813 -7.90070312 3.46015625 -8.84765625 3.6328125 C-9.91306641 3.81457031 -9.91306641 3.81457031 -11 4 C-11 3.01 -11 2.02 -11 1 C-3.57142857 -1.42857143 -3.57142857 -1.42857143 0 0 Z " fill="#5CAFAF" transform="translate(24,12)"/>
<path d="M0 0 C0 0.66 0 1.32 0 2 C-3.50538557 3.96301592 -7.13351728 4.95902388 -11 6 C-10.67 4.68 -10.34 3.36 -10 2 C-8.7090864 1.66376204 -7.41723903 1.33110751 -6.125 1 C-5.40570312 0.814375 -4.68640625 0.62875 -3.9453125 0.4375 C-2 0 -2 0 0 0 Z " fill="#72D8D8" transform="translate(15,5)"/>
<path d="M0 0 C2.375 -0.1875 2.375 -0.1875 5 0 C5.66 0.99 6.32 1.98 7 3 C2.545 3.495 2.545 3.495 -2 4 C-1.34 2.68 -0.68 1.36 0 0 Z " fill="#6ED0D0" transform="translate(17,15)"/>
<path d="M0 0 C0 0.99 0 1.98 0 3 C-2.64 3 -5.28 3 -8 3 C-5.36657694 0.36657694 -3.69534435 0 0 0 Z " fill="#59A8A8" transform="translate(20,21)"/>
</svg>
