<?xml version="1.0" encoding="UTF-8"?>
<svg version="1.1" xmlns="http://www.w3.org/2000/svg" width="24" height="24">
<path d="M0 0 C6.6 0 13.2 0 20 0 C20 3.3 20 6.6 20 10 C13.4 10 6.8 10 0 10 C0 6.7 0 3.4 0 0 Z M6 2 C6 2.66 6 3.32 6 4 C6.66 4 7.32 4 8 4 C8 3.34 8 2.68 8 2 C7.34 2 6.68 2 6 2 Z M12 2 C12 2.66 12 3.32 12 4 C12.66 4 13.32 4 14 4 C14 3.34 14 2.68 14 2 C13.34 2 12.68 2 12 2 Z M6 6 C6 6.66 6 7.32 6 8 C6.66 8 7.32 8 8 8 C8 7.34 8 6.68 8 6 C7.34 6 6.68 6 6 6 Z M12 6 C12 6.66 12 7.32 12 8 C12.66 8 13.32 8 14 8 C14 7.34 14 6.68 14 6 C13.34 6 12.68 6 12 6 Z " fill="#68C3C3" transform="translate(2,12)"/>
<path d="M0 0 C0.66 0 1.32 0 2 0 C2 0.99 2 1.98 2 3 C4.64 3 7.28 3 10 3 C10 2.01 10 1.02 10 0 C10.66 0 11.32 0 12 0 C12 0.99 12 1.98 12 3 C13.32 3 14.64 3 16 3 C16 4.65 16 6.3 16 8 C9.4 8 2.8 8 -4 8 C-4 6.35 -4 4.7 -4 3 C-2.68 3 -1.36 3 0 3 C0 2.01 0 1.02 0 0 Z " fill="#63BBBB" transform="translate(6,2)"/>
<path d="M0 0 C5.94 0 11.88 0 18 0 C17.01 1.485 17.01 1.485 16 3 C12.7 2.67 9.4 2.34 6 2 C5.34 3.32 4.68 4.64 4 6 C1.875 7.25 1.875 7.25 0 8 C0 5.36 0 2.72 0 0 Z " fill="#71D5D5" transform="translate(2,12)"/>
<path d="M0 0 C0 2.31 0 4.62 0 7 C-5.28 7 -10.56 7 -16 7 C-15.67 6.34 -15.34 5.68 -15 5 C-13.109375 4.7265625 -13.109375 4.7265625 -10.75 4.625 C-6.59007028 4.27392313 -3.11584588 0 0 0 Z " fill="#5CAEAE" transform="translate(22,15)"/>
<path d="M0 0 C0.66 0 1.32 0 2 0 C2 0.99 2 1.98 2 3 C4.64 3 7.28 3 10 3 C10 3.66 10 4.32 10 5 C0.58997722 7.29612756 0.58997722 7.29612756 -4 7 C-4 5.68 -4 4.36 -4 3 C-2.68 3 -1.36 3 0 3 C0 2.01 0 1.02 0 0 Z " fill="#6ED1D1" transform="translate(6,2)"/>
</svg>
