<?xml version="1.0" encoding="UTF-8"?>
<svg version="1.1" xmlns="http://www.w3.org/2000/svg" width="245" height="72">
<path d="M0 0 C0.92544611 -0.00085442 1.85089222 -0.00170885 2.80438215 -0.00258917 C5.91829833 -0.00424174 9.03216113 0.00127381 12.14607239 0.00672913 C14.37308755 0.00701107 16.60010281 0.00685312 18.82711792 0.00628662 C24.88460642 0.00599893 30.94207525 0.01189105 36.99955916 0.01886058 C43.3256837 0.02509887 49.65180865 0.02569829 55.97793579 0.02688599 C66.59974042 0.02964402 77.22153724 0.03589627 87.84333801 0.04481506 C98.78441837 0.0539924 109.72549677 0.06107166 120.6665802 0.06532288 C121.34085303 0.0655856 122.01512586 0.06584832 122.7098312 0.06611901 C126.09241939 0.06742403 129.47500759 0.06868774 132.8575958 0.06993091 C160.92486973 0.08029964 188.99213565 0.09798886 217.05940247 0.12025452 C217.05940247 0.78025452 217.05940247 1.44025452 217.05940247 2.12025452 C218.00815247 2.32650452 218.95690247 2.53275452 219.93440247 2.74525452 C223.05940247 4.12025452 223.05940247 4.12025452 224.2381134 6.49916077 C225.37355794 11.50537757 225.34487593 16.3148123 225.32502747 21.43275452 C225.32694092 22.51983704 225.32885437 23.60691956 225.33082581 24.72694397 C225.33218367 27.0198337 225.32851516 29.31273122 225.32014465 31.60560608 C225.30943973 35.10806099 225.32005375 38.61000299 225.33283997 42.11244202 C225.3315183 44.34421398 225.32895576 46.57598562 225.32502747 48.80775452 C225.32907593 49.85165344 225.33312439 50.89555237 225.33729553 51.97108459 C225.30445907 57.08182332 225.10956972 61.33992411 223.05940247 66.12025452 C222.39940247 66.12025452 221.73940247 66.12025452 221.05940247 66.12025452 C221.05940247 66.78025452 221.05940247 67.44025452 221.05940247 68.12025452 C209.53160902 73.42158511 193.31548952 71.26408594 180.84870911 71.24964905 C178.85950183 71.2510071 176.87029481 71.25278929 174.88108826 71.25495911 C169.52416584 71.25948332 164.16726288 71.25776523 158.81034017 71.25458002 C153.18603927 71.25203283 147.56173994 71.25440027 141.93743896 71.25596619 C132.50372521 71.25777997 123.07001932 71.25540127 113.63630676 71.25062561 C102.74062443 71.24517346 91.84496078 71.24695574 80.94927889 71.25245202 C71.57143273 71.25699252 62.19359219 71.25762943 52.81574529 71.25501335 C47.22433919 71.25345716 41.63294187 71.25323899 36.04153633 71.25654984 C30.79080073 71.25944254 25.54008923 71.25742712 20.28935623 71.25165558 C18.36569827 71.25033597 16.44203827 71.25070851 14.51838112 71.25291824 C11.88794915 71.25566091 9.25759387 71.25221074 6.62716675 71.24723816 C5.87083877 71.24946888 5.11451079 71.2516996 4.33526379 71.25399792 C-9.66662196 71.20284492 -9.66662196 71.20284492 -13.31559753 67.87025452 C-17.14932916 63.85396424 -18.18652274 60.43717376 -18.21525574 54.95033264 C-18.22478775 53.94579041 -18.23431976 52.94124817 -18.24414062 51.90626526 C-18.24322922 50.83219421 -18.24231781 49.75812317 -18.24137878 48.65150452 C-18.24566391 47.53843933 -18.24994904 46.42537415 -18.25436401 45.27857971 C-18.26009951 42.92844828 -18.26061334 40.57829909 -18.25627136 38.22816467 C-18.253109 34.6332933 -18.27658959 31.0392431 -18.30192566 27.44447327 C-18.30419848 25.15931805 -18.30490223 22.87416063 -18.30387878 20.58900452 C-18.31308853 19.51493347 -18.32229828 18.44086243 -18.33178711 17.33424377 C-18.2920561 10.92666304 -17.68353787 7.32035157 -13.44059753 2.37025452 C-9.62005279 -0.81353277 -4.68178046 -0.01566395 0 0 Z " fill="#68C4C4" transform="translate(18.940597534179688,0.8797454833984375)"/>
<path d="M0 0 C0.33 0.66 0.66 1.32 1 2 C1.969375 2.2475 2.93875 2.495 3.9375 2.75 C7 4 7 4 8.17480469 6.37109375 C9.31394247 11.38060381 9.2854887 16.1906296 9.265625 21.3125 C9.26753845 22.39958252 9.2694519 23.48666504 9.27142334 24.60668945 C9.2727812 26.89957919 9.26911269 29.19247671 9.26074219 31.48535156 C9.25003727 34.98780647 9.26065129 38.48974848 9.2734375 41.9921875 C9.27211583 44.22395946 9.2695533 46.4557311 9.265625 48.6875 C9.26967346 49.73139893 9.27372192 50.77529785 9.27789307 51.85083008 C9.2450566 56.96156881 9.05016726 61.2196696 7 66 C6.34 66 5.68 66 5 66 C5 66.66 5 67.32 5 68 C-6.52779344 73.30133059 -22.74391295 71.14383143 -35.21069336 71.12939453 C-37.19990063 71.13075258 -39.18910766 71.13253478 -41.17831421 71.13470459 C-46.53523662 71.1392288 -51.89213959 71.13751071 -57.2490623 71.1343255 C-62.8733632 71.13177832 -68.49766253 71.13414575 -74.1219635 71.13571167 C-83.55567725 71.13752546 -92.98938315 71.13514675 -102.4230957 71.13037109 C-113.31877804 71.12491894 -124.21444169 71.12670122 -135.11012357 71.1321975 C-144.48796973 71.136738 -153.86581027 71.13737491 -163.24365717 71.13475883 C-168.83506328 71.13320265 -174.4264606 71.13298447 -180.01786613 71.13629532 C-185.26860173 71.13918802 -190.51931323 71.1371726 -195.77004623 71.13140106 C-197.6937042 71.13008146 -199.6173642 71.13045399 -201.54102135 71.13266373 C-204.17145332 71.1354064 -206.8018086 71.13195623 -209.43223572 71.12698364 C-210.18856369 71.12921436 -210.94489167 71.13144509 -211.72413868 71.13374341 C-225.72602443 71.08259041 -225.72602443 71.08259041 -229.375 67.75 C-233.22225286 63.71954462 -234.24889948 60.30414569 -234.25878906 54.79833984 C-234.26509338 53.78734222 -234.27139771 52.7763446 -234.27789307 51.73471069 C-234.2738446 50.65436554 -234.26979614 49.57402039 -234.265625 48.4609375 C-234.26753845 47.34312897 -234.2694519 46.22532043 -234.27142334 45.07363892 C-234.27278236 42.71510594 -234.26910573 40.35656541 -234.26074219 37.99804688 C-234.2500188 34.38134052 -234.26065767 30.76512863 -234.2734375 27.1484375 C-234.27211625 24.85676973 -234.26955457 22.56510228 -234.265625 20.2734375 C-234.27169769 18.64684708 -234.27169769 18.64684708 -234.27789307 16.98739624 C-234.27158875 15.98270294 -234.26528442 14.97800964 -234.25878906 13.94287109 C-234.25719788 13.05860443 -234.25560669 12.17433777 -234.25396729 11.26327515 C-234 9 -234 9 -232 6 C-231.34 6.33 -230.68 6.66 -230 7 C-230 24.82 -230 42.64 -230 61 C-226.03816225 62.32061258 -222.24817139 62.14805173 -218.11755371 62.14717102 C-217.19830785 62.15084771 -216.27906199 62.1545244 -215.3319602 62.1583125 C-212.23887933 62.16936245 -209.14583204 62.17319534 -206.05273438 62.17700195 C-203.84043775 62.1832654 -201.62814219 62.18991209 -199.41584778 62.19691467 C-193.39742455 62.21433048 -187.37900927 62.22487711 -181.36056709 62.2331202 C-177.60412075 62.23826704 -173.84767689 62.24434278 -170.0912323 62.25063133 C-159.69414853 62.26749819 -149.29706634 62.28213518 -138.89997101 62.28938007 C-136.20268248 62.29128999 -133.50539396 62.29321033 -130.80810547 62.29516602 C-130.13770058 62.29564976 -129.46729569 62.2961335 -128.77657551 62.2966319 C-117.90527612 62.30494046 -107.03408648 62.33029334 -96.16283506 62.36274669 C-85.00611749 62.39578142 -73.84943973 62.41349233 -62.69266939 62.41702431 C-56.42656533 62.41938109 -50.1606349 62.42842335 -43.89457703 62.45348549 C-38.00455539 62.47666373 -32.11482299 62.4810409 -26.22476768 62.47072411 C-24.05873849 62.4702262 -21.89269555 62.47662103 -19.72670937 62.49028015 C-16.77826911 62.50783895 -13.83088515 62.50097238 -10.88244629 62.48774719 C-9.58542856 62.50420106 -9.58542856 62.50420106 -8.26220846 62.52098733 C-3.68266416 62.52682497 -3.68266416 62.52682497 0.03134346 60.11932755 C1.19971568 57.56304126 1.38063006 55.72240248 1.38818359 52.91186523 C1.40236832 51.39525551 1.40236832 51.39525551 1.4168396 49.8480072 C1.41076691 48.76250076 1.40469421 47.67699432 1.3984375 46.55859375 C1.40130768 45.43937027 1.40417786 44.32014679 1.40713501 43.16700745 C1.40917551 40.80249526 1.40364671 38.43796618 1.39111328 36.07348633 C1.37504519 32.44769718 1.39097106 28.82302029 1.41015625 25.19726562 C1.40817411 22.9010392 1.40433105 20.60481347 1.3984375 18.30859375 C1.40754654 16.67729774 1.40754654 16.67729774 1.4168396 15.01304626 C1.40738312 14.00512527 1.39792664 12.99720428 1.38818359 11.95874023 C1.38460342 10.62781593 1.38460342 10.62781593 1.38095093 9.27000427 C0.92126107 6.5308117 -0.01908818 5.84915008 -2 4 C-2 3.01 -2 2.02 -2 1 C-1.34 0.67 -0.68 0.34 0 0 Z " fill="#0A0A0A" transform="translate(235,1)"/>
<path d="M0 0 C33.33 0 66.66 0 101 0 C101.495 1.485 101.495 1.485 102 3 C68.34 3 34.68 3 0 3 C0 2.01 0 1.02 0 0 Z " fill="#1A1A1A" transform="translate(103,1)"/>
<path d="M0 0 C0.66 0.33 1.32 0.66 2 1 C1.67 18.16 1.34 35.32 1 53 C0.01 52.67 -0.98 52.34 -2 52 C-2.05063836 45.07661048 -2.08570749 38.15326859 -2.10986328 31.22973633 C-2.11993155 28.87359838 -2.13358706 26.51747296 -2.15087891 24.16137695 C-2.17509076 20.77812614 -2.18647478 17.39504028 -2.1953125 14.01171875 C-2.20563507 12.95538742 -2.21595764 11.89905609 -2.22659302 10.81071472 C-2.22674408 9.82992447 -2.22689514 8.84913422 -2.22705078 7.83862305 C-2.231492 6.97480515 -2.23593323 6.11098724 -2.24050903 5.22099304 C-2 3 -2 3 0 0 Z " fill="#111111" transform="translate(3,7)"/>
<path d="M0 0 C16.83 0 33.66 0 51 0 C50.67 0.99 50.34 1.98 50 3 C33.83 3 17.66 3 1 3 C0.67 2.01 0.34 1.02 0 0 Z " fill="#252525" transform="translate(51,1)"/>
<path d="M0 0 C0.99 0 1.98 0 3 0 C3.33 2.31 3.66 4.62 4 7 C4.66 7 5.32 7 6 7 C6.33 4.69 6.66 2.38 7 0 C8.32 0 9.64 0 11 0 C11.66 1.98 12.32 3.96 13 6 C13.99 4.02 14.98 2.04 16 0 C16.66 0 17.32 0 18 0 C17.40380045 4.86896303 16.43023178 9.32790951 15 14 C14.01 14 13.02 14 12 14 C11.01 11.36 10.02 8.72 9 6 C8.01 8.64 7.02 11.28 6 14 C5.01 13.67 4.02 13.34 3 13 C2.05078125 10.8203125 2.05078125 10.8203125 1.3125 8.125 C1.06113281 7.24070312 0.80976563 6.35640625 0.55078125 5.4453125 C0 3 0 3 0 0 Z " fill="#F1F9F9" transform="translate(159,27)"/>
<path d="M0 0 C0.80060349 0.00007553 1.60120697 0.00015106 2.42607117 0.00022888 C3.71527214 0.00797081 3.71527214 0.00797081 5.03051758 0.01586914 C5.91411453 0.01728409 6.79771149 0.01869904 7.70808411 0.02015686 C10.53044011 0.0257547 13.3527168 0.03830678 16.17504883 0.05102539 C18.08845914 0.05604067 20.0018707 0.06060353 21.9152832 0.06469727 C26.60606897 0.07572342 31.29679545 0.09298656 35.98754883 0.11352539 C36.48254883 1.59852539 36.48254883 1.59852539 36.98754883 3.11352539 C22.46754883 3.44352539 7.94754883 3.77352539 -7.01245117 4.11352539 C-7.01245117 3.12352539 -7.01245117 2.13352539 -7.01245117 1.11352539 C-4.30620747 0.21144416 -2.77394132 -0.0087506 0 0 Z " fill="#272727" transform="translate(14.012451171875,0.886474609375)"/>
<path d="M0 0 C13.86 0 27.72 0 42 0 C41.67 0.99 41.34 1.98 41 3 C27.47 3 13.94 3 0 3 C0 2.01 0 1.02 0 0 Z " fill="#101010" transform="translate(103,1)"/>
<path d="M0 0 C1 1 1 1 1.25 3.875 C1 7 1 7 -0.125 8.875 C-2.86916239 10.52149743 -4.8694571 10.39964378 -8 10 C-10 7 -10 7 -9.75 3.375 C-9.5025 2.26125 -9.255 1.1475 -9 0 C-5.90842747 -1.54578627 -3.31526981 -0.60277633 0 0 Z " fill="#EDF9F9" transform="translate(46,31)"/>
<path d="M0 0 C3 0.25 3 0.25 5 2.25 C5.25 5.75 5.25 5.75 5 9.25 C3 11.25 3 11.25 0 11.5 C-3 11.25 -3 11.25 -5 9.25 C-5.25 5.75 -5.25 5.75 -5 2.25 C-3 0.25 -3 0.25 0 0 Z " fill="#F0F9F9" transform="translate(127,29.75)"/>
<path d="M0 0 C1.875 1.375 1.875 1.375 3 3 C3 3.66 3 4.32 3 5 C1.700625 4.814375 0.40125 4.62875 -0.9375 4.4375 C-3.08575543 4.1018371 -3.08575543 4.1018371 -5 4 C-6.35618499 5.12534105 -6.35618499 5.12534105 -6.0625 8.0625 C-6.041875 9.031875 -6.02125 10.00125 -6 11 C-3.03 11.495 -3.03 11.495 0 12 C0 11.34 0 10.68 0 10 C0.99 10 1.98 10 3 10 C2.125 13.875 2.125 13.875 1 15 C-6.25146199 15.58479532 -6.25146199 15.58479532 -9 13.4375 C-10.38885542 10.05216491 -10.45310904 7.62487235 -10 4 C-7.25744073 -0.1138389 -4.81424895 -0.7170158 0 0 Z " fill="#F6FCFC" transform="translate(31,26)"/>
<path d="M0 0 C3 -0.3125 3 -0.3125 6 0 C8 2 8 2 8.1953125 4.1640625 C8.13020833 6.44270833 8.06510417 8.72135417 8 11 C5.03 11 2.06 11 -1 11 C-1.33 9.35 -1.66 7.7 -2 6 C-0.02 5.01 1.96 4.02 4 3 C2.02 3 0.04 3 -2 3 C-1.34 2.01 -0.68 1.02 0 0 Z " fill="#D6ECEC" transform="translate(180,30)"/>
<path d="M0 0 C3 0.25 3 0.25 5 2.25 C5 3.57 5 4.89 5 6.25 C2.69 6.25 0.38 6.25 -2 6.25 C-1.67 6.91 -1.34 7.57 -1 8.25 C0.98 8.25 2.96 8.25 5 8.25 C5 8.91 5 9.57 5 10.25 C2.21136993 11.64431504 0.07921132 11.50660094 -3 11.25 C-5.30163882 7.79754176 -5.34490322 6.30261287 -5 2.25 C-3 0.25 -3 0.25 0 0 Z " fill="#D8F1F1" transform="translate(79,29.75)"/>
<path d="M0 0 C3.625 0.375 3.625 0.375 7 1 C7.33 2.65 7.66 4.3 8 6 C5.69 6 3.38 6 1 6 C1.33 6.66 1.66 7.32 2 8 C3.98 8 5.96 8 8 8 C7.01 9.485 7.01 9.485 6 11 C3 11.3125 3 11.3125 0 11 C-2 9 -2 9 -2.25 5.5 C-2 2 -2 2 0 0 Z " fill="#F6FAFA" transform="translate(204,30)"/>
<path d="M0 0 C6.93359375 -0.09765625 6.93359375 -0.09765625 9 0 C10 1 10 1 10.09765625 3.28515625 C10.08605469 4.20167969 10.07445312 5.11820313 10.0625 6.0625 C10.05347656 6.98160156 10.04445313 7.90070312 10.03515625 8.84765625 C10.02355469 9.55792969 10.01195312 10.26820312 10 11 C9.01 11 8.02 11 7 11 C6.67 8.36 6.34 5.72 6 3 C5.34 3 4.68 3 4 3 C3.67 5.64 3.34 8.28 3 11 C2.01 11 1.02 11 0 11 C0 7.37 0 3.74 0 0 Z " fill="#EDF9F9" transform="translate(49,30)"/>
<path d="M0 0 C6.0546875 -0.1953125 6.0546875 -0.1953125 8 0 C10 2 10 2 10.1953125 4.1640625 C10.17210938 4.97617187 10.14890625 5.78828125 10.125 6.625 C10.10695313 7.44226562 10.08890625 8.25953125 10.0703125 9.1015625 C10.03550781 10.04128906 10.03550781 10.04128906 10 11 C9.01 11 8.02 11 7 11 C7 8.36 7 5.72 7 3 C5.68 3 4.36 3 3 3 C3 5.64 3 8.28 3 11 C2.01 11 1.02 11 0 11 C0 7.37 0 3.74 0 0 Z " fill="#F1FAFA" transform="translate(62,30)"/>
<path d="M0 0 C0.66 0 1.32 0 2 0 C2.33 2.64 2.66 5.28 3 8 C3.99 8 4.98 8 6 8 C6.33 5.36 6.66 2.72 7 0 C7.99 0 8.98 0 10 0 C10 3.63 10 7.26 10 11 C3.06640625 11.09765625 3.06640625 11.09765625 1 11 C0 10 0 10 -0.09765625 7.71484375 C-0.08605469 6.79832031 -0.07445312 5.88179687 -0.0625 4.9375 C-0.05347656 4.01839844 -0.04445312 3.09929688 -0.03515625 2.15234375 C-0.02355469 1.44207031 -0.01195312 0.73179688 0 0 Z " fill="#E9F6F6" transform="translate(135,30)"/>
<path d="M0 0 C0.66 1.32 1.32 2.64 2 4 C-0.97 3.505 -0.97 3.505 -4 3 C-4 4.65 -4 6.3 -4 8 C-3.01 8.33 -2.02 8.66 -1 9 C-1 8.34 -1 7.68 -1 7 C-0.01 7 0.98 7 2 7 C1.34 8.32 0.68 9.64 0 11 C-2.875 11.1875 -2.875 11.1875 -6 11 C-8 8 -8 8 -7.75 4.375 C-7.5025 3.26125 -7.255 2.1475 -7 1 C-4.53721199 -0.231394 -2.7204945 -0.07159196 0 0 Z " fill="#F2FAFA" transform="translate(94,30)"/>
<path d="M0 0 C3.10398978 -0.08710289 6.20766548 -0.14042309 9.3125 -0.1875 C10.19357422 -0.21263672 11.07464844 -0.23777344 11.98242188 -0.26367188 C13.25375977 -0.27817383 13.25375977 -0.27817383 14.55078125 -0.29296875 C15.72120972 -0.31653442 15.72120972 -0.31653442 16.9152832 -0.34057617 C19 -0 19 -0 22 3 C15.07 3 8.14 3 1 3 C0.67 2.01 0.34 1.02 0 0 Z " fill="#0D0D0D" transform="translate(51,1)"/>
<path d="M0 0 C0.99 0.33 1.98 0.66 3 1 C3 7.6 3 14.2 3 21 C2.01 20.67 1.02 20.34 0 20 C0 13.4 0 6.8 0 0 Z " fill="#171717" transform="translate(1,39)"/>
<path d="M0 0 C1.32 0 2.64 0 4 0 C4.33 1.32 4.66 2.64 5 4 C5.66 4 6.32 4 7 4 C7.66 2.68 8.32 1.36 9 0 C9.99 0.33 10.98 0.66 12 1 C11.360625 2.03125 10.72125 3.0625 10.0625 4.125 C8.18288629 7.38609658 7.36873469 10.22046944 7 14 C6.34 14 5.68 14 5 14 C4.731875 12.80375 4.46375 11.6075 4.1875 10.375 C3.25912994 6.62144624 1.86951157 3.39911194 0 0 Z " fill="#F4FBFB" transform="translate(110,27)"/>
<path d="M0 0 C6.6 0 13.2 0 20 0 C20 0.99 20 1.98 20 3 C13.4 3 6.8 3 0 3 C0 2.01 0 1.02 0 0 Z " fill="#1B1B1B" transform="translate(103,1)"/>
<path d="M0 0 C0.99 0 1.98 0 3 0 C3 0.99 3 1.98 3 3 C3.99 3 4.98 3 6 3 C6 3.66 6 4.32 6 5 C5.01 5 4.02 5 3 5 C3 7.31 3 9.62 3 12 C3.99 12 4.98 12 6 12 C6 12.66 6 13.32 6 14 C4.33388095 14.042721 2.66617115 14.04063832 1 14 C0 13 0 13 -0.09765625 11.15234375 C-0.06510417 9.1015625 -0.03255208 7.05078125 0 5 C-0.66 5 -1.32 5 -2 5 C-2 4.34 -2 3.68 -2 3 C-1.34 3 -0.68 3 0 3 C0 2.01 0 1.02 0 0 Z " fill="#EDF8F8" transform="translate(99,27)"/>
<path d="M0 0 C0.94875 0.165 1.8975 0.33 2.875 0.5 C6.02003644 1.25006513 6.02003644 1.25006513 9 0 C9 1.98 9 3.96 9 6 C8.01 6.33 7.02 6.66 6 7 C6 6.34 6 5.68 6 5 C5.01 5 4.02 5 3 5 C3 5.66 3 6.32 3 7 C1.68 6.67 0.36 6.34 -1 6 C-1.042721 4.33388095 -1.04063832 2.66617115 -1 1 C-0.67 0.67 -0.34 0.34 0 0 Z " fill="#75CBCB" transform="translate(90,32)"/>
<path d="M0 0 C0.99 0 1.98 0 3 0 C3 0.99 3 1.98 3 3 C3.99 3 4.98 3 6 3 C6 3.66 6 4.32 6 5 C4.68 5 3.36 5 2 5 C2.33 6.98 2.66 8.96 3 11 C3.99 11.33 4.98 11.66 6 12 C6 12.66 6 13.32 6 14 C4.33388095 14.042721 2.66617115 14.04063832 1 14 C0 13 0 13 -0.09765625 11.15234375 C-0.06510417 9.1015625 -0.03255208 7.05078125 0 5 C-0.66 5 -1.32 5 -2 5 C-2 4.34 -2 3.68 -2 3 C-1.34 3 -0.68 3 0 3 C0 2.01 0 1.02 0 0 Z " fill="#EEF7F7" transform="translate(215,27)"/>
<path d="M0 0 C0.80179688 0.00451172 1.60359375 0.00902344 2.4296875 0.01367188 C4.41149006 0.02546832 6.39325433 0.04340395 8.375 0.0625 C7.385 0.5575 7.385 0.5575 6.375 1.0625 C6.375 1.7225 6.375 2.3825 6.375 3.0625 C1.095 3.0625 -4.185 3.0625 -9.625 3.0625 C-9.955 2.4025 -10.285 1.7425 -10.625 1.0625 C-7.31505287 -0.59247356 -3.63377 -0.03834335 0 0 Z " fill="#262626" transform="translate(153.625,0.9375)"/>
<path d="M0 0 C2.31 0 4.62 0 7 0 C7 0.99 7 1.98 7 3 C6.01 3.33 5.02 3.66 4 4 C3.67 6.31 3.34 8.62 3 11 C2.01 11 1.02 11 0 11 C0 7.37 0 3.74 0 0 Z " fill="#E4F4F4" transform="translate(147,30)"/>
<path d="M0 0 C0.99 0 1.98 0 3 0 C3 4.95 3 9.9 3 15 C2.01 15 1.02 15 0 15 C0 10.05 0 5.1 0 0 Z " fill="#EFF8F8" transform="translate(196,26)"/>
<path d="M0 0 C0.99 0 1.98 0 3 0 C3 4.95 3 9.9 3 15 C2.01 15 1.02 15 0 15 C0 10.05 0 5.1 0 0 Z " fill="#E9F5F5" transform="translate(190,26)"/>
<path d="M0 0 C0.66 0.33 1.32 0.66 2 1 C1.88628503 3.29225435 1.75869036 5.58382388 1.625 7.875 C1.52058594 9.78925781 1.52058594 9.78925781 1.4140625 11.7421875 C1 15 1 15 -1 17 C-2.35550385 14.2889923 -2.16917207 12.08660831 -2.1875 9.0625 C-2.20167969 8.00160156 -2.21585937 6.94070312 -2.23046875 5.84765625 C-2 3 -2 3 0 0 Z " fill="#2B2B2B" transform="translate(3,7)"/>
<path d="M0 0 C4.70588235 0.70588235 4.70588235 0.70588235 6 2 C6.46153846 7.30769231 6.46153846 7.30769231 4.75 9.875 C3 11 3 11 -1 11 C-1 10.34 -1 9.68 -1 9 C-0.01 8.67 0.98 8.34 2 8 C2.25030977 5.58380177 2.25030977 5.58380177 2 3 C1.01 2.34 0.02 1.68 -1 1 C-0.67 0.67 -0.34 0.34 0 0 Z " fill="#F4FBFB" transform="translate(41,30)"/>
<path d="M0 0 C0.33 0.99 0.66 1.98 1 3 C3.01508358 3.73323796 3.01508358 3.73323796 5 4 C3.68 4 2.36 4 1 4 C1.33 4.66 1.66 5.32 2 6 C3.98 6 5.96 6 8 6 C8 6.66 8 7.32 8 8 C5.21136993 9.39431504 3.07921132 9.25660094 0 9 C-2 6 -2 6 -1.6875 3.375 C-1 1 -1 1 0 0 Z " fill="#F9FCFC" transform="translate(76,32)"/>
<path d="M0 0 C3.63 0 7.26 0 11 0 C11.33 0.99 11.66 1.98 12 3 C7.38 3 2.76 3 -2 3 C-1.34 2.67 -0.68 2.34 0 2 C0 1.34 0 0.68 0 0 Z " fill="#141414" transform="translate(193,1)"/>
<path d="M0 0 C1.79133978 -0.05391993 3.58313899 -0.09275571 5.375 -0.125 C6.37273437 -0.14820312 7.37046875 -0.17140625 8.3984375 -0.1953125 C11 0 11 0 13 2 C12 3 12 3 9.27734375 3.09765625 C7.62412109 3.08025391 7.62412109 3.08025391 5.9375 3.0625 C4.83277344 3.05347656 3.72804687 3.04445313 2.58984375 3.03515625 C1.30787109 3.01775391 1.30787109 3.01775391 0 3 C0 2.01 0 1.02 0 0 Z " fill="#242424" transform="translate(206,1)"/>
<path d="M0 0 C3.63 0 7.26 0 11 0 C11.33 0.99 11.66 1.98 12 3 C8.04 3 4.08 3 0 3 C0 2.01 0 1.02 0 0 Z " fill="#1A1A1A" transform="translate(220,1)"/>
<path d="M0 0 C0.33 0.99 0.66 1.98 1 3 C2.65 2.67 4.3 2.34 6 2 C5.67 2.99 5.34 3.98 5 5 C3.54263913 5.19491452 2.08405407 5.38069358 0.625 5.5625 C-0.18710938 5.66691406 -0.99921875 5.77132812 -1.8359375 5.87890625 C-4 6 -4 6 -6 5 C-6 4.01 -6 3.02 -6 2 C-4.7934375 1.7834375 -4.7934375 1.7834375 -3.5625 1.5625 C-1.07896294 1.25864751 -1.07896294 1.25864751 0 0 Z " fill="#1A1A1A" transform="translate(229,66)"/>
<path d="M0 0 C3.63 0 7.26 0 11 0 C10.67 0.99 10.34 1.98 10 3 C6.37 3 2.74 3 -1 3 C-0.67 2.01 -0.34 1.02 0 0 Z " fill="#0D0D0D" transform="translate(91,1)"/>
<path d="M0 0 C0.66 0 1.32 0 2 0 C2.33 2.64 2.66 5.28 3 8 C5.475 8.99 5.475 8.99 8 10 C8 10.33 8 10.66 8 11 C5.66705225 11.04241723 3.33297433 11.04092937 1 11 C0 10 0 10 -0.09765625 7.71484375 C-0.08605469 6.79832031 -0.07445312 5.88179687 -0.0625 4.9375 C-0.05347656 4.01839844 -0.04445312 3.09929688 -0.03515625 2.15234375 C-0.02355469 1.44207031 -0.01195312 0.73179688 0 0 Z " fill="#F6FBFB" transform="translate(135,30)"/>
<path d="M0 0 C3.96 0 7.92 0 12 0 C12 0.66 12 1.32 12 2 C9.75487738 3.12256131 8.48543351 3.13413762 6 3.125 C4.948125 3.12886719 4.948125 3.12886719 3.875 3.1328125 C2 3 2 3 0 2 C0 1.34 0 0.68 0 0 Z " fill="#303030" transform="translate(181,1)"/>
<path d="M0 0 C3.63 0 7.26 0 11 0 C10.67 0.99 10.34 1.98 10 3 C7.03 3 4.06 3 1 3 C0.67 2.01 0.34 1.02 0 0 Z " fill="#1F1F1F" transform="translate(51,1)"/>
<path d="M0 0 C1.65 0 3.3 0 5 0 C5 1.65 5 3.3 5 5 C3.0625 5.5625 3.0625 5.5625 1 6 C0 5 0 5 -0.0625 2.4375 C-0.041875 1.633125 -0.02125 0.82875 0 0 Z " fill="#7BD2D2" transform="translate(39,33)"/>
<path d="M0 0 C2.475 0.495 2.475 0.495 5 1 C4.67 2.32 4.34 3.64 4 5 C2.68 5 1.36 5 0 5 C0 3.35 0 1.7 0 0 Z " fill="#73C7C7" transform="translate(125,33)"/>
<path d="M0 0 C0.99 0.33 1.98 0.66 3 1 C2.67 1.99 2.34 2.98 2 4 C3.65 4.33 5.3 4.66 7 5 C7 5.33 7 5.66 7 6 C4.69 6 2.38 6 0 6 C-0.38218767 4.34385343 -0.71395102 2.67542976 -1 1 C-0.67 0.67 -0.34 0.34 0 0 Z " fill="#EEF7F7" transform="translate(179,35)"/>
<path d="M0 0 C3.3 0 6.6 0 10 0 C9.01 0.495 9.01 0.495 8 1 C8 1.66 8 2.32 8 3 C2.25 3.125 2.25 3.125 0 2 C0 1.34 0 0.68 0 0 Z " fill="#333333" transform="translate(152,1)"/>
<path d="M0 0 C0.99 0.33 1.98 0.66 3 1 C3.1875 4.375 3.1875 4.375 3 8 C2.01 8.66 1.02 9.32 0 10 C0 6.7 0 3.4 0 0 Z " fill="#454545" transform="translate(1,39)"/>
<path d="M0 0 C0.33 1.32 0.66 2.64 1 4 C-1.64 4 -4.28 4 -7 4 C-6.67 3.01 -6.34 2.02 -6 1 C-3.90006779 0.25486277 -2.22568901 0 0 0 Z " fill="#C2E4E4" transform="translate(211,31)"/>
<path d="M0 0 C0 0.66 0 1.32 0 2 C-2.97 2 -5.94 2 -9 2 C-9 1.34 -9 0.68 -9 0 C-5.93109813 -1.53445094 -3.29905734 -0.54984289 0 0 Z " fill="#050505" transform="translate(169,2)"/>
<path d="M0 0 C2.64 0 5.28 0 8 0 C7.67 0.99 7.34 1.98 7 3 C4.69 3 2.38 3 0 3 C0 2.01 0 1.02 0 0 Z " fill="#2F2F2F" transform="translate(83,1)"/>
<path d="M0 0 C0.33 0.66 0.66 1.32 1 2 C1.99 2.33 2.98 2.66 4 3 C3.01 4.32 2.02 5.64 1 7 C-0.5 5.6875 -0.5 5.6875 -2 4 C-2 3.01 -2 2.02 -2 1 C-1.34 0.67 -0.68 0.34 0 0 Z " fill="#323636" transform="translate(235,1)"/>
<path d="M0 0 C2.64 0 5.28 0 8 0 C8.33 0.99 8.66 1.98 9 3 C6.69 3 4.38 3 2 3 C2 2.34 2 1.68 2 1 C1.34 0.67 0.68 0.34 0 0 Z " fill="#2C2C2C" transform="translate(167,1)"/>
<path d="M0 0 C0.99 0.33 1.98 0.66 3 1 C3 1.66 3 2.32 3 3 C3.66 3.33 4.32 3.66 5 4 C4.34 4 3.68 4 3 4 C3 4.66 3 5.32 3 6 C1.68 5.34 0.36 4.68 -1 4 C-0.67 2.68 -0.34 1.36 0 0 Z " fill="#0F1111" transform="translate(2,59)"/>
<path d="M0 0 C0.99 0 1.98 0 3 0 C2.6875 1.9375 2.6875 1.9375 2 4 C1.01 4.33 0.02 4.66 -1 5 C-1 4.34 -1 3.68 -1 3 C-2.32 2.67 -3.64 2.34 -5 2 C-3.35 2 -1.7 2 0 2 C0 1.34 0 0.68 0 0 Z " fill="#D7F1F1" transform="translate(31,36)"/>
<path d="M0 0 C1.98 0 3.96 0 6 0 C6.33 0.99 6.66 1.98 7 3 C4.69 3 2.38 3 0 3 C0 2.01 0 1.02 0 0 Z " fill="#070707" transform="translate(44,1)"/>
<path d="M0 0 C0.94875 0.04125 1.8975 0.0825 2.875 0.125 C2.875 0.455 2.875 0.785 2.875 1.125 C1.225 1.455 -0.425 1.785 -2.125 2.125 C-2.455 3.115 -2.785 4.105 -3.125 5.125 C-5.1875 5.8125 -5.1875 5.8125 -7.125 6.125 C-4.34782609 0.17391304 -4.34782609 0.17391304 0 0 Z " fill="#DAF4F4" transform="translate(28.125,25.875)"/>
<path d="M0 0 C1.98 0 3.96 0 6 0 C6.33 0.99 6.66 1.98 7 3 C4.69 3 2.38 3 0 3 C0 2.01 0 1.02 0 0 Z " fill="#0A0A0A" transform="translate(25,1)"/>
<path d="M0 0 C3.125 -0.1875 3.125 -0.1875 6 0 C5.01 1.485 5.01 1.485 4 3 C0.875 3.1875 0.875 3.1875 -2 3 C-1.34 2.01 -0.68 1.02 0 0 Z " fill="#EEF8F8" transform="translate(180,30)"/>
<path d="M0 0 C2.625 -0.1875 2.625 -0.1875 5 0 C5 0.99 5 1.98 5 3 C2.69 3 0.38 3 -2 3 C-1.34 2.01 -0.68 1.02 0 0 Z " fill="#252525" transform="translate(118,1)"/>
</svg>
