<?xml version="1.0" encoding="UTF-8"?>
<svg version="1.1" xmlns="http://www.w3.org/2000/svg" width="255" height="96">
<path d="M0 0 C2.52113092 -0.05447822 5.0410585 -0.09389852 7.5625 -0.125 C8.26697266 -0.14175781 8.97144531 -0.15851562 9.69726562 -0.17578125 C14.51891822 -0.22022044 18.42297438 0.47231996 23 2 C23 1.34 23 0.68 23 0 C27.95 0.33 32.9 0.66 38 1 C38.33 6.61 38.66 12.22 39 18 C33.72 18 28.44 18 23 18 C22.67 16.68 22.34 15.36 22 14 C18.30513897 11.53675931 16.36706908 11.61008312 12 12 C10.20316891 13.0714863 10.20316891 13.0714863 9 15 C8.42052719 17.96243726 8.42052719 17.96243726 8.3125 21.1875 C8.21388672 22.81751953 8.21388672 22.81751953 8.11328125 24.48046875 C8.07589844 25.31191406 8.03851563 26.14335938 8 27 C8.66 27.33 9.32 27.66 10 28 C12 30 12 30 13 32 C14.98 32 16.96 32 19 32 C19.33 31.34 19.66 30.68 20 30 C20.99 29.34 21.98 28.68 23 28 C23.73343428 24.93443402 23.73343428 24.93443402 24 22 C25.48117801 22.28127421 26.95993249 22.57533732 28.4375 22.875 C29.26121094 23.03742187 30.08492187 23.19984375 30.93359375 23.3671875 C31.95646484 23.68042969 31.95646484 23.68042969 33 24 C33.33 24.66 33.66 25.32 34 26 C34.598125 25.79375 35.19625 25.5875 35.8125 25.375 C38 25 38 25 41 27 C40.52517565 31.27341914 37.96922587 33.10319428 35 36 C34.70609375 36.68707031 34.4121875 37.37414062 34.109375 38.08203125 C33 40 33 40 31.01171875 40.79296875 C30.24472656 40.92316406 29.47773438 41.05335937 28.6875 41.1875 C27.92824219 41.32542969 27.16898438 41.46335938 26.38671875 41.60546875 C25.59910156 41.73566406 24.81148437 41.86585937 24 42 C23.18273437 42.17660156 22.36546875 42.35320312 21.5234375 42.53515625 C12.56662277 44.18509581 1.80493604 43.47022684 -6.13671875 38.72265625 C-7.77119803 37.49945592 -9.38676254 36.25108211 -11 35 C-13.76429636 34.14147224 -13.76429636 34.14147224 -16 34 C-16 35.32 -16 36.64 -16 38 C-13.69 38.33 -11.38 38.66 -9 39 C-8.67 40.65 -8.34 42.3 -8 44 C-11.72541915 45.19812475 -15.2368893 45.06493713 -19.125 45 C-23.72725335 44.73561436 -23.72725335 44.73561436 -28 46 C-28.86431641 45.78150391 -28.86431641 45.78150391 -29.74609375 45.55859375 C-33.52532629 44.62197286 -37.3529051 45.04057185 -41.22265625 45.16015625 C-44 45 -44 45 -47 43 C-47 42.01 -47 41.02 -47 40 C-48.98 39.505 -48.98 39.505 -51 39 C-51 39.66 -51 40.32 -51 41 C-50.01 40.67 -49.02 40.34 -48 40 C-48.33 41.32 -48.66 42.64 -49 44 C-51.60409745 44.16781295 -54.2082682 44.33429651 -56.8125 44.5 C-57.55048828 44.54769531 -58.28847656 44.59539062 -59.04882812 44.64453125 C-67.46664092 45.17778636 -67.46664092 45.17778636 -71 44 C-71.495 44.99 -71.495 44.99 -72 46 C-72 45.34 -72 44.68 -72 44 C-73.4540625 44.2475 -73.4540625 44.2475 -74.9375 44.5 C-81.36318196 45.41052173 -87.63347244 45.30595437 -94 44 C-94 42.35 -94 40.7 -94 39 C-84.1 38.505 -84.1 38.505 -74 38 C-74 35.36 -74 32.72 -74 30 C-73.01 30 -72.02 30 -71 30 C-71 24.72 -71 19.44 -71 14 C-72.32 14 -73.64 14 -75 14 C-75.33 14.99 -75.66 15.98 -76 17 C-77.58246707 17.08153933 -79.16616273 17.13943557 -80.75 17.1875 C-82.07257813 17.23970703 -82.07257813 17.23970703 -83.421875 17.29296875 C-86.49073515 16.94423464 -87.58575177 15.83942723 -90 14 C-92.35929642 13.64042111 -92.35929642 13.64042111 -94.75 13.8125 C-96.1525 13.874375 -97.555 13.93625 -99 14 C-99.33 17.96 -99.66 21.92 -100 26 C-99.34 26.33 -98.68 26.66 -98 27 C-97.01 27.99 -97.01 27.99 -96 29 C-92.41656024 29.16677282 -92.41656024 29.16677282 -89 29 C-89 28.34 -89 27.68 -89 27 C-90.32 27 -91.64 27 -93 27 C-93.04241723 24.66705225 -93.04092937 22.33297433 -93 20 C-92 19 -92 19 -90.14233398 18.88647461 C-88.95619507 18.89432983 -88.95619507 18.89432983 -87.74609375 18.90234375 C-86.46508789 18.90717773 -86.46508789 18.90717773 -85.15820312 18.91210938 C-83.81145508 18.92467773 -83.81145508 18.92467773 -82.4375 18.9375 C-81.53580078 18.94201172 -80.63410156 18.94652344 -79.70507812 18.95117188 C-77.46998686 18.96299775 -75.23502563 18.9794778 -73 19 C-74.09810891 26.44113276 -75.61324777 30.61324777 -81 36 C-90.36810403 39.12270134 -100.31857033 38.54902875 -110 37 C-110 36.34 -110 35.68 -110 35 C-111.47539586 33.75411016 -112.95449544 32.51187361 -114.46484375 31.30859375 C-116.3047996 29.74018355 -117.66183579 28.00724632 -119 26 C-119.0825 26.94875 -119.165 27.8975 -119.25 28.875 C-119.4975 29.90625 -119.745 30.9375 -120 32 C-122 33.1875 -122 33.1875 -124 34 C-124.33 34.99 -124.66 35.98 -125 37 C-127.475 37.495 -127.475 37.495 -130 38 C-130 39.98 -130 41.96 -130 44 C-131.98 44 -133.96 44 -136 44 C-136.33 44.66 -136.66 45.32 -137 46 C-137.69867188 45.855625 -138.39734375 45.71125 -139.1171875 45.5625 C-140.48230469 45.2840625 -140.48230469 45.2840625 -141.875 45 C-143.23238281 44.7215625 -143.23238281 44.7215625 -144.6171875 44.4375 C-146.92407903 43.93980405 -146.92407903 43.93980405 -149 44 C-154 44 -159 44 -164 44 C-164 39.38 -164 34.76 -164 30 C-163.01 30 -162.02 30 -161 30 C-161 24.72 -161 19.44 -161 14 C-161.99 14 -162.98 14 -164 14 C-164 11.03 -164 8.06 -164 5 C-153.11 5 -142.22 5 -131 5 C-131 5.66 -131 6.32 -131 7 C-130.278125 7.28875 -129.55625 7.5775 -128.8125 7.875 C-127.884375 8.24625 -126.95625 8.6175 -126 9 C-125.0925 9.268125 -124.185 9.53625 -123.25 9.8125 C-122.5075 10.204375 -121.765 10.59625 -121 11 C-120.25 13.5 -120.25 13.5 -120 16 C-119.505 16.99 -119.505 16.99 -119 18 C-118.690625 17.21625 -118.38125 16.4325 -118.0625 15.625 C-116.7437812 12.36698886 -115.63380219 10.32990194 -113 8 C-112.01 7.67 -111.02 7.34 -110 7 C-108.824375 6.484375 -107.64875 5.96875 -106.4375 5.4375 C-100.64328155 3.25665025 -94.76481738 3.11525844 -88.875 5 C-88.25625 5.33 -87.6375 5.66 -87 6 C-86.67 5.67 -86.34 5.34 -86 5 C-74.26855999 2.80492807 -61.81861559 4.36778148 -50 5 C-47 10.75 -47 10.75 -47 13 C-42.29589271 11.37789404 -42.57374079 10.14748158 -40 5 C-32.08 5 -24.16 5 -16 5 C-16 6.32 -16 7.64 -16 9 C-13.00847418 8.22520264 -13.00847418 8.22520264 -10 7 C-9.67 6.01 -9.34 5.02 -9 4 C-8.01 3.67 -7.02 3.34 -6 3 C-5.319375 2.62875 -4.63875 2.2575 -3.9375 1.875 C-2.9784375 1.441875 -2.9784375 1.441875 -2 1 C-1.01 1.495 -1.01 1.495 0 2 C0 1.34 0 0.68 0 0 Z M-75 5 C-75 7.64 -75 10.28 -75 13 C-74.67 13 -74.34 13 -74 13 C-74 10.36 -74 7.72 -74 5 C-74.33 5 -74.66 5 -75 5 Z M-145 14 C-145 19.28 -145 24.56 -145 30 C-141.535 29.505 -141.535 29.505 -138 29 C-135.7779667 24.68664124 -135.78639524 21.68104691 -137 17 C-138.69164222 14.95970404 -138.69164222 14.95970404 -141 14 C-142.32 14 -143.64 14 -145 14 Z M-46 14 C-46 14.66 -46 15.32 -46 16 C-45.34 16 -44.68 16 -44 16 C-44 15.34 -44 14.68 -44 14 C-44.66 14 -45.32 14 -46 14 Z M-61 16 C-61 20.62 -61 25.24 -61 30 C-60.01 30 -59.02 30 -58 30 C-58.33 32.97 -58.66 35.94 -59 39 C-56.36 39 -53.72 39 -51 39 C-51.42594588 37.55903414 -51.86626633 36.12231288 -52.3125 34.6875 C-52.55613281 33.88699219 -52.79976562 33.08648437 -53.05078125 32.26171875 C-54.05220714 29.8756052 -55.17001952 28.77498107 -57 27 C-57.38932033 25.01014051 -57.71887936 23.00800456 -58 21 C-58.62225605 19.31624835 -59.27544365 17.64232772 -60 16 C-60.33 16 -60.66 16 -61 16 Z M-35 16 C-35.1546875 17.11375 -35.1546875 17.11375 -35.3125 18.25 C-36.05090806 21.20363226 -37.1223192 22.652899 -39 25 C-39.33 25.99 -39.66 26.98 -40 28 C-40.66666667 29.33333333 -41.33333333 30.66666667 -42 32 C-43.02195747 34.32445229 -44.01058496 36.66138263 -45 39 C-42.03 39 -39.06 39 -36 39 C-36.33 36.03 -36.66 33.06 -37 30 C-36.01 30 -35.02 30 -34 30 C-34 25.38 -34 20.76 -34 16 C-34.33 16 -34.66 16 -35 16 Z M-16 17 C-14.98379995 20.04860014 -14.22608429 20.86666922 -12 23 C-11.67 23.66 -11.34 24.32 -11 25 C-10.34 25 -9.68 25 -9 25 C-8.95758277 22.66705225 -8.95907063 20.33297433 -9 18 C-10.12534105 16.64381501 -10.12534105 16.64381501 -13.0625 16.9375 C-14.031875 16.958125 -15.00125 16.97875 -16 17 Z M-85 40 C-84 43 -84 43 -84 43 Z M-137 41 C-136 44 -136 44 -136 44 Z M-28 41 C-27.67 41.99 -27.34 42.98 -27 44 C-27 43.01 -27 42.02 -27 41 C-27.33 41 -27.66 41 -28 41 Z M-22 41 C-22.33 41.66 -22.66 42.32 -23 43 C-22.34 43 -21.68 43 -21 43 C-21.33 42.34 -21.66 41.68 -22 41 Z " fill="#3B3B3B" transform="translate(195,28)"/>
<path d="M0 0 C2.52113092 -0.05447822 5.0410585 -0.09389852 7.5625 -0.125 C8.26697266 -0.14175781 8.97144531 -0.15851562 9.69726562 -0.17578125 C14.51891822 -0.22022044 18.42297438 0.47231996 23 2 C23 1.34 23 0.68 23 0 C27.95 0.33 32.9 0.66 38 1 C38.495 9.415 38.495 9.415 39 18 C33.72 18 28.44 18 23 18 C22.505 16.02 22.505 16.02 22 14 C18.30513897 11.53675931 16.36706908 11.61008312 12 12 C10.20316891 13.0714863 10.20316891 13.0714863 9 15 C8.42052719 17.96243726 8.42052719 17.96243726 8.3125 21.1875 C8.24675781 22.27417969 8.18101562 23.36085938 8.11328125 24.48046875 C8.07589844 25.31191406 8.03851563 26.14335938 8 27 C8.66 27.33 9.32 27.66 10 28 C12 30 12 30 13 32 C14.98 32 16.96 32 19 32 C19.33 31.34 19.66 30.68 20 30 C20.99 29.34 21.98 28.68 23 28 C23.73343428 24.93443402 23.73343428 24.93443402 24 22 C25.48117801 22.28127421 26.95993249 22.57533732 28.4375 22.875 C29.26121094 23.03742187 30.08492187 23.19984375 30.93359375 23.3671875 C31.95646484 23.68042969 31.95646484 23.68042969 33 24 C33.495 24.99 33.495 24.99 34 26 C34.598125 25.79375 35.19625 25.5875 35.8125 25.375 C38 25 38 25 41 27 C40.52517565 31.27341914 37.96922587 33.10319428 35 36 C34.55914062 37.03060547 34.55914062 37.03060547 34.109375 38.08203125 C33 40 33 40 31.01171875 40.79296875 C29.86123047 40.98826172 29.86123047 40.98826172 28.6875 41.1875 C27.92824219 41.32542969 27.16898438 41.46335938 26.38671875 41.60546875 C25.59910156 41.73566406 24.81148437 41.86585937 24 42 C23.18273437 42.17660156 22.36546875 42.35320312 21.5234375 42.53515625 C11.64086491 44.35563015 0.18142634 43.18310908 -8.25 37.4375 C-9.1575 36.633125 -10.065 35.82875 -11 35 C-11 34.34 -11 33.68 -11 33 C-13.97 33 -16.94 33 -20 33 C-20 30.69 -20 28.38 -20 26 C-22.31 26 -24.62 26 -27 26 C-27 22.7 -27 19.4 -27 16 C-24.69 16 -22.38 16 -20 16 C-20 14.02 -20 12.04 -20 10 C-19.06027344 9.85304688 -19.06027344 9.85304688 -18.1015625 9.703125 C-17.28429687 9.55359375 -16.46703125 9.4040625 -15.625 9.25 C-14.81289062 9.11078125 -14.00078125 8.9715625 -13.1640625 8.828125 C-10.38320591 7.76397049 -10.19150941 6.63168166 -9 4 C-8.01 3.67 -7.02 3.34 -6 3 C-4.9790625 2.443125 -4.9790625 2.443125 -3.9375 1.875 C-3.298125 1.58625 -2.65875 1.2975 -2 1 C-1.34 1.33 -0.68 1.66 0 2 C0 1.34 0 0.68 0 0 Z M-16 17 C-14.98379995 20.04860014 -14.22608429 20.86666922 -12 23 C-11.67 23.66 -11.34 24.32 -11 25 C-10.34 25 -9.68 25 -9 25 C-8.95758277 22.66705225 -8.95907063 20.33297433 -9 18 C-10.12534105 16.64381501 -10.12534105 16.64381501 -13.0625 16.9375 C-14.031875 16.958125 -15.00125 16.97875 -16 17 Z " fill="#393939" transform="translate(195,28)"/>
<path d="M0 0 C1.8871875 0.0309375 1.8871875 0.0309375 3.8125 0.0625 C4.4725 2.3725 5.1325 4.6825 5.8125 7.0625 C6.616875 7.041875 7.42125 7.02125 8.25 7 C10.8125 7.0625 10.8125 7.0625 11.8125 8.0625 C11.88429964 9.58178038 11.89642007 11.10417482 11.875 12.625 C11.86597656 13.45128906 11.85695312 14.27757812 11.84765625 15.12890625 C11.83605469 15.76699219 11.82445312 16.40507813 11.8125 17.0625 C9.5025 17.0625 7.1925 17.0625 4.8125 17.0625 C2.8125 11.3125 2.8125 11.3125 2.8125 9.0625 C-0.1575 8.5675 -0.1575 8.5675 -3.1875 8.0625 C-2.383125 8.8875 -1.57875 9.7125 -0.75 10.5625 C2.37787606 14.24390469 2.41274065 17.34533965 2.8125 22.0625 C3.4725 22.3925 4.1325 22.7225 4.8125 23.0625 C3.8125 24.0625 3.8125 24.0625 1.30859375 24.16015625 C0.29925781 24.14855469 -0.71007812 24.13695313 -1.75 24.125 C-2.76191406 24.11597656 -3.77382812 24.10695313 -4.81640625 24.09765625 C-5.99009766 24.08025391 -5.99009766 24.08025391 -7.1875 24.0625 C-7.1875 21.7525 -7.1875 19.4425 -7.1875 17.0625 C-9.4975 17.0625 -11.8075 17.0625 -14.1875 17.0625 C-14.1875 13.7625 -14.1875 10.4625 -14.1875 7.0625 C-11.8775 7.0625 -9.5675 7.0625 -7.1875 7.0625 C-7.1875 5.0825 -7.1875 3.1025 -7.1875 1.0625 C-4.43671116 0.14557039 -2.82801087 -0.04636083 0 0 Z " fill="#797979" transform="translate(182.1875,36.9375)"/>
<path d="M0 0 C1.98 0 3.96 0 6 0 C6 0.66 6 1.32 6 2 C6.66 2.33 7.32 2.66 8 3 C8.33 2.01 8.66 1.02 9 0 C12.3 0 15.6 0 19 0 C19 0.66 19 1.32 19 2 C21.64 2 24.28 2 27 2 C27.495 4.475 27.495 4.475 28 7 C24.27458085 8.19812475 20.7631107 8.06493713 16.875 8 C12.27274665 7.73561436 12.27274665 7.73561436 8 9 C6.66273031 8.68282706 5.32988814 8.34682335 4 8 C2.41788427 7.93451508 0.83329919 7.91421619 -0.75 7.9375 C-1.94882813 7.95103516 -1.94882813 7.95103516 -3.171875 7.96484375 C-4.07679688 7.98224609 -4.07679688 7.98224609 -5 8 C-5.66 6.68 -6.32 5.36 -7 4 C-4 3 -4 3 0 3 C0 3.66 0 4.32 0 5 C0.66 5 1.32 5 2 5 C1.34 3.35 0.68 1.7 0 0 Z M8 4 C8.33 4.99 8.66 5.98 9 7 C9 6.01 9 5.02 9 4 C8.67 4 8.34 4 8 4 Z M14 4 C13.67 4.66 13.34 5.32 13 6 C13.66 6 14.32 6 15 6 C14.67 5.34 14.34 4.68 14 4 Z " fill="#333333" transform="translate(159,65)"/>
<path d="M0 0 C0 0.66 0 1.32 0 2 C1.98 2 3.96 2 6 2 C6 3.65 6 5.3 6 7 C4.02 7 2.04 7 0 7 C-0.33 7.66 -0.66 8.32 -1 9 C-2.04800781 8.7834375 -2.04800781 8.7834375 -3.1171875 8.5625 C-4.48230469 8.2840625 -4.48230469 8.2840625 -5.875 8 C-6.77992187 7.814375 -7.68484375 7.62875 -8.6171875 7.4375 C-10.92407903 6.93980405 -10.92407903 6.93980405 -13 7 C-18 7 -23 7 -28 7 C-28 5.35 -28 3.7 -28 2 C-24.71303767 1.20046862 -23.28976808 0.90341064 -20 2 C-19.67 2.99 -19.34 3.98 -19 5 C-18.67 4.01 -18.34 3.02 -18 2 C-15 1 -15 1 -11 1 C-10.401875 0.835 -9.80375 0.67 -9.1875 0.5 C-6.11470362 -0.20235346 -3.13919015 -0.06036904 0 0 Z M-1 4 C0 7 0 7 0 7 Z " fill="#313131" transform="translate(59,65)"/>
<path d="M0 0 C2.23439303 0.28956633 2.23439303 0.28956633 5.2734375 -0.3125 C10.59828987 -1.02248032 15.7017799 -0.38049301 21.0234375 0.1875 C21.5184375 3.1575 21.5184375 3.1575 22.0234375 6.1875 C20.25268833 6.21455729 18.48182039 6.23392195 16.7109375 6.25 C15.72480469 6.26160156 14.73867187 6.27320312 13.72265625 6.28515625 C11.0234375 6.1875 11.0234375 6.1875 8.0234375 5.1875 C5.49316684 5.35646632 3.00950259 5.69764521 0.49609375 6.03125 C-1.9559947 6.1862003 -3.62346624 5.77700219 -5.9765625 5.1875 C-6.9665625 5.5175 -7.9565625 5.8475 -8.9765625 6.1875 C-9.9665625 5.5275 -10.9565625 4.8675 -11.9765625 4.1875 C-11.6465625 2.8675 -11.3165625 1.5475 -10.9765625 0.1875 C-7.08521282 -0.9069421 -3.96716479 -0.58991298 0 0 Z M7.0234375 1.1875 C8.0234375 3.1875 8.0234375 3.1875 8.0234375 3.1875 Z " fill="#323232" transform="translate(78.9765625,66.8125)"/>
<path d="M0 0 C1.8871875 0.0309375 1.8871875 0.0309375 3.8125 0.0625 C4.4725 2.3725 5.1325 4.6825 5.8125 7.0625 C6.616875 7.041875 7.42125 7.02125 8.25 7 C10.8125 7.0625 10.8125 7.0625 11.8125 8.0625 C11.88429964 9.58178038 11.89642007 11.10417482 11.875 12.625 C11.86597656 13.45128906 11.85695312 14.27757812 11.84765625 15.12890625 C11.83605469 15.76699219 11.82445312 16.40507813 11.8125 17.0625 C9.5025 17.0625 7.1925 17.0625 4.8125 17.0625 C2.8125 11.3125 2.8125 11.3125 2.8125 9.0625 C0.5025 8.7325 -1.8075 8.4025 -4.1875 8.0625 C-4.5175 7.0725 -4.8475 6.0825 -5.1875 5.0625 C-5.8475 5.0625 -6.5075 5.0625 -7.1875 5.0625 C-7.1875 3.7425 -7.1875 2.4225 -7.1875 1.0625 C-4.43671116 0.14557039 -2.82801087 -0.04636083 0 0 Z " fill="#4B4B4B" transform="translate(182.1875,36.9375)"/>
<path d="M0 0 C0.99 0.33 1.98 0.66 3 1 C3 2.65 3 4.3 3 6 C2.01 6.33 1.02 6.66 0 7 C-0.33 7.66 -0.66 8.32 -1 9 C-2.32 8.34 -3.64 7.68 -5 7 C-5.33 7.66 -5.66 8.32 -6 9 C-6 8.34 -6 7.68 -6 7 C-6.969375 7.165 -7.93875 7.33 -8.9375 7.5 C-15.36318196 8.41052173 -21.63347244 8.30595437 -28 7 C-28 5.35 -28 3.7 -28 2 C-24.22999352 1.77432589 -20.45908213 1.57244154 -16.6875 1.375 C-15.0797168 1.27832031 -15.0797168 1.27832031 -13.43945312 1.1796875 C-11.89741211 1.10234375 -11.89741211 1.10234375 -10.32421875 1.0234375 C-8.9024231 0.94488525 -8.9024231 0.94488525 -7.4519043 0.86474609 C-5 1 -5 1 -2 3 C-1.34 2.01 -0.68 1.02 0 0 Z M-19 3 C-18 6 -18 6 -18 6 Z " fill="#363636" transform="translate(129,65)"/>
<path d="M0 0 C0.66 0 1.32 0 2 0 C2 2.31 2 4.62 2 7 C4.31 7.33 6.62 7.66 9 8 C9 8.66 9 9.32 9 10 C9.99 9.67 10.98 9.34 12 9 C11.67 10.32 11.34 11.64 11 13 C6.71 13 2.42 13 -2 13 C-1.67 11.68 -1.34 10.36 -1 9 C-1.33 8.34 -1.66 7.68 -2 7 C-1.34 7 -0.68 7 0 7 C0 4.69 0 2.38 0 0 Z " fill="#2E2E2E" transform="translate(135,59)"/>
<path d="M0 0 C2 2 2 2 2 5 C-1.31070838 6.00109515 -4.30084769 6.10356134 -7.75 6.0625 C-8.73484375 6.05347656 -9.7196875 6.04445313 -10.734375 6.03515625 C-11.48203125 6.02355469 -12.2296875 6.01195313 -13 6 C-13 5.34 -13 4.68 -13 4 C-12.34 4 -11.68 4 -11 4 C-11 3.34 -11 2.68 -11 2 C-9.68 1.67 -8.36 1.34 -7 1 C-7 1.66 -7 2.32 -7 3 C-6.34 3 -5.68 3 -5 3 C-5 2.34 -5 1.68 -5 1 C-2.625 0.375 -2.625 0.375 0 0 Z " fill="#323232" transform="translate(185,67)"/>
<path d="M0 0 C0.99 0.33 1.98 0.66 3 1 C3 2.65 3 4.3 3 6 C2.01 6.33 1.02 6.66 0 7 C-0.33 7.66 -0.66 8.32 -1 9 C-2.32 8.34 -3.64 7.68 -5 7 C-5.33 7.66 -5.66 8.32 -6 9 C-6 7.35 -6 5.7 -6 4 C-6.66 4 -7.32 4 -8 4 C-7.67 3.01 -7.34 2.02 -7 1 C-4.525 1.99 -4.525 1.99 -2 3 C-1.34 2.01 -0.68 1.02 0 0 Z " fill="#252525" transform="translate(129,65)"/>
<path d="M0 0 C0 5.61 0 11.22 0 17 C-0.66 17.33 -1.32 17.66 -2 18 C-2.33 13.71 -2.66 9.42 -3 5 C-3.99 5.495 -3.99 5.495 -5 6 C-2.84615385 0 -2.84615385 0 0 0 Z " fill="#343434" transform="translate(163,41)"/>
<path d="M0 0 C1.65 0.33 3.3 0.66 5 1 C5 1.66 5 2.32 5 3 C5.66 3 6.32 3 7 3 C7 3.99 7 4.98 7 6 C4.69 6.33 2.38 6.66 0 7 C-0.99 5.68 -1.98 4.36 -3 3 C-2.01 3 -1.02 3 0 3 C0 2.01 0 1.02 0 0 Z " fill="#2F2F2F" transform="translate(116,66)"/>
<path d="M0 0 C2.31 0 4.62 0 7 0 C8 3 8 3 7.0625 5.1875 C6.5365625 6.0846875 6.5365625 6.0846875 6 7 C3.95880212 5.38405168 1.95927063 3.7143618 0 2 C0 1.34 0 0.68 0 0 Z " fill="#919191" transform="translate(179,37)"/>
<path d="M0 0 C1.65 0 3.3 0 5 0 C5 1.65 5 3.3 5 5 C3.02 5 1.04 5 -1 5 C-0.67 3.35 -0.34 1.7 0 0 Z " fill="#363636" transform="translate(60,67)"/>
<path d="M0 0 C0 0.66 0 1.32 0 2 C0.66 2 1.32 2 2 2 C2.33 1.34 2.66 0.68 3 0 C3 0.99 3 1.98 3 3 C0.03 3.66 -2.94 4.32 -6 5 C-6 4.34 -6 3.68 -6 3 C-5.34 3 -4.68 3 -4 3 C-4 2.34 -4 1.68 -4 1 C-2 0 -2 0 0 0 Z " fill="#2B2B2B" transform="translate(178,68)"/>
<path d="M0 0 C0.33 0.66 0.66 1.32 1 2 C0.67 2.99 0.34 3.98 0 5 C0.66 5.33 1.32 5.66 2 6 C1.01 6.495 1.01 6.495 0 7 C-2.625 6.0625 -2.625 6.0625 -5 5 C-4.1875 3.0625 -4.1875 3.0625 -3 1 C-2.01 0.67 -1.02 0.34 0 0 Z " fill="#292929" transform="translate(167,67)"/>
<path d="M0 0 C1.32 0.33 2.64 0.66 4 1 C2.68 1.33 1.36 1.66 0 2 C0 1.34 0 0.68 0 0 Z M-1 2 C-0.67 2.99 -0.34 3.98 0 5 C1.32 4.34 2.64 3.68 4 3 C4.33 4.65 4.66 6.3 5 8 C-0.75 6.25 -0.75 6.25 -3 4 C-2.34 3.34 -1.68 2.68 -1 2 Z " fill="#252525" transform="translate(54,66)"/>
<path d="M0 0 C1.66611905 -0.042721 3.33382885 -0.04063832 5 0 C6 1 6 1 6.0625 3.5625 C6.041875 4.366875 6.02125 5.17125 6 6 C3.96166576 4.7260411 1.96147874 3.38938077 0 2 C0 1.34 0 0.68 0 0 Z " fill="#7D7D7D" transform="translate(188,44)"/>
<path d="M0 0 C2.475 0.495 2.475 0.495 5 1 C5.33 2.32 5.66 3.64 6 5 C4.02 5 2.04 5 0 5 C0 3.35 0 1.7 0 0 Z " fill="#343434" transform="translate(31,67)"/>
<path d="M0 0 C2 3 2 3 2 6 C0.35 5.67 -1.3 5.34 -3 5 C-3 4.01 -3 3.02 -3 2 C-3.66 1.67 -4.32 1.34 -5 1 C-3.35 0.67 -1.7 0.34 0 0 Z " fill="#272727" transform="translate(99,67)"/>
<path d="M0 0 C0.99 0.33 1.98 0.66 3 1 C3 2.65 3 4.3 3 6 C1.35 5.67 -0.3 5.34 -2 5 C-1.34 3.35 -0.68 1.7 0 0 Z " fill="#2D2D2D" transform="translate(129,65)"/>
<path d="M0 0 C1.98 0 3.96 0 6 0 C5.6875 1.9375 5.6875 1.9375 5 4 C4.01 4.33 3.02 4.66 2 5 C0 1.125 0 1.125 0 0 Z " fill="#2B2B2B" transform="translate(152,68)"/>
<path d="M0 0 C0.68707555 2.49064888 1 4.37886292 1 7 C0.34 7 -0.32 7 -1 7 C-1 6.34 -1 5.68 -1 5 C-1.66 5 -2.32 5 -3 5 C-3 3.68 -3 2.36 -3 1 C-2.01 0.67 -1.02 0.34 0 0 Z " fill="#595959" transform="translate(178,37)"/>
<path d="M0 0 C4.875 2.75 4.875 2.75 6 5 C4.35 5 2.7 5 1 5 C0.67 3.35 0.34 1.7 0 0 Z " fill="#5A5A5A" transform="translate(186,49)"/>
<path d="M0 0 C0.66 0.66 1.32 1.32 2 2 C1.01 2.33 0.02 2.66 -1 3 C-0.67 2.01 -0.34 1.02 0 0 Z " fill="#000000" transform="translate(147,71)"/>
<path d="M0 0 C0.66 0.66 1.32 1.32 2 2 C1.01 1.67 0.02 1.34 -1 1 C-0.67 0.67 -0.34 0.34 0 0 Z " fill="#000000" transform="translate(66,71)"/>
<path d="M0 0 C0.66 0 1.32 0 2 0 C2 0.66 2 1.32 2 2 C1.34 2 0.68 2 0 2 C0 1.34 0 0.68 0 0 Z " fill="#000000" transform="translate(46,72)"/>
<path d="M0 0 C0.99 0.33 1.98 0.66 3 1 C2.01 1 1.02 1 0 1 C0 0.67 0 0.34 0 0 Z " fill="#000000" transform="translate(186,66)"/>
<path d="M0 0 C0.66 0.66 1.32 1.32 2 2 C1.34 2 0.68 2 0 2 C0 1.34 0 0.68 0 0 Z " fill="#000000" transform="translate(42,72)"/>
<path d="M0 0 C0.66 0.66 1.32 1.32 2 2 C1.34 2 0.68 2 0 2 C0 1.34 0 0.68 0 0 Z " fill="#000000" transform="translate(79,59)"/>
<path d="M0 0 C0.99 0.495 0.99 0.495 2 1 C1.01 1.495 1.01 1.495 0 2 C0 1.34 0 0.68 0 0 Z " fill="#000000" transform="translate(205,41)"/>
<path d="" fill="#000000" transform="translate(0,0)"/>
<path d="" fill="#000000" transform="translate(0,0)"/>
<path d="" fill="#000000" transform="translate(0,0)"/>
<path d="" fill="#000000" transform="translate(0,0)"/>
<path d="" fill="#000000" transform="translate(0,0)"/>
<path d="M0 0 C2 1 2 1 2 1 Z " fill="#000000" transform="translate(114,63)"/>
<path d="M0 0 C2 1 2 1 2 1 Z " fill="#000000" transform="translate(83,63)"/>
<path d="" fill="#000000" transform="translate(0,0)"/>
<path d="" fill="#000000" transform="translate(0,0)"/>
<path d="" fill="#000000" transform="translate(0,0)"/>
<path d="M0 0 C2 1 2 1 2 1 Z " fill="#000000" transform="translate(75,43)"/>
<path d="M0 0 C2 1 2 1 2 1 Z " fill="#000000" transform="translate(69,36)"/>
<path d="" fill="#000000" transform="translate(0,0)"/>
<path d="" fill="#000000" transform="translate(0,0)"/>
<path d="" fill="#000000" transform="translate(0,0)"/>
<path d="" fill="#000000" transform="translate(0,0)"/>
<path d="" fill="#000000" transform="translate(0,0)"/>
<path d="" fill="#000000" transform="translate(0,0)"/>
<path d="" fill="#000000" transform="translate(0,0)"/>
<path d="" fill="#000000" transform="translate(0,0)"/>
<path d="" fill="#000000" transform="translate(0,0)"/>
<path d="" fill="#000000" transform="translate(0,0)"/>
<path d="" fill="#000000" transform="translate(0,0)"/>
<path d="" fill="#000000" transform="translate(0,0)"/>
<path d="" fill="#000000" transform="translate(0,0)"/>
<path d="" fill="#000000" transform="translate(0,0)"/>
<path d="" fill="#000000" transform="translate(0,0)"/>
<path d="" fill="#000000" transform="translate(0,0)"/>
<path d="" fill="#000000" transform="translate(0,0)"/>
<path d="" fill="#000000" transform="translate(0,0)"/>
<path d="" fill="#000000" transform="translate(0,0)"/>
<path d="" fill="#000000" transform="translate(0,0)"/>
<path d="" fill="#000000" transform="translate(0,0)"/>
<path d="" fill="#000000" transform="translate(0,0)"/>
<path d="" fill="#000000" transform="translate(0,0)"/>
<path d="" fill="#000000" transform="translate(0,0)"/>
<path d="" fill="#000000" transform="translate(0,0)"/>
<path d="" fill="#000000" transform="translate(0,0)"/>
<path d="" fill="#000000" transform="translate(0,0)"/>
<path d="" fill="#000000" transform="translate(0,0)"/>
<path d="" fill="#000000" transform="translate(0,0)"/>
<path d="" fill="#000000" transform="translate(0,0)"/>
<path d="" fill="#000000" transform="translate(0,0)"/>
<path d="" fill="#000000" transform="translate(0,0)"/>
<path d="" fill="#000000" transform="translate(0,0)"/>
<path d="" fill="#000000" transform="translate(0,0)"/>
<path d="" fill="#000000" transform="translate(0,0)"/>
<path d="" fill="#000000" transform="translate(0,0)"/>
<path d="" fill="#000000" transform="translate(0,0)"/>
<path d="" fill="#000000" transform="translate(0,0)"/>
<path d="" fill="#000000" transform="translate(0,0)"/>
<path d="" fill="#000000" transform="translate(0,0)"/>
<path d="" fill="#000000" transform="translate(0,0)"/>
<path d="" fill="#000000" transform="translate(0,0)"/>
<path d="" fill="#000000" transform="translate(0,0)"/>
<path d="" fill="#000000" transform="translate(0,0)"/>
<path d="" fill="#000000" transform="translate(0,0)"/>
<path d="" fill="#000000" transform="translate(0,0)"/>
<path d="" fill="#000000" transform="translate(0,0)"/>
<path d="" fill="#000000" transform="translate(0,0)"/>
<path d="" fill="#000000" transform="translate(0,0)"/>
<path d="" fill="#000000" transform="translate(0,0)"/>
<path d="" fill="#000000" transform="translate(0,0)"/>
<path d="" fill="#000000" transform="translate(0,0)"/>
<path d="" fill="#000000" transform="translate(0,0)"/>
<path d="" fill="#000000" transform="translate(0,0)"/>
<path d="" fill="#000000" transform="translate(0,0)"/>
<path d="" fill="#000000" transform="translate(0,0)"/>
<path d="" fill="#000000" transform="translate(0,0)"/>
<path d="" fill="#000000" transform="translate(0,0)"/>
<path d="" fill="#000000" transform="translate(0,0)"/>
<path d="" fill="#000000" transform="translate(0,0)"/>
<path d="" fill="#000000" transform="translate(0,0)"/>
<path d="" fill="#000000" transform="translate(0,0)"/>
<path d="" fill="#000000" transform="translate(0,0)"/>
<path d="" fill="#000000" transform="translate(0,0)"/>
<path d="" fill="#000000" transform="translate(0,0)"/>
<path d="" fill="#000000" transform="translate(0,0)"/>
<path d="" fill="#000000" transform="translate(0,0)"/>
<path d="" fill="#000000" transform="translate(0,0)"/>
<path d="" fill="#000000" transform="translate(0,0)"/>
<path d="" fill="#000000" transform="translate(0,0)"/>
<path d="" fill="#000000" transform="translate(0,0)"/>
<path d="" fill="#000000" transform="translate(0,0)"/>
<path d="" fill="#000000" transform="translate(0,0)"/>
<path d="" fill="#000000" transform="translate(0,0)"/>
<path d="" fill="#000000" transform="translate(0,0)"/>
<path d="" fill="#000000" transform="translate(0,0)"/>
<path d="" fill="#000000" transform="translate(0,0)"/>
<path d="" fill="#000000" transform="translate(0,0)"/>
<path d="" fill="#000000" transform="translate(0,0)"/>
<path d="" fill="#000000" transform="translate(0,0)"/>
<path d="" fill="#000000" transform="translate(0,0)"/>
<path d="" fill="#000000" transform="translate(0,0)"/>
<path d="" fill="#000000" transform="translate(0,0)"/>
<path d="" fill="#000000" transform="translate(0,0)"/>
<path d="" fill="#000000" transform="translate(0,0)"/>
<path d="" fill="#000000" transform="translate(0,0)"/>
<path d="" fill="#000000" transform="translate(0,0)"/>
<path d="" fill="#000000" transform="translate(0,0)"/>
<path d="" fill="#000000" transform="translate(0,0)"/>
<path d="" fill="#000000" transform="translate(0,0)"/>
<path d="" fill="#000000" transform="translate(0,0)"/>
<path d="" fill="#000000" transform="translate(0,0)"/>
<path d="" fill="#000000" transform="translate(0,0)"/>
<path d="" fill="#000000" transform="translate(0,0)"/>
<path d="" fill="#000000" transform="translate(0,0)"/>
<path d="" fill="#000000" transform="translate(0,0)"/>
<path d="" fill="#000000" transform="translate(0,0)"/>
<path d="" fill="#000000" transform="translate(0,0)"/>
<path d="" fill="#000000" transform="translate(0,0)"/>
<path d="" fill="#000000" transform="translate(0,0)"/>
<path d="" fill="#000000" transform="translate(0,0)"/>
<path d="" fill="#000000" transform="translate(0,0)"/>
<path d="" fill="#000000" transform="translate(0,0)"/>
<path d="" fill="#000000" transform="translate(0,0)"/>
<path d="" fill="#000000" transform="translate(0,0)"/>
<path d="" fill="#000000" transform="translate(0,0)"/>
</svg>
