<?xml version="1.0" encoding="UTF-8"?>
<svg version="1.1" xmlns="http://www.w3.org/2000/svg" width="30" height="30">
<path d="M0 0 C2.875 1.6875 2.875 1.6875 5 5 C5.42057054 9.69548377 5.28625726 14.29901962 5 19 C3.35 19.33 1.7 19.66 0 20 C-0.33 17.36 -0.66 14.72 -1 12 C-2.98 12 -4.96 12 -7 12 C-7.33 14.64 -7.66 17.28 -8 20 C-9.65 19.67 -11.3 19.34 -13 19 C-14.05306326 6.79783843 -14.05306326 6.79783843 -11.65234375 2.69921875 C-7.90026901 -0.75598854 -4.93418342 -2.03803228 0 0 Z " fill="#68C4C4" transform="translate(19,7)"/>
<path d="M0 0 C1.67542976 0.28604898 3.34385343 0.61781233 5 1 C5.04254356 2.99954746 5.04080783 5.00041636 5 7 C4 8 4 8 1.4375 8.0625 C0.633125 8.041875 -0.17125 8.02125 -1 8 C-1.04241723 5.66705225 -1.04092937 3.33297433 -1 1 C-0.67 0.67 -0.34 0.34 0 0 Z " fill="#5FB3B3" transform="translate(13,19)"/>
</svg>
