<?xml version="1.0" encoding="UTF-8"?>
<svg version="1.1" xmlns="http://www.w3.org/2000/svg" width="26" height="26">
<path d="M0 0 C2.31 1.98 4.62 3.96 7 6 C4.5 11 4.5 11 2 13 C1.01 13 0.02 13 -1 13 C-0.34 11.68 0.32 10.36 1 9 C-1.31 8.67 -3.62 8.34 -6 8 C-6 7.34 -6 6.68 -6 6 C-2.535 5.505 -2.535 5.505 1 5 C0.34 3.68 -0.32 2.36 -1 1 C-0.67 0.67 -0.34 0.34 0 0 Z " fill="#6FD3D3" transform="translate(15,6)"/>
<path d="M0 0 C0.99 0 1.98 0 3 0 C3 0.99 3 1.98 3 3 C2.34 3 1.68 3 1 3 C1 6.96 1 10.92 1 15 C1.66 15 2.32 15 3 15 C3 15.99 3 16.98 3 18 C-0.875 17.125 -0.875 17.125 -2 16 C-2.12557162 13.69006618 -2.17575729 11.37581464 -2.1875 9.0625 C-2.20167969 7.79535156 -2.21585937 6.52820312 -2.23046875 5.22265625 C-2 2 -2 2 0 0 Z " fill="#5FB4B4" transform="translate(6,4)"/>
<path d="M0 0 C1.32 0.99 2.64 1.98 4 3 C3.67 3.99 3.34 4.98 3 6 C1.68 5.01 0.36 4.02 -1 3 C-0.67 2.01 -0.34 1.02 0 0 Z M-6 6 C-3.36 6 -0.72 6 2 6 C1.67 6.66 1.34 7.32 1 8 C-1.31 8 -3.62 8 -6 8 C-6 7.34 -6 6.68 -6 6 Z " fill="#60B6B6" transform="translate(15,6)"/>
</svg>
