<?xml version="1.0" encoding="UTF-8"?>
<svg version="1.1" xmlns="http://www.w3.org/2000/svg" width="175" height="41">
<path d="M0 0 C1.33900614 0.72089156 2.6743848 1.44852907 4.0078125 2.1796875 C6.3590625 3.4584375 8.7103125 4.7371875 11.1328125 6.0546875 C11.1328125 13.3146875 11.1328125 20.5746875 11.1328125 28.0546875 C8.2865625 29.5603125 5.4403125 31.0659375 2.5078125 32.6171875 C1.18015869 33.33563843 1.18015869 33.33563843 -0.17431641 34.06860352 C-3.80901919 35.9366755 -6.12458456 37.08193898 -10.2734375 36.9296875 C-13.10075232 35.97589455 -15.39934195 34.72411243 -17.8671875 33.0546875 C-16.8671875 30.0546875 -16.8671875 30.0546875 -14.8671875 28.0546875 C-17.1771875 27.3946875 -19.4871875 26.7346875 -21.8671875 26.0546875 C-22.1971875 27.3746875 -22.5271875 28.6946875 -22.8671875 30.0546875 C-25.8046875 29.3046875 -25.8046875 29.3046875 -28.8671875 28.0546875 C-31.19285285 21.67292572 -30.73993739 13.6954611 -29.8671875 7.0546875 C-27.78678008 3.97878426 -25.27859118 3.28571391 -21.8671875 2.0546875 C-19.82336313 0.91270731 -17.78179082 -0.23331038 -15.7421875 -1.3828125 C-9.38173419 -4.88359251 -6.08125706 -3.11976102 0 0 Z M-7.8671875 9.0546875 C-7.8671875 9.7146875 -7.8671875 10.3746875 -7.8671875 11.0546875 C-5.40325031 12.60605536 -4.18629604 13.08507879 -1.2421875 12.8046875 C1.28881479 12.2062537 1.28881479 12.2062537 3.1328125 10.0546875 C-2.40703142 6.74317601 -2.40703142 6.74317601 -7.8671875 9.0546875 Z M-22.8671875 10.0546875 C-22.8671875 12.0346875 -22.8671875 14.0146875 -22.8671875 16.0546875 C-19.06291258 18.2560741 -19.06291258 18.2560741 -14.8671875 19.0546875 C-14.8671875 17.4046875 -14.8671875 15.7546875 -14.8671875 14.0546875 C-17.5071875 12.7346875 -20.1471875 11.4146875 -22.8671875 10.0546875 Z M0.1328125 20.0546875 C0.7721875 20.1784375 1.4115625 20.3021875 2.0703125 20.4296875 C2.7509375 20.6359375 3.4315625 20.8421875 4.1328125 21.0546875 C4.4628125 21.7146875 4.7928125 22.3746875 5.1328125 23.0546875 C5.1328125 21.0746875 5.1328125 19.0946875 5.1328125 17.0546875 C3.16458364 17.0546875 1.62752705 18.89748914 0.1328125 20.0546875 Z M-7.8671875 23.0546875 C-7.8671875 25.0346875 -7.8671875 27.0146875 -7.8671875 29.0546875 C-4.5671875 27.4046875 -1.2671875 25.7546875 2.1328125 24.0546875 C1.4728125 23.0646875 0.8128125 22.0746875 0.1328125 21.0546875 C-3.63406614 21.0546875 -4.77909055 21.29006067 -7.8671875 23.0546875 Z " fill="#12515C" transform="translate(29.8671875,3.9453125)"/>
<path d="M0 0 C4.2800427 0.06837129 4.2800427 0.06837129 6.875 2.375 C7.4525 3.035 8.03 3.695 8.625 4.375 C11.29334966 4.70998301 11.29334966 4.70998301 13.625 4.375 C13.955 6.685 14.285 8.995 14.625 11.375 C15.285 11.375 15.945 11.375 16.625 11.375 C16.955 9.065 17.285 6.755 17.625 4.375 C19.275 4.375 20.925 4.375 22.625 4.375 C21.58501104 11.03092933 20.36994616 17.19887114 17.625 23.375 C14.91620665 24.72939668 12.61566732 24.44001451 9.625 24.375 C9.625 22.725 9.625 21.075 9.625 19.375 C10.285 19.045 10.945 18.715 11.625 18.375 C11.4084375 17.76011719 11.191875 17.14523438 10.96875 16.51171875 C10.6903125 15.70347656 10.411875 14.89523438 10.125 14.0625 C9.8465625 13.26199219 9.568125 12.46148437 9.28125 11.63671875 C8.625 9.375 8.625 9.375 8.625 6.375 C7.7175 6.41625 6.81 6.4575 5.875 6.5 C2.7467954 6.37968444 1.23885994 5.9835292 -1.375 4.375 C-1.045 5.035 -0.715 5.695 -0.375 6.375 C1.3265625 6.8390625 1.3265625 6.8390625 3.0625 7.3125 C6.625 8.375 6.625 8.375 8.625 11.375 C8.5 14.4375 8.5 14.4375 7.625 17.375 C4.66325016 19.38007843 2.50463987 19.59188152 -1 19.1875 C-2.16402344 19.07341797 -2.16402344 19.07341797 -3.3515625 18.95703125 C-5.375 18.375 -5.375 18.375 -7.375 15.375 C-7.375 14.385 -7.375 13.395 -7.375 12.375 C-3.51854879 12.15463136 -0.88276784 12.77144899 2.625 14.375 C2.625 13.715 2.625 13.055 2.625 12.375 C1.51125 12.25125 0.3975 12.1275 -0.75 12 C-4.375 11.375 -4.375 11.375 -6.375 9.375 C-6.625 5.875 -6.625 5.875 -6.375 2.375 C-3.98213116 -0.01786884 -3.28052906 0.05449384 0 0 Z " fill="#12505A" transform="translate(121.375,10.625)"/>
<path d="M0 0 C1.98 0 3.96 0 6 0 C6 5.94 6 11.88 6 18 C-2.10362694 19.14507772 -2.10362694 19.14507772 -6 19 C-8.75 16.5625 -8.75 16.5625 -10 14 C-10.680625 14.845625 -11.36125 15.69125 -12.0625 16.5625 C-15 19 -15 19 -18.625 19.0625 C-22 18 -22 18 -24 16.375 C-25.45635054 12.91616747 -24.91305869 10.58701629 -24 7 C-22.875 5.0625 -22.875 5.0625 -21 4 C-17.5625 3.5 -17.5625 3.5 -14 4 C-11.5625 6.5 -11.5625 6.5 -10 9 C-9.7215625 8.0409375 -9.7215625 8.0409375 -9.4375 7.0625 C-8 5 -8 5 -4.375 4.25 C-3.26125 4.1675 -2.1475 4.085 -1 4 C-0.67 2.68 -0.34 1.36 0 0 Z M-19 8 C-19.33 8.66 -19.66 9.32 -20 10 C-18.68 9.67 -17.36 9.34 -16 9 C-16.99 8.67 -17.98 8.34 -19 8 Z M-2 8 C-2.99 8.99 -3.98 9.98 -5 11 C-4.67 11.99 -4.34 12.98 -4 14 C-2.68 14 -1.36 14 0 14 C0 12.35 0 10.7 0 9 C-0.66 8.67 -1.32 8.34 -2 8 Z M-19 13 C-18.34 13.66 -17.68 14.32 -17 15 C-16.67 14.34 -16.34 13.68 -16 13 C-16.99 13 -17.98 13 -19 13 Z " fill="#12505A" transform="translate(99,11)"/>
<path d="M0 0 C2.64 0 5.28 0 8 0 C8.99 2.31 9.98 4.62 11 7 C11.99 4.69 12.98 2.38 14 0 C16.31 0 18.62 0 21 0 C21 5.94 21 11.88 21 18 C19.35 18 17.7 18 16 18 C15.67 15.69 15.34 13.38 15 11 C14.34 12.32 13.68 13.64 13 15 C11.35 15 9.7 15 8 15 C7.34 13.35 6.68 11.7 6 10 C5.67 12.64 5.34 15.28 5 18 C3.35 18 1.7 18 0 18 C0 12.06 0 6.12 0 0 Z " fill="#12505A" transform="translate(51,11)"/>
<path d="M0 0 C8.3984375 -0.1953125 8.3984375 -0.1953125 11 0 C13 2 13 2 13.1953125 4.8203125 C13.16050781 6.45613281 13.16050781 6.45613281 13.125 8.125 C13.10695312 9.22070312 13.08890625 10.31640625 13.0703125 11.4453125 C13.04710937 12.28835937 13.02390625 13.13140625 13 14 C11.35 14 9.7 14 8 14 C8 11.03 8 8.06 8 5 C7.01 5 6.02 5 5 5 C5 7.97 5 10.94 5 14 C3.35 14 1.7 14 0 14 C0 9.38 0 4.76 0 0 Z " fill="#12505A" transform="translate(145,15)"/>
<path d="M0 0 C2.375 1.875 2.375 1.875 4 4 C4 4.66 4 5.32 4 6 C0.80097361 6.08886184 -1.92677456 5.91058531 -5 5 C-4.73323796 6.98491642 -4.73323796 6.98491642 -4 9 C-3.01 9.33 -2.02 9.66 -1 10 C-1 9.34 -1 8.68 -1 8 C0.65 8 2.3 8 4 8 C3.6875 10.375 3.6875 10.375 3 13 C-0.49124017 15.32749345 -1.89222251 15.50299316 -6 15 C-8.375 13.4375 -8.375 13.4375 -10 11 C-10.56783945 7.02512383 -10.62340519 4.93510779 -8.375 1.5625 C-5.28314769 -0.47161336 -3.63632575 -0.60605429 0 0 Z " fill="#12505A" transform="translate(170,15)"/>
<path d="M0 0 C1.32 0 2.64 0 4 0 C5.00926479 4.15626368 5.10239579 8.04365094 5.0625 12.3125 C5.05347656 13.56675781 5.04445313 14.82101563 5.03515625 16.11328125 C5.01775391 17.54220703 5.01775391 17.54220703 5 19 C3.35 19 1.7 19 0 19 C0 15.7 0 12.4 0 9 C-0.66 9 -1.32 9 -2 9 C-1.125 1.125 -1.125 1.125 0 0 Z " fill="#12505A" transform="translate(108,10)"/>
<path d="M0 0 C0.99 0.33 1.98 0.66 3 1 C2.67 1.66 2.34 2.32 2 3 C1.01 2.67 0.02 2.34 -1 2 C-0.67 1.34 -0.34 0.68 0 0 Z " fill="#0C7387" transform="translate(9,33)"/>
</svg>
