<?xml version="1.0" encoding="UTF-8"?>
<svg version="1.1" xmlns="http://www.w3.org/2000/svg" width="24" height="24">
<path d="M0 0 C1.134375 0.020625 2.26875 0.04125 3.4375 0.0625 C4.0975 2.3725 4.7575 4.6825 5.4375 7.0625 C8.4075 7.5575 8.4075 7.5575 11.4375 8.0625 C11.46437279 9.87492052 11.48383715 11.68745233 11.5 13.5 C11.51160156 14.50933594 11.52320312 15.51867187 11.53515625 16.55859375 C11.4375 19.0625 11.4375 19.0625 10.4375 20.0625 C8.10589945 20.16159302 5.77120058 20.19220504 3.4375 20.1875 C2.15875 20.19007812 0.88 20.19265625 -0.4375 20.1953125 C-3.5625 20.0625 -3.5625 20.0625 -4.5625 19.0625 C-4.6608721 17.73206375 -4.69328592 16.39656656 -4.6953125 15.0625 C-4.69660156 14.258125 -4.69789062 13.45375 -4.69921875 12.625 C-4.69535156 11.779375 -4.69148437 10.93375 -4.6875 10.0625 C-4.69136719 9.216875 -4.69523438 8.37125 -4.69921875 7.5 C-4.69792969 6.695625 -4.69664063 5.89125 -4.6953125 5.0625 C-4.69418457 4.32 -4.69305664 3.5775 -4.69189453 2.8125 C-4.44481924 -0.52907677 -3.44621318 0.06045988 0 0 Z M0.4375 10.0625 C0.4375 10.7225 0.4375 11.3825 0.4375 12.0625 C2.4175 12.0625 4.3975 12.0625 6.4375 12.0625 C6.4375 11.4025 6.4375 10.7425 6.4375 10.0625 C4.4575 10.0625 2.4775 10.0625 0.4375 10.0625 Z M0.4375 14.0625 C0.4375 14.7225 0.4375 15.3825 0.4375 16.0625 C1.7575 16.0625 3.0775 16.0625 4.4375 16.0625 C4.4375 15.4025 4.4375 14.7425 4.4375 14.0625 C3.1175 14.0625 1.7975 14.0625 0.4375 14.0625 Z " fill="#67C2C2" transform="translate(8.5625,1.9375)"/>
<path d="M0 0 C2.62187494 1.04874998 3.79371361 1.64931313 5.25 4.125 C5.4975 4.74375 5.745 5.3625 6 6 C4.02 6 2.04 6 0 6 C0 4.02 0 2.04 0 0 Z " fill="#6BCCCC" transform="translate(14,2)"/>
</svg>
