<?xml version="1.0" encoding="UTF-8"?>
<svg version="1.1" xmlns="http://www.w3.org/2000/svg" width="166" height="163">
<path d="M0 0 C0.8353125 0.2165625 0.8353125 0.2165625 1.6875 0.4375 C4.11384195 1.02769128 6.54906345 1.523429 9 2 C9 2.66 9 3.32 9 4 C10.134375 4.28875 11.26875 4.5775 12.4375 4.875 C13.613125 5.24625 14.78875 5.6175 16 6 C16.33 6.66 16.66 7.32 17 8 C17.99 8.33 18.98 8.66 20 9 C21.34090759 9.65129797 22.67592331 10.31513275 24 11 C24 11.99 24 12.98 24 14 C25.093125 14.12375 26.18625 14.2475 27.3125 14.375 C31 15 31 15 34 17 C34 17.99 34 18.98 34 20 C35.134375 20.12375 36.26875 20.2475 37.4375 20.375 C38.613125 20.58125 39.78875 20.7875 41 21 C41.495 21.99 41.495 21.99 42 23 C44.11785113 24.11785113 44.11785113 24.11785113 47 25 C47.66 25.66 48.32 26.32 49 27 C54.42557506 28.80852502 60.255923 28.51763625 65.9375 28.75 C67.22591797 28.81832031 68.51433594 28.88664062 69.84179688 28.95703125 C71.07865234 29.00730469 72.31550781 29.05757812 73.58984375 29.109375 C75.28935181 29.18623535 75.28935181 29.18623535 77.02319336 29.26464844 C80.38547611 28.96572984 81.50455312 28.17256285 84 26 C84.99 25.67 85.98 25.34 87 25 C88.20201095 24.38159348 89.38931114 23.73397959 90.5625 23.0625 C91.46162109 22.55396484 91.46162109 22.55396484 92.37890625 22.03515625 C94.17063549 20.97297095 94.17063549 20.97297095 96 19 C97.35515095 18.25439486 98.73270034 17.54869338 100.125 16.875 C100.84945312 16.52179687 101.57390625 16.16859375 102.3203125 15.8046875 C102.87460938 15.53914062 103.42890625 15.27359375 104 15 C104 14.34 104 13.68 104 13 C104.680625 12.9175 105.36125 12.835 106.0625 12.75 C110.66499847 11.57489401 114.61544251 9.38455749 118 6 C119.78937616 4.91909359 121.60560914 3.88217505 123.4375 2.875 C124.88962891 2.06675781 124.88962891 2.06675781 126.37109375 1.2421875 C129 0 129 0 132 0 C132 1.32 132 2.64 132 4 C136.455 4.99 136.455 4.99 141 6 C143.06767432 12.99828232 144.79177856 20.07827445 146.53125 27.1640625 C146.76328125 28.10378906 146.76328125 28.10378906 147 29.0625 C147.15210938 29.68382813 147.30421875 30.30515625 147.4609375 30.9453125 C147.87178865 32.51131037 148.32172534 34.0671088 148.7890625 35.6171875 C151.20088056 43.75425591 152.27108524 50.04911397 149 58 C148.49078162 59.90890242 148.01287502 61.82636434 147.5625 63.75 C146.67233157 67.5079791 145.64222018 70.9900677 144.1875 74.5625 C141.06248739 83.72372116 146.2204267 94.25117913 149 103 C153.39305478 117.05777531 149.39426019 129.64772788 144.640625 143.07421875 C144.0161567 144.95143137 143.56754296 146.88427709 143.125 148.8125 C141.74342528 152.7269617 140.64258352 154.02033504 137 156 C131.63960816 156.51051351 128.05113865 155.88179675 123 154 C120.2577281 153.20985386 117.5059043 152.46865052 114.74609375 151.7421875 C113.0605186 151.28662665 111.38277165 150.79884496 109.72265625 150.2578125 C106.16742789 149.15234802 104.34706316 148.87070196 100.8125 150.1875 C99.884375 150.785625 98.95625 151.38375 98 152 C94.74032092 153.9920261 91.45131873 155.8622064 88.0625 157.625 C87.24910156 158.05039063 86.43570313 158.47578125 85.59765625 158.9140625 C76.82618245 162.58093426 62.6809718 162.91825022 53.69140625 159.8828125 C51.62568428 158.71278758 49.79381695 157.55021218 48 156 C48 155.34 48 154.68 48 154 C46.8553125 153.814375 46.8553125 153.814375 45.6875 153.625 C42.22074997 152.81877906 39.94637227 150.96424818 37 149 C30.14012067 149.35482134 24.12100838 151.42158951 17.74609375 153.86328125 C12.58994301 155.75536439 7.50016158 157.07268926 2 156 C-1.03317731 154.40300719 -1.87347057 153.32598901 -3.125 150.1015625 C-3.41375 148.95429688 -3.7025 147.80703125 -4 146.625 C-5.57662261 140.59379287 -7.34333679 134.67170727 -9.265625 128.7421875 C-10 126 -10 126 -10 122 C-10.66 122 -11.32 122 -12 122 C-11.65276131 114.4685125 -10.88677797 107.548839 -8.62109375 100.33984375 C-7.8289615 97.75912624 -7.8289615 97.75912624 -8 94 C-7.34 94 -6.68 94 -6 94 C-6 91.36 -6 88.72 -6 86 C-5.34 86 -4.68 86 -4 86 C-3.43223837 78.87143726 -4.58923485 73.33805551 -7.125 66.6640625 C-8 64 -8 64 -8 60 C-8.66 59.67 -9.32 59.34 -10 59 C-10.66796875 56.92578125 -10.66796875 56.92578125 -11.1875 54.3125 C-11.36667969 53.46300781 -11.54585937 52.61351562 -11.73046875 51.73828125 C-12.2454541 46.50632863 -10.69674208 41.5057027 -9.5 36.4375 C-8.32421139 31.44627735 -7.1878903 26.52996388 -6.5625 21.4375 C-6.06446637 18.39396118 -5.37907193 16.66620573 -4 14 C-4 12.68 -4 11.36 -4 10 C-3.34 10 -2.68 10 -2 10 C-2 7.36 -2 4.72 -2 2 C-1.34 2 -0.68 2 0 2 C0 1.34 0 0.68 0 0 Z " fill="#FB8C5D" transform="translate(13,0)"/>
<path d="M0 0 C-0.680625 0.33 -1.36125 0.66 -2.0625 1 C-5.29620346 3.20167044 -7.34551131 5.58558565 -9.84765625 8.55859375 C-12.44426215 11.50392712 -15.20360357 14.24589475 -18 17 C-21.90029204 20.8512994 -25.61178583 24.76361435 -29.16015625 28.9453125 C-31.49748252 31.55557496 -33.99700596 33.98835188 -36.5 36.4375 C-41.12056871 41.00070993 -45.19586183 45.74172028 -49 51 C-48.25862793 51.26353271 -47.51725586 51.52706543 -46.75341797 51.79858398 C-44.00281469 52.99877185 -42.21252727 54.28132958 -39.9453125 56.22265625 C-27.18114109 66.5297113 -17.31930943 69.1859705 -1 68 C0.12358953 71.89533944 1.24451621 75.79143444 2.36303711 79.68823242 C2.74349987 81.01233336 3.12467528 82.33622975 3.5065918 83.65991211 C4.05707476 85.56830091 4.60473897 87.47750208 5.15234375 89.38671875 C5.6472229 91.10701294 5.6472229 91.10701294 6.15209961 92.86206055 C9.21016699 104.17946336 7.65082155 112.43944779 4.0625 123.4375 C3.68931641 124.62021484 3.31613281 125.80292969 2.93164062 127.02148438 C0.21742543 135.56514914 0.21742543 135.56514914 -1 138 C-9.08428002 136.54255541 -16.83106598 134.37287903 -24.671875 131.94726562 C-25.56132813 131.68236328 -26.45078125 131.41746094 -27.3671875 131.14453125 C-28.16237793 130.90065674 -28.95756836 130.65678223 -29.77685547 130.40551758 C-34.13619227 129.61034314 -36.76830341 131.33052446 -40.31640625 133.72265625 C-51.12743591 140.69586924 -60.60238228 145.9246581 -73.7421875 143.60205078 C-80.52793273 141.79261655 -86.28330338 137.94665266 -92 134 C-92.58700684 133.63068359 -93.17401367 133.26136719 -93.77880859 132.88085938 C-95.21999566 131.97258714 -96.61536692 130.99235571 -98 130 C-98 129.34 -98 128.68 -98 128 C-95.46148538 127.15583837 -92.91989146 126.32452701 -90.375 125.5 C-89.30572266 125.14228516 -89.30572266 125.14228516 -88.21484375 124.77734375 C-84.00693976 123.42618192 -80.47763202 122.71749956 -76 123 C-75.505 126.465 -75.505 126.465 -75 130 C-69.39 130 -63.78 130 -58 130 C-57.773125 128.576875 -57.54625 127.15375 -57.3125 125.6875 C-57.18488281 124.88699219 -57.05726562 124.08648437 -56.92578125 123.26171875 C-56.81561509 120.97997441 -56.81561509 120.97997441 -58.06640625 119.2421875 C-60.88082566 117.43413625 -63.31036358 117.55141766 -66.625 117.4375 C-68.75358668 117.3599687 -70.88250134 117.23041652 -73 117 C-74.14255602 114.71488796 -74.20432398 113.2354492 -74.375 110.6875 C-74.98128013 103.54074327 -75.99796788 96.47311451 -77.0625 89.3828125 C-77.68403321 85.24238329 -78.25216016 81.098332 -78.78424072 76.94544983 C-79.15778915 74.07158912 -79.55608372 71.20142216 -79.95788574 68.33139038 C-80.15072662 66.91608901 -80.33363636 65.49939455 -80.50598145 64.08145142 C-81.59128176 55.21812185 -83.08098176 49.05167411 -90 43 C-90.721875 42.2575 -91.44375 41.515 -92.1875 40.75 C-92.785625 40.1725 -93.38375 39.595 -94 39 C-96.53814799 36.50060236 -98.94128303 33.96218208 -101.25 31.25 C-104.33564319 27.65480106 -107.63219764 24.32688319 -111 21 C-115.54945315 16.50034814 -119.87766699 11.89854839 -124 7 C-125.14516844 5.66609556 -126.29097349 4.33273732 -127.4375 3 C-128.283125 2.01 -129.12875 1.02 -130 0 C-127.69 0.33 -125.38 0.66 -123 1 C-123 1.66 -123 2.32 -123 3 C-121.865625 3.28875 -120.73125 3.5775 -119.5625 3.875 C-118.386875 4.24625 -117.21125 4.6175 -116 5 C-115.67 5.66 -115.34 6.32 -115 7 C-114.01 7.33 -113.02 7.66 -112 8 C-110.65909241 8.65129797 -109.32407669 9.31513275 -108 10 C-108 10.99 -108 11.98 -108 13 C-106.906875 13.12375 -105.81375 13.2475 -104.6875 13.375 C-101 14 -101 14 -98 16 C-98 16.99 -98 17.98 -98 19 C-96.865625 19.12375 -95.73125 19.2475 -94.5625 19.375 C-93.386875 19.58125 -92.21125 19.7875 -91 20 C-90.505 20.99 -90.505 20.99 -90 22 C-87.88214887 23.11785113 -87.88214887 23.11785113 -85 24 C-84.34 24.66 -83.68 25.32 -83 26 C-77.57442494 27.80852502 -71.744077 27.51763625 -66.0625 27.75 C-64.77408203 27.81832031 -63.48566406 27.88664062 -62.15820312 27.95703125 C-60.92134766 28.00730469 -59.68449219 28.05757812 -58.41015625 28.109375 C-56.71064819 28.18623535 -56.71064819 28.18623535 -54.97680664 28.26464844 C-51.61452389 27.96572984 -50.49544688 27.17256285 -48 25 C-47.01 24.67 -46.02 24.34 -45 24 C-43.79798905 23.38159348 -42.61068886 22.73397959 -41.4375 22.0625 C-40.53837891 21.55396484 -40.53837891 21.55396484 -39.62109375 21.03515625 C-37.82936451 19.97297095 -37.82936451 19.97297095 -36 18 C-34.64484905 17.25439486 -33.26729966 16.54869338 -31.875 15.875 C-31.15054688 15.52179687 -30.42609375 15.16859375 -29.6796875 14.8046875 C-29.12539062 14.53914062 -28.57109375 14.27359375 -28 14 C-28 13.34 -28 12.68 -28 12 C-27.319375 11.9175 -26.63875 11.835 -25.9375 11.75 C-21.33500153 10.57489401 -17.38455749 8.38455749 -14 5 C-12.2129061 3.89530189 -10.39631193 2.83777865 -8.5625 1.8125 C-7.59441406 1.26207031 -6.62632812 0.71164063 -5.62890625 0.14453125 C-3 -1 -3 -1 0 0 Z " fill="#FD8C5D" transform="translate(145,1)"/>
<path d="M0 0 C0 0.99 0 1.98 0 3 C4.455 3.99 4.455 3.99 9 5 C11.06767432 11.99828232 12.79177856 19.07827445 14.53125 26.1640625 C14.76328125 27.10378906 14.76328125 27.10378906 15 28.0625 C15.15210938 28.68382813 15.30421875 29.30515625 15.4609375 29.9453125 C15.87178865 31.51131037 16.32172534 33.0671088 16.7890625 34.6171875 C19.20088056 42.75425591 20.27108524 49.04911397 17 57 C16.49078162 58.90890242 16.01287502 60.82636434 15.5625 62.75 C14.67233157 66.5079791 13.64222018 69.9900677 12.1875 73.5625 C9.06248739 82.72372116 14.2204267 93.25117913 17 102 C21.39305478 116.05777531 17.39426019 128.64772788 12.640625 142.07421875 C12.0161567 143.95143137 11.56754296 145.88427709 11.125 147.8125 C9.74342528 151.7269617 8.64258352 153.02033504 5 155 C-0.36039184 155.51051351 -3.94886135 154.88179675 -9 153 C-11.7422719 152.20985386 -14.4940957 151.46865052 -17.25390625 150.7421875 C-18.9394814 150.28662665 -20.61722835 149.79884496 -22.27734375 149.2578125 C-25.83257211 148.15234802 -27.65293684 147.87070196 -31.1875 149.1875 C-32.115625 149.785625 -33.04375 150.38375 -34 151 C-37.25967908 152.9920261 -40.54868127 154.8622064 -43.9375 156.625 C-44.75089844 157.05039063 -45.56429687 157.47578125 -46.40234375 157.9140625 C-55.17381755 161.58093426 -69.3190282 161.91825022 -78.30859375 158.8828125 C-80.37431572 157.71278758 -82.20618305 156.55021218 -84 155 C-84 154.34 -84 153.68 -84 153 C-85.1446875 152.814375 -85.1446875 152.814375 -86.3125 152.625 C-89.77925003 151.81877906 -92.05362773 149.96424818 -95 148 C-101.85987933 148.35482134 -107.87899162 150.42158951 -114.25390625 152.86328125 C-119.41005699 154.75536439 -124.49983842 156.07268926 -130 155 C-133.03317731 153.40300719 -133.87347057 152.32598901 -135.125 149.1015625 C-135.41375 147.95429688 -135.7025 146.80703125 -136 145.625 C-137.57662261 139.59379287 -139.34333679 133.67170727 -141.265625 127.7421875 C-142 125 -142 125 -142 121 C-142.66 121 -143.32 121 -144 121 C-143.88590318 118.89521396 -143.75834639 116.79115423 -143.625 114.6875 C-143.55539063 113.51574219 -143.48578125 112.34398438 -143.4140625 111.13671875 C-143 108 -143 108 -141 105 C-138.70810245 112.36224072 -136.45759147 119.73705395 -134.25 127.125 C-134.02739502 127.85904053 -133.80479004 128.59308105 -133.57543945 129.34936523 C-132.68923797 132.33408071 -132 134.86853055 -132 138 C-127.93621576 136.87960461 -123.87421257 135.75288051 -119.8125 134.625 C-118.66201172 134.30789062 -117.51152344 133.99078125 -116.32617188 133.6640625 C-115.21435547 133.3546875 -114.10253906 133.0453125 -112.95703125 132.7265625 C-111.93585205 132.44377441 -110.91467285 132.16098633 -109.86254883 131.86962891 C-106.99575132 131.0487404 -106.99575132 131.0487404 -104.30297852 129.88793945 C-101.05419601 128.63533456 -99.34105149 129.02382481 -96 130 C-93.17342457 131.4725057 -90.53167625 133.18034771 -87.875 134.9375 C-86.47752594 135.84393501 -85.07911731 136.74893112 -83.6796875 137.65234375 C-82.76292236 138.25550415 -82.76292236 138.25550415 -81.82763672 138.87084961 C-74.36630881 143.4806067 -65.48701495 143.8218434 -57 142 C-50.23940688 139.25150243 -44.11454677 135.2833635 -38.08032227 131.21508789 C-34.50077143 129.12432102 -32.84281894 128.81797954 -28.70019531 129.71264648 C-27.40649231 130.08857812 -26.11591174 130.47536988 -24.828125 130.87109375 C-23.8044986 131.17286278 -23.8044986 131.17286278 -22.76019287 131.48072815 C-20.58722708 132.12366006 -18.41870431 132.78035328 -16.25 133.4375 C-14.77501151 133.87656559 -13.29975364 134.31472729 -11.82421875 134.75195312 C-8.2129394 135.82418282 -4.60558145 136.90877059 -1 138 C-0.73445312 136.88496094 -0.46890625 135.76992187 -0.1953125 134.62109375 C0.60124866 131.42852718 1.50922697 128.29526488 2.5078125 125.16015625 C2.90419922 123.9062207 2.90419922 123.9062207 3.30859375 122.62695312 C3.85246068 120.91858643 4.40454481 119.2128138 4.96484375 117.50976562 C8.56982734 105.97559398 6.2430354 97.01099258 3 85.625 C2.4258438 83.577401 1.85500028 81.5289554 1.28808594 79.4793396 C0.77660228 77.63498732 0.25574313 75.79324266 -0.265625 73.95166016 C-1 71 -1 71 -1 68 C-1.88800293 68.10997314 -1.88800293 68.10997314 -2.79394531 68.22216797 C-17.14393821 69.75117492 -26.12553526 68.21513224 -37.61425781 59.24365234 C-39.11430594 58.02859451 -40.60479163 56.80158461 -42.08300781 55.56005859 C-44.26135782 53.78730559 -46.52966946 52.33437533 -49 51 C-47.34285302 46.9017862 -44.42457218 43.97715938 -41.4375 40.8125 C-40.9010083 40.23733643 -40.3645166 39.66217285 -39.81176758 39.06958008 C-35.9636305 34.96478595 -32.00700645 30.9810135 -28 27.03125 C-26.14067716 25.14287524 -24.40611916 23.20357247 -22.6875 21.1875 C-18.2229553 15.98060711 -13.30885256 11.20996177 -8.41699219 6.40869141 C-7.00755218 5.00750794 -5.6324508 3.57206045 -4.2578125 2.13671875 C-2 0 -2 0 0 0 Z " fill="#0B0A0A" transform="translate(145,1)"/>
<path d="M0 0 C3.1306005 4.69590075 4.12802703 10.14335741 5.56884766 15.54931641 C6.1183596 17.60021655 6.68556048 19.64565776 7.25390625 21.69140625 C10.81638218 34.76040573 10.2577483 42.57924325 6.0625 55.4375 C5.68931641 56.62021484 5.31613281 57.80292969 4.93164062 59.02148438 C2.21742543 67.56514914 2.21742543 67.56514914 1 70 C-7.08428002 68.54255541 -14.83106598 66.37287903 -22.671875 63.94726562 C-23.56132813 63.68236328 -24.45078125 63.41746094 -25.3671875 63.14453125 C-26.16237793 62.90065674 -26.95756836 62.65678223 -27.77685547 62.40551758 C-32.13619227 61.61034314 -34.76830341 63.33052446 -38.31640625 65.72265625 C-49.12743591 72.69586924 -58.60238228 77.9246581 -71.7421875 75.60205078 C-78.52793273 73.79261655 -84.28330338 69.94665266 -90 66 C-90.58700684 65.63068359 -91.17401367 65.26136719 -91.77880859 64.88085938 C-93.21999566 63.97258714 -94.61536692 62.99235571 -96 62 C-96 61.34 -96 60.68 -96 60 C-93.46148538 59.15583837 -90.91989146 58.32452701 -88.375 57.5 C-87.66214844 57.26152344 -86.94929688 57.02304688 -86.21484375 56.77734375 C-82.00693976 55.42618192 -78.47763202 54.71749956 -74 55 C-73.67 57.31 -73.34 59.62 -73 62 C-67.39 62 -61.78 62 -56 62 C-55.773125 60.576875 -55.54625 59.15375 -55.3125 57.6875 C-55.18488281 56.88699219 -55.05726562 56.08648437 -54.92578125 55.26171875 C-54.8154553 52.98135643 -54.8154553 52.98135643 -56.0625 51.25 C-58.88736541 49.42750618 -61.35737766 49.47735754 -64.6875 49.3125 C-65.86699219 49.24675781 -67.04648438 49.18101563 -68.26171875 49.11328125 C-69.16535156 49.07589844 -70.06898437 49.03851563 -71 49 C-71 48.67 -71 48.34 -71 48 C-66.38 48 -61.76 48 -57 48 C-56.608125 46.39125 -56.21625 44.7825 -55.8125 43.125 C-55.21713808 41.08074847 -54.61276098 39.03910376 -54 37 C-53.77570313 36.0821875 -53.55140625 35.164375 -53.3203125 34.21875 C-52.05876342 30.51225183 -50.82438056 27.90555706 -47.18701172 26.10009766 C-38.49621815 22.83631489 -29.2404287 21.39601837 -20 21 C-20 14.4 -20 7.8 -20 1 C-16.74125 0.773125 -13.4825 0.54625 -10.125 0.3125 C-9.09906738 0.23298096 -8.07313477 0.15346191 -7.01611328 0.0715332 C-6.20899902 0.02343506 -5.40188477 -0.02466309 -4.5703125 -0.07421875 C-3.74289551 -0.13182373 -2.91547852 -0.18942871 -2.06298828 -0.2487793 C-1.38220215 -0.16668213 -0.70141602 -0.08458496 0 0 Z " fill="#FD8D5E" transform="translate(143,69)"/>
<path d="M0 0 C3.17077502 1.05692501 3.70426093 1.55399639 5.69921875 4.0390625 C9.23573788 8.31603691 13.00137964 12.34265604 16.8125 16.375 C17.51882568 17.12450928 18.22515137 17.87401855 18.95288086 18.64624023 C23.2668067 23.20993272 27.65049993 27.68704539 32.125 32.09375 C34.61700036 34.6272837 36.91470932 37.30674421 39.2265625 40.00390625 C42.32528789 43.49167866 45.66344637 46.74144373 49 50 C45.21447848 54.06162482 41.21816348 57.05929535 36.5625 60.0625 C35.91990234 60.48337891 35.27730469 60.90425781 34.61523438 61.33789062 C33.34104594 62.17225767 32.0614392 62.99841295 30.77636719 63.81591797 C28.78023121 65.1045465 28.78023121 65.1045465 26.23828125 67.26171875 C21.46741597 69.8226778 16.96193749 69.67424992 11.625 69.75 C10.60277344 69.77964844 9.58054687 69.80929688 8.52734375 69.83984375 C6.01815147 69.91019494 3.50986946 69.96306206 1 70 C0.34 72.31 -0.32 74.62 -1 77 C-1.99 76.67 -2.98 76.34 -4 76 C-5.16796875 73.41796875 -5.16796875 73.41796875 -6.1875 70.1875 C-6.70376953 68.60001953 -6.70376953 68.60001953 -7.23046875 66.98046875 C-8 64 -8 64 -8 60 C-8.66 59.67 -9.32 59.34 -10 59 C-10.66796875 56.92578125 -10.66796875 56.92578125 -11.1875 54.3125 C-11.36667969 53.46300781 -11.54585937 52.61351562 -11.73046875 51.73828125 C-12.2454541 46.50632863 -10.69674208 41.5057027 -9.5 36.4375 C-8.32421139 31.44627735 -7.1878903 26.52996388 -6.5625 21.4375 C-6.06446637 18.39396118 -5.37907193 16.66620573 -4 14 C-4 12.68 -4 11.36 -4 10 C-3.34 10 -2.68 10 -2 10 C-2 7.36 -2 4.72 -2 2 C-1.34 2 -0.68 2 0 2 C0 1.34 0 0.68 0 0 Z " fill="#661802" transform="translate(13,0)"/>
<path d="M0 0 C0 0.99 0 1.98 0 3 C4.455 3.99 4.455 3.99 9 5 C11 11.75 11 11.75 11 14 C10.4225 13.690625 9.845 13.38125 9.25 13.0625 C7.15705816 12.07416636 5.25464725 11.4831387 3 11 C3 9.35 3 7.7 3 6 C2.34 6.33 1.68 6.66 1 7 C1.25394531 7.77601562 1.50789063 8.55203125 1.76953125 9.3515625 C4.36181482 17.48764352 6.34022643 25.6271295 8 34 C8.2371875 34.8146875 8.474375 35.629375 8.71875 36.46875 C9.11870804 40.06837233 8.0375168 42.60875114 6.8125 46 C6.34354197 47.32498732 5.87612384 48.65052056 5.41015625 49.9765625 C5.17312988 50.64333008 4.93610352 51.31009766 4.69189453 51.99707031 C3.25710039 56.15058164 2.04715026 60.37394463 0.796875 64.5859375 C0 67 0 67 -1 68 C-12.37589996 70.00203026 -22.81253768 69.72485363 -32.52416992 63.13696289 C-35.78335466 60.69402755 -38.96406865 58.17959704 -42.08300781 55.56005859 C-44.26135782 53.78730559 -46.52966946 52.33437533 -49 51 C-47.34285302 46.9017862 -44.42457218 43.97715938 -41.4375 40.8125 C-40.63276245 39.94975464 -40.63276245 39.94975464 -39.81176758 39.06958008 C-35.9636305 34.96478595 -32.00700645 30.9810135 -28 27.03125 C-26.14067716 25.14287524 -24.40611916 23.20357247 -22.6875 21.1875 C-18.2229553 15.98060711 -13.30885256 11.20996177 -8.41699219 6.40869141 C-7.00755218 5.00750794 -5.6324508 3.57206045 -4.2578125 2.13671875 C-2 -0 -2 -0 0 0 Z " fill="#661802" transform="translate(145,1)"/>
<path d="M0 0 C-0.680625 0.33 -1.36125 0.66 -2.0625 1 C-5.29620346 3.20167044 -7.34551131 5.58558565 -9.84765625 8.55859375 C-12.44426215 11.50392712 -15.20360357 14.24589475 -18 17 C-21.90029204 20.8512994 -25.61178583 24.76361435 -29.16015625 28.9453125 C-31.49748252 31.55557496 -33.99700596 33.98835188 -36.5 36.4375 C-41.12056871 41.00070993 -45.19586183 45.74172028 -49 51 C-48.25935303 51.26353271 -47.51870605 51.52706543 -46.75561523 51.79858398 C-44.00237983 52.99896242 -42.18898937 54.2898712 -39.91015625 56.22265625 C-27.43323914 66.23067029 -17.95857868 69.22230078 -2 68 C-2 68.33 -2 68.66 -2 69 C-8.6 69 -15.2 69 -22 69 C-22 75.6 -22 82.2 -22 89 C-24.92875 89.598125 -27.8575 90.19625 -30.875 90.8125 C-33.478224 91.36867448 -36.07872113 91.93604374 -38.67919922 92.50488281 C-40.5623413 92.90663036 -42.45404981 93.26807453 -44.34765625 93.6171875 C-48.9916202 94.63309753 -48.9916202 94.63309753 -52.33984375 97.80078125 C-53.45305902 100.1658386 -54.23499412 102.50073321 -55 105 C-55.74457163 107.0228397 -56.49457387 109.04368879 -57.25 111.0625 C-57.83657966 112.70717913 -58.42110115 114.35260167 -59 116 C-60.37657529 112.1504087 -59.71405249 108.93979988 -59.07421875 104.9609375 C-58.91274101 103.93959213 -58.91274101 103.93959213 -58.7480011 102.89761353 C-58.40190783 100.72214793 -58.04463509 98.54867701 -57.6875 96.375 C-57.45830038 94.93630672 -57.22977807 93.49750536 -57.00195312 92.05859375 C-55.93531283 85.37938012 -54.78902472 78.72740809 -53.42211914 72.10205078 C-50.63345259 58.21516876 -50.30553014 44.65939869 -52.171875 30.64453125 C-52 28 -52 28 -50.203125 26.19921875 C-48 25 -48 25 -45 24 C-43.79798905 23.38159348 -42.61068886 22.73397959 -41.4375 22.0625 C-40.83808594 21.72347656 -40.23867187 21.38445313 -39.62109375 21.03515625 C-37.82936451 19.97297095 -37.82936451 19.97297095 -36 18 C-34.64484905 17.25439486 -33.26729966 16.54869338 -31.875 15.875 C-31.15054688 15.52179687 -30.42609375 15.16859375 -29.6796875 14.8046875 C-29.12539062 14.53914062 -28.57109375 14.27359375 -28 14 C-28 13.34 -28 12.68 -28 12 C-26.9790625 11.87625 -26.9790625 11.87625 -25.9375 11.75 C-21.33500153 10.57489401 -17.38455749 8.38455749 -14 5 C-12.2129061 3.89530189 -10.39631193 2.83777865 -8.5625 1.8125 C-7.59441406 1.26207031 -6.62632812 0.71164063 -5.62890625 0.14453125 C-3 -1 -3 -1 0 0 Z " fill="#F95C18" transform="translate(145,1)"/>
<path d="M0 0 C0.99 1.485 0.99 1.485 2 3 C4.81870155 3.15294386 7.43523182 3.12896597 10.2421875 2.984375 C11.95746354 2.93674142 13.67289738 2.8945471 15.38842773 2.85717773 C16.28616913 2.83710663 17.18391052 2.81703552 18.1088562 2.7963562 C35.01434452 2.51304692 46.23461479 3.37535425 58.93359375 15.55859375 C60.64424395 17.3684259 61.88725387 18.77450773 63 21 C53.05566784 24.8302332 42.88031147 27.95018277 32.71777344 31.140625 C30.20583654 31.93491335 27.69974098 32.74489945 25.1953125 33.5625 C24.10802856 33.91356812 24.10802856 33.91356812 22.9987793 34.27172852 C21.06958187 34.89483895 19.14214485 35.52339239 17.21484375 36.15234375 C14.29416542 36.92243755 11.99590984 37.18689041 9 37 C6.98246802 30.33852249 4.98433233 23.67143929 3 17 C2.64808594 15.82308594 2.29617187 14.64617187 1.93359375 13.43359375 C0.61090248 8.83931829 -0.39225617 4.83782604 0 0 Z " fill="#E14909" transform="translate(4,102)"/>
<path d="M0 0 C0.92515915 0.00565979 1.8503183 0.01131958 2.80351257 0.01715088 C5.74844861 0.0394802 8.69215261 0.08967014 11.63671875 0.140625 C13.63735218 0.16069446 15.63800474 0.17894445 17.63867188 0.1953125 C22.53432639 0.23933375 27.42906393 0.30833753 32.32421875 0.390625 C31.80955847 4.2360387 31.27721569 7.99021435 30.23828125 11.73046875 C30.02945313 12.48392578 29.820625 13.23738281 29.60546875 14.01367188 C29.38890625 14.77744141 29.17234375 15.54121094 28.94921875 16.328125 C28.74039063 17.08802734 28.5315625 17.84792969 28.31640625 18.63085938 C26.9060836 23.66588323 25.22019579 28.51763137 23.32421875 33.390625 C16.14257852 32.11027564 9.27605665 30.27331706 2.32421875 28.078125 C-5.79620066 25.54561046 -13.92628015 23.14115013 -22.1796875 21.0769043 C-25.89515792 20.09949418 -28.11405551 19.23633856 -30.67578125 16.390625 C-30.21727783 16.04805664 -29.75877441 15.70548828 -29.28637695 15.35253906 C-27.18636525 13.78276376 -25.08731709 12.21170491 -22.98828125 10.640625 C-21.90643555 9.83238281 -21.90643555 9.83238281 -20.80273438 9.0078125 C-20.09697266 8.47929688 -19.39121094 7.95078125 -18.6640625 7.40625 C-18.01993408 6.92446289 -17.37580566 6.44267578 -16.7121582 5.94628906 C-14.57290757 4.38574232 -14.57290757 4.38574232 -12.53125 2.2265625 C-8.38621673 -0.43850677 -4.82507646 -0.11156372 0 0 Z " fill="#E24908" transform="translate(120.67578125,105.609375)"/>
<path d="M0 0 C0.66 0.33 1.32 0.66 2 1 C2.52734375 3.78125 2.52734375 3.78125 2.9375 7.5 C3.59728197 13.0823583 4.41609989 18.59750009 5.4375 24.125 C7.89530256 37.63427642 10.06901356 51.29202718 11 65 C9 63 9 63 8.16015625 59.26171875 C7.08632405 54.50036762 5.99503631 49.94334369 3 46 C-1.99884076 42.87094522 -8.01471222 42.19613448 -13.75830078 41.35888672 C-16.65913803 40.89447474 -19.39479441 40.08901902 -22.1875 39.1875 C-23.445625 38.795625 -24.70375 38.40375 -26 38 C-26 31.73 -26 25.46 -26 19 C-32.93 19 -39.86 19 -47 19 C-47 18.67 -47 18.34 -47 18 C-46.39639648 18.01160156 -45.79279297 18.02320312 -45.17089844 18.03515625 C-32.10375184 18.17464542 -23.28393739 17.7275282 -13 9 C-10.61630294 7.28432422 -8.18263788 5.64523054 -5.75 4 C-4.63935014 3.23100467 -3.5298523 2.460341 -2.421875 1.6875 C-1.22304687 0.8521875 -1.22304687 0.8521875 0 0 Z " fill="#FC5D17" transform="translate(61,51)"/>
<path d="M0 0 C0.33 2.31 0.66 4.62 1 7 C6.61 7 12.22 7 18 7 C18.66 4.69 19.32 2.38 20 0 C25.12524666 0.63315791 29.96530771 1.68160656 34.9375 3.0625 C35.62134766 3.24876953 36.30519531 3.43503906 37.00976562 3.62695312 C38.67420293 4.08089057 40.33725312 4.53990916 42 5 C34.27738605 13.40402107 23.30304512 20.2389937 11.7590332 21.15014648 C0.71166388 21.32323891 -7.10480621 17.14100109 -16 11 C-16.58700684 10.63068359 -17.17401367 10.26136719 -17.77880859 9.88085938 C-19.21999566 8.97258714 -20.61536692 7.99235571 -22 7 C-22 6.34 -22 5.68 -22 5 C-19.46148538 4.15583837 -16.91989146 3.32452701 -14.375 2.5 C-13.66214844 2.26152344 -12.94929688 2.02304688 -12.21484375 1.77734375 C-8.00693976 0.42618192 -4.47763202 -0.28250044 0 0 Z " fill="#E7E8F0" transform="translate(69,124)"/>
<path d="M0 0 C2.31 0.33 4.62 0.66 7 1 C7 1.66 7 2.32 7 3 C8.134375 3.28875 9.26875 3.5775 10.4375 3.875 C11.613125 4.24625 12.78875 4.6175 14 5 C14.33 5.66 14.66 6.32 15 7 C15.99 7.33 16.98 7.66 18 8 C19.34090759 8.65129797 20.67592331 9.31513275 22 10 C22 10.99 22 11.98 22 13 C23.093125 13.12375 24.18625 13.2475 25.3125 13.375 C29 14 29 14 32 16 C32 16.99 32 17.98 32 19 C33.134375 19.12375 34.26875 19.2475 35.4375 19.375 C36.613125 19.58125 37.78875 19.7875 39 20 C39.495 20.99 39.495 20.99 40 22 C42.11785113 23.11785113 42.11785113 23.11785113 45 24 C45.66 24.66 46.32 25.32 47 26 C50.23865635 27.07955212 52.79155838 27.20441741 56.19921875 27.31640625 C58.01196289 27.37924805 58.01196289 27.37924805 59.86132812 27.44335938 C61.12396484 27.48267578 62.38660156 27.52199219 63.6875 27.5625 C65.59885742 27.62727539 65.59885742 27.62727539 67.54882812 27.69335938 C70.69910852 27.7995486 73.84946839 27.90159533 77 28 C77 28.33 77 28.66 77 29 C67.76 29.33 58.52 29.66 49 30 C48.67 35.94 48.34 41.88 48 48 C45 48 45 48 42.109375 45.4375 C40.98120306 44.29991682 39.86186904 43.15352271 38.75 42 C38.16226807 41.40131104 37.57453613 40.80262207 36.96899414 40.18579102 C33.46763608 36.59516458 30.11440081 32.91549023 26.87109375 29.08984375 C24.35615138 26.28087889 21.68147016 23.64911394 19 21 C14.45056765 16.50033036 10.12233358 11.89854906 6 7 C4.85483156 5.66609556 3.70902651 4.33273732 2.5625 3 C1.716875 2.01 0.87125 1.02 0 0 Z " fill="#E45718" transform="translate(15,1)"/>
<path d="M0 0 C-0.680625 0.33 -1.36125 0.66 -2.0625 1 C-5.29620346 3.20167044 -7.34551131 5.58558565 -9.84765625 8.55859375 C-12.44426215 11.50392712 -15.20360357 14.24589475 -18 17 C-21.90029204 20.8512994 -25.61178583 24.76361435 -29.16015625 28.9453125 C-31.49748252 31.55557496 -33.99700596 33.98835188 -36.5 36.4375 C-41.12056871 41.00070993 -45.19586183 45.74172028 -49 51 C-48.01 51.33 -47.02 51.66 -46 52 C-47.32 52.99 -48.64 53.98 -50 55 C-50.45073335 50.56526483 -50.85473486 46.12749533 -51.25 41.6875 C-51.44335938 39.79354492 -51.44335938 39.79354492 -51.640625 37.86132812 C-51.74375 36.65283203 -51.846875 35.44433594 -51.953125 34.19921875 C-52.05786133 33.08377686 -52.16259766 31.96833496 -52.27050781 30.8190918 C-52 28 -52 28 -50.19042969 26.17504883 C-48 25 -48 25 -45 24 C-43.79798905 23.38159348 -42.61068886 22.73397959 -41.4375 22.0625 C-40.83808594 21.72347656 -40.23867187 21.38445313 -39.62109375 21.03515625 C-37.82936451 19.97297095 -37.82936451 19.97297095 -36 18 C-34.64484905 17.25439486 -33.26729966 16.54869338 -31.875 15.875 C-31.15054688 15.52179687 -30.42609375 15.16859375 -29.6796875 14.8046875 C-29.12539062 14.53914062 -28.57109375 14.27359375 -28 14 C-28 13.34 -28 12.68 -28 12 C-26.9790625 11.87625 -26.9790625 11.87625 -25.9375 11.75 C-21.33500153 10.57489401 -17.38455749 8.38455749 -14 5 C-12.2129061 3.89530189 -10.39631193 2.83777865 -8.5625 1.8125 C-7.59441406 1.26207031 -6.62632812 0.71164063 -5.62890625 0.14453125 C-3 -1 -3 -1 0 0 Z " fill="#F35D1B" transform="translate(145,1)"/>
<path d="M0 0 C6.93 0 13.86 0 21 0 C21 0.66 21 1.32 21 2 C21.53625 2.226875 22.0725 2.45375 22.625 2.6875 C25.82460161 4.45570089 28.29037223 6.53670203 31 9 C31 9.66 31 10.32 31 11 C29.14712429 11.58742097 27.29258346 12.16958881 25.4375 12.75 C23.6740625 13.30880859 23.6740625 13.30880859 21.875 13.87890625 C19.24562988 14.67701168 16.63287132 15.30735301 13.9375 15.83984375 C6.96047942 17.03255769 6.96047942 17.03255769 1.3046875 20.8671875 C0.23743195 23.22859544 -0.38954611 25.48235166 -1 28 C-1.73390726 30.02673321 -2.48404869 32.04765858 -3.25 34.0625 C-3.83657966 35.70717913 -4.42110115 37.35260167 -5 39 C-6.41812794 35.08871165 -5.68658116 31.75695267 -5.0390625 27.71484375 C-4.929039 27.01734512 -4.8190155 26.3198465 -4.70565796 25.60121155 C-4.47219639 24.13060116 -4.23494052 22.66058874 -3.99414062 21.19116211 C-3.62592171 18.9431272 -3.26897733 16.69352921 -2.9140625 14.44335938 C-1.1651484 3.4954452 -1.1651484 3.4954452 0 0 Z " fill="#E34908" transform="translate(91,78)"/>
<path d="M0 0 C1.59412284 3.18824568 1.10174735 6.62896662 1.0625 10.125 C1.05798828 10.87910156 1.05347656 11.63320312 1.04882812 12.41015625 C1.03703499 14.27347127 1.01909942 16.13674555 1 18 C1.42667969 17.4946875 1.85335937 16.989375 2.29296875 16.46875 C5.52152836 13.11371073 7.7053459 11.17567142 12.42578125 10.53515625 C15.64274867 10.55976693 18.79831292 10.69252091 22 11 C22.44472656 12.37091797 22.44472656 12.37091797 22.8984375 13.76953125 C23.71464814 16.16317027 24.56909208 18.39969951 25.625 20.6875 C27 24 27 24 27 27 C17.33331757 26.5450973 8.15352561 24.0511752 -1 21 C-1 14.73 -1 8.46 -1 2 C-7.93 2 -14.86 2 -22 2 C-22 1.67 -22 1.34 -22 1 C-14.74 0.67 -7.48 0.34 0 0 Z " fill="#DD4A0D" transform="translate(36,68)"/>
<path d="M0 0 C5.12524666 0.63315791 9.96530771 1.68160656 14.9375 3.0625 C15.62134766 3.24876953 16.30519531 3.43503906 17.00976562 3.62695312 C18.67420293 4.08089057 20.33725312 4.53990916 22 5 C18.08744492 9.31915394 13.96785871 12.02487879 8.875 14.8125 C8.15957031 15.21919922 7.44414063 15.62589844 6.70703125 16.04492188 C1.39285714 19 1.39285714 19 -2 19 C-2.24991456 12.34949576 -1.73955334 6.43013467 0 0 Z " fill="#E8EAF3" transform="translate(89,124)"/>
<path d="M0 0 C3.11456126 1.55728063 5.40387175 2.94844635 8.109375 5.0390625 C8.86347656 5.61914062 9.61757813 6.19921875 10.39453125 6.796875 C11.17183594 7.40015625 11.94914062 8.0034375 12.75 8.625 C13.54277344 9.23601562 14.33554687 9.84703125 15.15234375 10.4765625 C17.10390608 11.98138165 19.05300989 13.48927284 21 15 C17.88668621 17.44723829 15.4883308 18.6156052 11.625 19.5625 C7.64510079 20.55467206 3.9180843 21.6939719 0 23 C0 15.41 0 7.82 0 0 Z " fill="#FB5D17" transform="translate(46,107)"/>
<path d="M0 0 C0.02505615 0.62567871 0.0501123 1.25135742 0.07592773 1.89599609 C0.19175273 4.72254619 0.31453985 7.54875169 0.4375 10.375 C0.47681641 11.35984375 0.51613281 12.3446875 0.55664062 13.359375 C0.59853516 14.30039063 0.64042969 15.24140625 0.68359375 16.2109375 C0.72025146 17.08024902 0.75690918 17.94956055 0.79467773 18.84521484 C0.87401544 21.0483262 0.87401544 21.0483262 2 23 C-0.71073206 22.40532938 -3.41820837 21.79964449 -6.125 21.1875 C-6.88554688 21.02185547 -7.64609375 20.85621094 -8.4296875 20.68554688 C-12.99201081 19.64329198 -16.87470114 18.29988706 -21 16 C-17.34025894 12.04248473 -13.12159438 8.95213591 -8.8125 5.75 C-8.07580078 5.19570312 -7.33910156 4.64140625 -6.58007812 4.0703125 C-1.13127309 0 -1.13127309 0 0 0 Z " fill="#FA5E19" transform="translate(111,107)"/>
<path d="M0 0 C1.1240625 -0.00128906 2.248125 -0.00257812 3.40625 -0.00390625 C7.07716729 0.66816825 8.33149158 1.55871426 10.5 4.5625 C10.32594075 7.92764555 10.01178502 10.53892995 8.5 13.5625 C2.89 13.5625 -2.72 13.5625 -8.5 13.5625 C-10.5 5.5625 -10.5 5.5625 -9.03125 2.59765625 C-5.82164115 0.01709111 -4.08331613 -0.07960593 0 0 Z " fill="#671906" transform="translate(78.5,117.4375)"/>
<path d="M0 0 C1.00109515 3.31070838 1.10356134 6.30084769 1.0625 9.75 C1.05347656 10.73484375 1.04445313 11.7196875 1.03515625 12.734375 C1.02355469 13.48203125 1.01195313 14.2296875 1 15 C-1.81256281 15.02684312 -4.62487241 15.04676188 -7.4375 15.0625 C-8.23994141 15.07087891 -9.04238281 15.07925781 -9.86914062 15.08789062 C-11.91295221 15.0965143 -13.95683902 15.0522815 -16 15 C-17 14 -17 14 -17.09765625 11.27734375 C-17.06510417 8.18489583 -17.03255208 5.09244792 -17 2 C-11.39 2 -5.78 2 0 2 C0 1.34 0 0.68 0 0 Z " fill="#C1C3CA" transform="translate(87,129)"/>
<path d="M0 0 C6.6 0 13.2 0 20 0 C21.30672344 3.92017032 22.26616653 6.85820494 22.81640625 10.79296875 C22.94039795 11.66606689 23.06438965 12.53916504 23.19213867 13.4387207 C23.31435791 14.34581787 23.43657715 15.25291504 23.5625 16.1875 C23.69180908 17.11844482 23.82111816 18.04938965 23.9543457 19.00854492 C24.81624943 25.32420925 25.56795548 31.63851695 26 38 C23.90547845 35.90547845 23.49281503 34.90671432 22.6328125 32.15625 C22.38660156 31.40472656 22.14039062 30.65320313 21.88671875 29.87890625 C21.37962767 28.29522181 20.87959756 26.7092588 20.38671875 25.12109375 C20.13792969 24.36957031 19.88914062 23.61804688 19.6328125 22.84375 C19.41512207 22.15474609 19.19743164 21.46574219 18.97314453 20.75585938 C17.71558835 18.48683176 16.36533423 17.94686392 14 17 C14.99 17 15.98 17 17 17 C16.35731563 15.35293447 15.71076198 13.70737825 15.0625 12.0625 C14.70285156 11.14597656 14.34320313 10.22945312 13.97265625 9.28515625 C13.2003782 7.07581467 13.2003782 7.07581467 12 6 C12 4.35 12 2.7 12 1 C8.04 1 4.08 1 0 1 C0 0.67 0 0.34 0 0 Z " fill="#E54A08" transform="translate(46,78)"/>
<path d="M0 0 C3.97406279 4.87725888 5.47294436 10.28883077 7.1953125 16.24609375 C7.74353138 18.12227971 8.32305776 19.98953407 8.9296875 21.84765625 C10.75549432 27.72093749 11.41965661 31.26923434 9 37 C8.01 36.67 7.02 36.34 6 36 C4.83203125 33.41796875 4.83203125 33.41796875 3.8125 30.1875 C3.46832031 29.12917969 3.12414062 28.07085937 2.76953125 26.98046875 C2 24 2 24 2 20 C1.34 19.67 0.68 19.34 0 19 C-2.16488108 12.27747454 -2.2294309 6.68829269 0 0 Z " fill="#110F0F" transform="translate(3,40)"/>
<path d="M0 0 C-0.680625 0.33 -1.36125 0.66 -2.0625 1 C-5.28476127 3.19388002 -7.32831157 5.56463154 -9.8203125 8.52734375 C-14.28700806 13.59440162 -19.1901462 18.26122778 -24 23 C-25 20 -25 20 -25 17 C-24.34 17 -23.68 17 -23 17 C-23.99 16.01 -24.98 15.02 -26 14 C-26 14.66 -26 15.32 -26 16 C-29 18 -29 18 -31.1875 17.625 C-32.0846875 17.315625 -32.0846875 17.315625 -33 17 C-30.31158141 14.74754119 -28.35358125 13.11786042 -25 12 C-23.46495032 11.21468938 -21.94501316 10.39945541 -20.4375 9.5625 C-19.65246094 9.13066406 -18.86742188 8.69882813 -18.05859375 8.25390625 C-15.88147057 7.03884335 -15.88147057 7.03884335 -14 5 C-12.2129061 3.89530189 -10.39631193 2.83777865 -8.5625 1.8125 C-7.59441406 1.26207031 -6.62632812 0.71164063 -5.62890625 0.14453125 C-3 -1 -3 -1 0 0 Z " fill="#EA5F1F" transform="translate(145,1)"/>
<path d="M0 0 C2.31 0.33 4.62 0.66 7 1 C7 1.66 7 2.32 7 3 C8.134375 3.28875 9.26875 3.5775 10.4375 3.875 C11.613125 4.24625 12.78875 4.6175 14 5 C14.33 5.66 14.66 6.32 15 7 C15.99 7.33 16.98 7.66 18 8 C19.34090759 8.65129797 20.67592331 9.31513275 22 10 C22 10.99 22 11.98 22 13 C23.093125 13.12375 24.18625 13.2475 25.3125 13.375 C29 14 29 14 32 16 C32 16.99 32 17.98 32 19 C32.66 19.33 33.32 19.66 34 20 C33.01 20 32.02 20 31 20 C31 19.34 31 18.68 31 18 C30.01 18 29.02 18 28 18 C27.67 17.34 27.34 16.68 27 16 C25.32171592 15.03375833 25.32171592 15.03375833 23 15 C20.64945386 15.95884163 18.31408651 16.95623371 16 18 C14.08122455 15.93942825 12.16494202 13.87662937 10.25 11.8125 C9.71117187 11.23435547 9.17234375 10.65621094 8.6171875 10.06054688 C5.60201909 6.80637122 2.72218201 3.50844332 0 0 Z " fill="#F35F1C" transform="translate(15,1)"/>
<path d="M0 0 C3 5.625 3 5.625 3 9 C-2.91492272 8.54775239 -8.35199888 7.8417395 -14 6 C-14 4 -14 4 -12.625 1.875 C-8.64421752 -0.96841605 -4.74247013 -0.32581856 0 0 Z " fill="#6E1804" transform="translate(60,86)"/>
<path d="M0 0 C1.77007714 -0.08114106 3.54122098 -0.13925505 5.3125 -0.1875 C6.29863281 -0.22230469 7.28476563 -0.25710937 8.30078125 -0.29296875 C11 0 11 0 12.85546875 1.38671875 C14 3 14 3 14 5 C11.5424552 5.66969591 9.08405076 6.3358768 6.625 7 C5.92632812 7.19078125 5.22765625 7.3815625 4.5078125 7.578125 C-0.7734375 9 -0.7734375 9 -3 9 C-2.01 6.03 -1.02 3.06 0 0 Z " fill="#6A1704" transform="translate(97,87)"/>
<path d="M0 0 C3 3.625 3 3.625 3 7 C3.66 7 4.32 7 5 7 C5.33 5.35 5.66 3.7 6 2 C6.33 2 6.66 2 7 2 C7.67590188 5.37321776 8.33905518 8.74882242 9 12.125 C9.19078125 13.07632813 9.3815625 14.02765625 9.578125 15.0078125 C10.49756891 19.73638116 11.2609763 24.15562735 11 29 C8.90547845 26.90547845 8.49281503 25.90671432 7.6328125 23.15625 C7.38660156 22.40472656 7.14039062 21.65320313 6.88671875 20.87890625 C6.37962767 19.29522181 5.87959756 17.7092588 5.38671875 16.12109375 C5.13792969 15.36957031 4.88914062 14.61804688 4.6328125 13.84375 C4.41512207 13.15474609 4.19743164 12.46574219 3.97314453 11.75585938 C2.71558835 9.48683176 1.36533423 8.94686392 -1 8 C-0.01 8 0.98 8 2 8 C1.67 7.236875 1.34 6.47375 1 5.6875 C0 3 0 3 0 0 Z " fill="#DB480D" transform="translate(61,87)"/>
<path d="M0 0 C0.99 0.33 1.98 0.66 3 1 C4.61191684 4.36400037 5.4675053 6.45519987 4.37109375 10.078125 C3.68671395 11.57034134 2.96982741 13.04794193 2.2265625 14.51171875 C0.08867275 18.84877533 -1.39879326 23.44337443 -3 28 C-4.15652656 24.52681742 -3.85092924 21.93862721 -3.22265625 18.359375 C-2.94711914 16.75449219 -2.94711914 16.75449219 -2.66601562 15.1171875 C-2.46685547 14.00601563 -2.26769531 12.89484375 -2.0625 11.75 C-1.86720703 10.62335938 -1.67191406 9.49671875 -1.47070312 8.3359375 C-0.98773667 5.55593546 -0.49724577 2.77747735 0 0 Z " fill="#E24F13" transform="translate(89,89)"/>
<path d="M0 0 C2.3125 0.25 2.3125 0.25 4 1 C4 1.99 4 2.98 4 4 C-3.16956411 7.91232559 -8.7507374 9.16498525 -17 9 C-16.67 8.01 -16.34 7.02 -16 6 C-15.195625 5.87625 -14.39125 5.7525 -13.5625 5.625 C-12.716875 5.41875 -11.87125 5.2125 -11 5 C-10.67 4.34 -10.34 3.68 -10 3 C-8.9171875 3.37125 -8.9171875 3.37125 -7.8125 3.75 C-3.9510173 4.09324291 -2.90756806 2.38569687 0 0 Z " fill="#202020" transform="translate(100,152)"/>
<path d="M0 0 C0.4375 2.125 0.4375 2.125 0 5 C-2.12689146 7.276147 -4.5023433 9.1458722 -7 11 C-6.814375 10.38125 -6.62875 9.7625 -6.4375 9.125 C-5.76313824 6.95839822 -5.76313824 6.95839822 -7 5 C-6.34 5 -5.68 5 -5 5 C-5.99 4.01 -6.98 3.02 -8 2 C-8 2.66 -8 3.32 -8 4 C-11 6 -11 6 -13.1875 5.625 C-13.785625 5.41875 -14.38375 5.2125 -15 5 C-11.00968773 1.65676539 -5.3276059 -2.66380295 0 0 Z " fill="#FC5F19" transform="translate(127,13)"/>
<path d="M0 0 C2.50357861 0.8345262 4.66785852 1.79371992 7 3 C7 3.99 7 4.98 7 6 C8.093125 6.12375 9.18625 6.2475 10.3125 6.375 C14 7 14 7 17 9 C17 9.99 17 10.98 17 12 C17.66 12.33 18.32 12.66 19 13 C18.01 13 17.02 13 16 13 C16 12.34 16 11.68 16 11 C15.01 11 14.02 11 13 11 C12.67 10.34 12.34 9.68 12 9 C10.17323569 8.14681461 10.17323569 8.14681461 8 8 C5.78228936 8.85790183 5.78228936 8.85790183 4 10 C1 5.25 1 5.25 1 3 C0.34 3 -0.32 3 -1 3 C-0.67 2.01 -0.34 1.02 0 0 Z M1 9 C1.99 9.495 1.99 9.495 3 10 C2.01 10.495 2.01 10.495 1 11 C1 10.34 1 9.68 1 9 Z " fill="#B75328" transform="translate(30,8)"/>
<path d="M0 0 C-1.74259681 10.55808656 -1.74259681 10.55808656 -5 15 C-5.66 14.67 -6.32 14.34 -7 14 C-6.125 7.25 -6.125 7.25 -5 5 C-5.99 4.67 -6.98 4.34 -8 4 C-5.57415142 1.34311822 -3.76063134 0 0 0 Z " fill="#252525" transform="translate(162,126)"/>
<path d="M0 0 C4.455 0.99 4.455 0.99 9 2 C11 8.75 11 8.75 11 11 C10.4225 10.690625 9.845 10.38125 9.25 10.0625 C7.15705816 9.07416636 5.25464725 8.4831387 3 8 C3 6.35 3 4.7 3 3 C2.01 3 1.02 3 0 3 C0 2.01 0 1.02 0 0 Z " fill="#282828" transform="translate(145,4)"/>
<path d="M0 0 C1.32 0.66 2.64 1.32 4 2 C4 3.65 4 5.3 4 7 C3.01 6.67 2.02 6.34 1 6 C0.01 8.97 -0.98 11.94 -2 15 C-2.33 15 -2.66 15 -3 15 C-3.33 11.37 -3.66 7.74 -4 4 C-2.68 3.67 -1.36 3.34 0 3 C0 2.01 0 1.02 0 0 Z " fill="#1B1817" transform="translate(156,93)"/>
<path d="M0 0 C1.625 1.5 1.625 1.5 3 4 C2.65955497 6.83163803 1.86771089 9.25986036 1 12 C0.01 11.67 -0.98 11.34 -2 11 C-2.94921875 8.93359375 -2.94921875 8.93359375 -3.6875 6.4375 C-3.93886719 5.61121094 -4.19023438 4.78492187 -4.44921875 3.93359375 C-4.63097656 3.29550781 -4.81273437 2.65742187 -5 2 C-3.35 1.34 -1.7 0.68 0 0 Z " fill="#242323" transform="translate(11,65)"/>
<path d="M0 0 C0.66666667 1.33333333 1.33333333 2.66666667 2 4 C2.556875 4.99 2.556875 4.99 3.125 6 C4 8 4 8 4 12 C2.02 12.99 0.04 13.98 -2 15 C-1.85879286 13.06215735 -1.71187127 11.12473045 -1.5625 9.1875 C-1.48128906 8.10855469 -1.40007812 7.02960938 -1.31640625 5.91796875 C-1 3 -1 3 0 0 Z " fill="#332C2B" transform="translate(3,106)"/>
<path d="M0 0 C0.99 0.33 1.98 0.66 3 1 C3 2.32 3 3.64 3 5 C2.01 5.495 2.01 5.495 1 6 C1 6.99 1 7.98 1 9 C0.01 8.67 -0.98 8.34 -2 8 C-1.34 8 -0.68 8 0 8 C-0.66 7.34 -1.32 6.68 -2 6 C-3.32 6.99 -4.64 7.98 -6 9 C-6.33 7.35 -6.66 5.7 -7 4 C-4.69 3.34 -2.38 2.68 0 2 C0 1.34 0 0.68 0 0 Z " fill="#FD5D13" transform="translate(119,15)"/>
<path d="M0 0 C3.96 0 7.92 0 12 0 C12 0.33 12 0.66 12 1 C8.7 1.33 5.4 1.66 2 2 C1.01 4.31 0.02 6.62 -1 9 C-3 7.8125 -3 7.8125 -5 6 C-5.25 3.3125 -5.25 3.3125 -5 1 C-2.525 1.495 -2.525 1.495 0 2 C0 1.34 0 0.68 0 0 Z " fill="#D14108" transform="translate(95,86)"/>
<path d="M0 0 C0.8353125 0.37125 0.8353125 0.37125 1.6875 0.75 C1.6875 1.74 1.6875 2.73 1.6875 3.75 C-2.2725 5.73 -2.2725 5.73 -6.3125 7.75 C-6.6425 6.43 -6.9725 5.11 -7.3125 3.75 C-2.88173077 -0.31153846 -2.88173077 -0.31153846 0 0 Z " fill="#292929" transform="translate(102.3125,152.25)"/>
<path d="M0 0 C-0.721875 0.391875 -1.44375 0.78375 -2.1875 1.1875 C-5.227326 3.14649898 -7.52127727 5.37963597 -10 8 C-10 7.34 -10 6.68 -10 6 C-11.98 6.66 -13.96 7.32 -16 8 C-13.75917556 4.63876334 -12.06636826 3.66712314 -8.5625 1.75 C-7.59441406 1.20859375 -6.62632812 0.6671875 -5.62890625 0.109375 C-3 -1 -3 -1 0 0 Z " fill="#B85E36" transform="translate(145,1)"/>
<path d="M0 0 C3.99996286 1.33332095 4.83782337 3.4957827 7 7 C6.01 7.495 6.01 7.495 5 8 C4.01 7.01 3.02 6.02 2 5 C1.34 6.65 0.68 8.3 0 10 C-0.66 10 -1.32 10 -2 10 C-2 7.36 -2 4.72 -2 2 C-1.34 2 -0.68 2 0 2 C0 1.34 0 0.68 0 0 Z " fill="#5C1E15" transform="translate(13,0)"/>
<path d="M0 0 C1.125 3.75 1.125 3.75 0 6 C-1.58467728 5.71572583 -3.1677057 5.42225182 -4.75 5.125 C-5.63171875 4.96257812 -6.5134375 4.80015625 -7.421875 4.6328125 C-9.86947744 4.03203736 -11.80599857 3.22002883 -14 2 C-12.37509046 1.97301811 -10.75005367 1.95361243 -9.125 1.9375 C-8.22007812 1.92589844 -7.31515625 1.91429687 -6.3828125 1.90234375 C-4 2 -4 2 -2 3 C-1.34 2.01 -0.68 1.02 0 0 Z " fill="#D5511E" transform="translate(144,133)"/>
<path d="M0 0 C-0.33 1.32 -0.66 2.64 -1 4 C-1.66 4 -2.32 4 -3 4 C-3 4.99 -3 5.98 -3 7 C-5.03833424 5.7260411 -7.03852126 4.38938077 -9 3 C-9 2.34 -9 1.68 -9 1 C-5.57367167 -0.61798838 -3.61944899 -1.34053666 0 0 Z " fill="#E9DCDC" transform="translate(56,128)"/>
<path d="M0 0 C2.31 0.33 4.62 0.66 7 1 C7 1.66 7 2.32 7 3 C9.31 3.66 11.62 4.32 14 5 C13.34 5.66 12.68 6.32 12 7 C8.5935135 7 6.04846 6.94152751 3.4296875 4.58984375 C2.21214006 3.1183507 1.09748597 1.56308608 0 0 Z " fill="#9A4C28" transform="translate(15,1)"/>
<path d="M0 0 C4.455 0.99 4.455 0.99 9 2 C7.35 3.65 5.7 5.3 4 7 C3.566875 6.0409375 3.566875 6.0409375 3.125 5.0625 C2.17176549 2.84793921 2.17176549 2.84793921 0 2 C0 1.34 0 0.68 0 0 Z " fill="#EBDFDE" transform="translate(102,127)"/>
<path d="M0 0 C0.99 0.33 1.98 0.66 3 1 C2.67 2.32 2.34 3.64 2 5 C0.25 5.6875 0.25 5.6875 -2 6 C-4.25 4.5625 -4.25 4.5625 -6 3 C-5.195625 2.690625 -4.39125 2.38125 -3.5625 2.0625 C-1.10919595 1.23664655 -1.10919595 1.23664655 0 0 Z " fill="#464646" transform="translate(59,148)"/>
<path d="M0 0 C4.52615993 3.67832017 8.39424999 7.41086363 12 12 C9 12 9 12 7.24609375 10.390625 C6.64925781 9.68421875 6.05242188 8.9778125 5.4375 8.25 C4.83808594 7.55390625 4.23867188 6.8578125 3.62109375 6.140625 C2.11754827 4.15522037 1.02421999 2.2624561 0 0 Z " fill="#701202" transform="translate(50,39)"/>
<path d="M0 0 C4.455 0.99 4.455 0.99 9 2 C9 2.99 9 3.98 9 5 C8.01 5.495 8.01 5.495 7 6 C7 5.34 7 4.68 7 4 C4.69 3.67 2.38 3.34 0 3 C0 2.01 0 1.02 0 0 Z " fill="#4F4D4D" transform="translate(145,4)"/>
<path d="M0 0 C3 0 3 0 6 1 C5.34 2.32 4.68 3.64 4 5 C2.68 5 1.36 5 0 5 C-0.5625 3.0625 -0.5625 3.0625 -1 1 C-0.67 0.67 -0.34 0.34 0 0 Z " fill="#020202" transform="translate(6,62)"/>
<path d="M0 0 C0 3.39593478 -0.52165948 4.06619881 -2.5 6.6875 C-2.9640625 7.31011719 -3.428125 7.93273437 -3.90625 8.57421875 C-4.2671875 9.04472656 -4.628125 9.51523437 -5 10 C-5.99 9.34 -6.98 8.68 -8 8 C-5.36 5.36 -2.72 2.72 0 0 Z " fill="#771A06" transform="translate(128,16)"/>
<path d="M0 0 C0.99 0.66 1.98 1.32 3 2 C2.34 2 1.68 2 1 2 C1.309375 2.763125 1.61875 3.52625 1.9375 4.3125 C2.67893593 6.18789677 3.36228217 8.08684652 4 10 C3.01 10 2.02 10 1 10 C0.01 7.03 -0.98 4.06 -2 1 C-1.34 0.67 -0.68 0.34 0 0 Z " fill="#080606" transform="translate(147,6)"/>
<path d="M0 0 C0.66 0 1.32 0 2 0 C2 1.98 2 3.96 2 6 C1.01 6 0.02 6 -1 6 C-1.33 6.99 -1.66 7.98 -2 9 C-3 6 -3 6 -1.5625 2.8125 C-1.046875 1.884375 -0.53125 0.95625 0 0 Z " fill="#541E18" transform="translate(8,20)"/>
<path d="M0 0 C1.65 0 3.3 0 5 0 C4.67 0.66 4.34 1.32 4 2 C3.34 2 2.68 2 2 2 C2 2.66 2 3.32 2 4 C-1 6 -1 6 -3.1875 5.625 C-3.785625 5.41875 -4.38375 5.2125 -5 5 C-4.175 4.360625 -3.35 3.72125 -2.5 3.0625 C-1.675 2.381875 -0.85 1.70125 0 1 C0 0.67 0 0.34 0 0 Z " fill="#984B28" transform="translate(117,13)"/>
<path d="M0 0 C2.50357861 0.8345262 4.66785852 1.79371992 7 3 C6.67 3.99 6.34 4.98 6 6 C4.35 5.67 2.7 5.34 1 5 C1 4.34 1 3.68 1 3 C0.34 3 -0.32 3 -1 3 C-0.67 2.01 -0.34 1.02 0 0 Z " fill="#7C4732" transform="translate(30,8)"/>
<path d="M0 0 C0.99 0 1.98 0 3 0 C3.66 1.98 4.32 3.96 5 6 C2.03 5.505 2.03 5.505 -1 5 C-0.67 3.35 -0.34 1.7 0 0 Z " fill="#3A3A3A" transform="translate(47,143)"/>
<path d="M0 0 C0.66 0 1.32 0 2 0 C2 0.66 2 1.32 2 2 C2.66 2 3.32 2 4 2 C4.33 1.34 4.66 0.68 5 0 C4.67 3.3 4.34 6.6 4 10 C3.67 10 3.34 10 3 10 C2.01 6.7 1.02 3.4 0 0 Z " fill="#D6531F" transform="translate(4,109)"/>
<path d="M0 0 C1.41377341 2.63904371 2.37240135 5.07120629 3 8 C2.01 8.33 1.02 8.66 0 9 C-0.33 8.67 -0.66 8.34 -1 8 C-0.82364548 5.30917128 -0.38164079 2.67148554 0 0 Z " fill="#292624" transform="translate(3,106)"/>
<path d="M0 0 C0.33 1.32 0.66 2.64 1 4 C1.66 4 2.32 4 3 4 C2.67 5.32 2.34 6.64 2 8 C1.01 7.67 0.02 7.34 -1 7 C-2 4 -2 4 -1.0625 1.8125 C-0.5365625 0.9153125 -0.5365625 0.9153125 0 0 Z " fill="#212121" transform="translate(155,65)"/>
<path d="M0 0 C1.9375 0.8125 1.9375 0.8125 4 2 C4.33 2.99 4.66 3.98 5 5 C3.68 5.99 2.36 6.98 1 8 C0.17361624 5.10765685 0 3.11257569 0 0 Z " fill="#5B5B5B" transform="translate(1,45)"/>
<path d="M0 0 C1.4540625 0.0309375 1.4540625 0.0309375 2.9375 0.0625 C3.5975 1.7125 4.2575 3.3625 4.9375 5.0625 C3.2875 4.7325 1.6375 4.4025 -0.0625 4.0625 C-0.0625 3.4025 -0.0625 2.7425 -0.0625 2.0625 C-1.3825 1.7325 -2.7025 1.4025 -4.0625 1.0625 C-3.0625 0.0625 -3.0625 0.0625 0 0 Z " fill="#282828" transform="translate(145.0625,150.9375)"/>
<path d="M0 0 C0 0.66 0 1.32 0 2 C0.66 2.33 1.32 2.66 2 3 C2 3.66 2 4.32 2 5 C-0.02045442 4.39816251 -2.02111039 3.72693904 -4 3 C-4.33 2.34 -4.66 1.68 -5 1 C-2 0 -2 0 0 0 Z " fill="#5C5C5C" transform="translate(123,146)"/>
<path d="M0 0 C0.99 0 1.98 0 3 0 C5 2 5 2 6 5 C3.03 4.505 3.03 4.505 0 4 C0 2.68 0 1.36 0 0 Z " fill="#000000" transform="translate(124,146)"/>
<path d="M0 0 C0.33 0 0.66 0 1 0 C1.33 3.63 1.66 7.26 2 11 C-0.40563753 8.59436247 -0.60358311 7.32990189 -1 4 C-0.5625 1.6875 -0.5625 1.6875 0 0 Z " fill="#E45B22" transform="translate(70,105)"/>
<path d="M0 0 C1.5625 1.8125 1.5625 1.8125 3 4 C2.67 4.99 2.34 5.98 2 7 C1.01 6.67 0.02 6.34 -1 6 C-0.67 4.02 -0.34 2.04 0 0 Z " fill="#181818" transform="translate(3,40)"/>
<path d="M0 0 C2 1 2 1 2 1 Z " fill="#000000" transform="translate(57,24)"/>
<path d="M0 0 C2 1 2 1 2 1 Z " fill="#000000" transform="translate(100,23)"/>
<path d="M0 0 C2 1 2 1 2 1 Z " fill="#000000" transform="translate(105,20)"/>
<path d="M0 0 C2 1 2 1 2 1 Z " fill="#000000" transform="translate(110,17)"/>
<path d="M0 0 C2 1 2 1 2 1 Z " fill="#000000" transform="translate(122,10)"/>
<path d="M0 0 C2 1 2 1 2 1 Z " fill="#000000" transform="translate(125,8)"/>
<path d="M0 0 C2 1 2 1 2 1 Z " fill="#000000" transform="translate(132,4)"/>
<path d="M0 0 C2 1 2 1 2 1 Z " fill="#000000" transform="translate(22,3)"/>
<path d="M0 0 C2 1 2 1 2 1 Z " fill="#000000" transform="translate(135,2)"/>
<path d="M0 0 C2 1 2 1 2 1 Z " fill="#000000" transform="translate(17,0)"/>
<path d="" fill="#000000" transform="translate(0,0)"/>
<path d="" fill="#000000" transform="translate(0,0)"/>
<path d="" fill="#000000" transform="translate(0,0)"/>
<path d="" fill="#000000" transform="translate(0,0)"/>
<path d="" fill="#000000" transform="translate(0,0)"/>
<path d="" fill="#000000" transform="translate(0,0)"/>
<path d="" fill="#000000" transform="translate(0,0)"/>
<path d="" fill="#000000" transform="translate(0,0)"/>
<path d="" fill="#000000" transform="translate(0,0)"/>
<path d="" fill="#000000" transform="translate(0,0)"/>
<path d="" fill="#000000" transform="translate(0,0)"/>
<path d="" fill="#808080" transform="translate(0,0)"/>
<path d="" fill="#000000" transform="translate(0,0)"/>
<path d="" fill="#000000" transform="translate(0,0)"/>
<path d="" fill="#000000" transform="translate(0,0)"/>
<path d="" fill="#000000" transform="translate(0,0)"/>
<path d="" fill="#000000" transform="translate(0,0)"/>
<path d="" fill="#000000" transform="translate(0,0)"/>
<path d="" fill="#000000" transform="translate(0,0)"/>
<path d="" fill="#000000" transform="translate(0,0)"/>
<path d="" fill="#000000" transform="translate(0,0)"/>
<path d="" fill="#000000" transform="translate(0,0)"/>
<path d="" fill="#000000" transform="translate(0,0)"/>
<path d="" fill="#000000" transform="translate(0,0)"/>
<path d="" fill="#000000" transform="translate(0,0)"/>
<path d="" fill="#000000" transform="translate(0,0)"/>
<path d="" fill="#000000" transform="translate(0,0)"/>
<path d="" fill="#000000" transform="translate(0,0)"/>
<path d="" fill="#000000" transform="translate(0,0)"/>
<path d="" fill="#000000" transform="translate(0,0)"/>
<path d="" fill="#000000" transform="translate(0,0)"/>
</svg>
