<?xml version="1.0" encoding="UTF-8"?>
<svg version="1.1" xmlns="http://www.w3.org/2000/svg" width="115" height="123">
<path d="M0 0 C0 0.66 0 1.32 0 2 C2.475 1.505 2.475 1.505 5 1 C5.495 2.485 5.495 2.485 6 4 C6.70769531 4.10570312 7.41539063 4.21140625 8.14453125 4.3203125 C18.32353604 6.74322198 27.31895168 14.40565474 33 23 C41.13610446 37.42931615 45.31401644 52.36300155 40.87109375 68.8515625 C37.43545973 79.64826263 32.61864403 88.28220101 23.8125 95.50390625 C21.87115357 97.04358275 21.87115357 97.04358275 19.875 99.25 C17.48495704 101.48070677 14.96151611 102.64263845 12 104 C11.41992188 104.33386719 10.83984375 104.66773437 10.2421875 105.01171875 C7.24228249 106.33397653 4.36682176 106.72388463 1.125 107.1875 C-0.06867188 107.36667969 -1.26234375 107.54585938 -2.4921875 107.73046875 C-5.90413842 107.99263424 -8.65551206 107.60941836 -12 107 C-12.99 107.495 -12.99 107.495 -14 108 C-20.05713024 108.40900236 -24.19674408 107.5336229 -29.6875 105.0625 C-34.59582225 102.88095046 -34.59582225 102.88095046 -39.76953125 101.49609375 C-44.37377579 100.47203235 -46.35356367 96.13155374 -48.81640625 92.42578125 C-49.20699219 91.95527344 -49.59757812 91.48476562 -50 91 C-50.66 91 -51.32 91 -52 91 C-52.33 90.01 -52.66 89.02 -53 88 C-53.66 87.67 -54.32 87.34 -55 87 C-55.12375 86.113125 -55.2475 85.22625 -55.375 84.3125 C-56.11083575 80.41257053 -57.75269272 78.23050421 -60 75 C-60.625 72.875 -60.625 72.875 -61 71 C-61.32919434 70.39526855 -61.65838867 69.79053711 -61.99755859 69.16748047 C-63.10437245 66.77432573 -63.30822052 65.06856518 -63.4140625 62.4453125 C-63.45273437 61.58292969 -63.49140625 60.72054687 -63.53125 59.83203125 C-63.5621875 58.93871094 -63.593125 58.04539063 -63.625 57.125 C-63.66367187 56.23941406 -63.70234375 55.35382812 -63.7421875 54.44140625 C-63.92925434 49.95848297 -64.04443193 45.48762523 -64 41 C-63.34 41 -62.68 41 -62 41 C-61.87882812 40.43152344 -61.75765625 39.86304688 -61.6328125 39.27734375 C-60.58677946 34.45754536 -59.40795516 29.7267066 -58 25 C-57.34 25 -56.68 25 -56 25 C-54.50475822 22.7272325 -53.21600285 20.4320057 -52 18 C-50.94390806 17.03191572 -49.85570611 16.09850569 -48.75 15.1875 C-46.44312441 13.25880074 -44.36097678 11.34645353 -42.25 9.1875 C-40 7 -40 7 -37 6 C-36.3503125 5.2265625 -36.3503125 5.2265625 -35.6875 4.4375 C-33.21416874 2.33058819 -31.1362632 2.79091579 -28 3 C-27.67 2.34 -27.34 1.68 -27 1 C-25.16162109 0.57348633 -25.16162109 0.57348633 -22.7734375 0.33203125 C-21.47212891 0.19958008 -21.47212891 0.19958008 -20.14453125 0.06445312 C-19.23058594 -0.01869141 -18.31664062 -0.10183594 -17.375 -0.1875 C-16.48425781 -0.28224609 -15.59351563 -0.37699219 -14.67578125 -0.47460938 C-9.55572255 -0.96851784 -5.05377402 -0.97613991 0 0 Z " fill="#E3E3E3" transform="translate(67,7)"/>
<path d="M0 0 C9.24232924 4.48303198 14.7462048 11.12379891 18.6875 20.484375 C21.85229885 29.80922876 21.26997726 38.99481464 17.5625 48.0625 C13.23395352 56.83058133 6.75323547 63.53780557 -2.4375 67.0625 C-10.92592745 69.81702281 -21.20814041 69.21683945 -29.125 65.3125 C-38.43502903 60.09783027 -44.93032209 52.93742823 -47.96875 42.57421875 C-50.04130107 31.46879926 -48.39556891 21.28289267 -42.3125 11.8125 C-32.40697398 -1.4993567 -15.35912416 -5.69075241 0 0 Z " fill="#474747" transform="translate(70.4375,27.9375)"/>
<path d="M0 0 C1.32 0.33 2.64 0.66 4 1 C4 5.95 4 10.9 4 16 C4.99 15.67 5.98 15.34 7 15 C6.814375 13.865625 6.62875 12.73125 6.4375 11.5625 C6.293125 10.386875 6.14875 9.21125 6 8 C6.33 7.67 6.66 7.34 7 7 C11.75689898 7.09707957 14.19116916 7.91070513 17.875 10.9375 C21.98076819 14.29456929 25.80670581 15.30275217 31 16 C30.6875 17.875 30.6875 17.875 30 20 C27 22 27 22 24 22 C24 22.66 24 23.32 24 24 C20.95613276 24.08226668 18.92824652 23.97608217 16 23 C15.54625 23.495 15.0925 23.99 14.625 24.5 C13 26 13 26 11 26 C11 26.66 11 27.32 11 28 C10.34 28 9.68 28 9 28 C8.67 31.3 8.34 34.6 8 38 C7.01 38.33 6.02 38.66 5 39 C5.66 40.65 6.32 42.3 7 44 C6.01 44.33 5.02 44.66 4 45 C4.33 45.66 4.66 46.32 5 47 C6.89533342 47.46523063 6.89533342 47.46523063 9.0625 47.625 C10.361875 47.74875 11.66125 47.8725 13 48 C13.66 49.65 14.32 51.3 15 53 C13.68 53.66 12.36 54.32 11 55 C11 55.66 11 56.32 11 57 C11.99 57.33 12.98 57.66 14 58 C14 58.33 14 58.66 14 59 C7.84765625 59.09765625 7.84765625 59.09765625 6 59 C5.67 58.67 5.34 58.34 5 58 C4.67 58.66 4.34 59.32 4 60 C-0.16138263 60.08159574 -3.9472484 59.98248524 -8 59 C-8 58.01 -8 57.02 -8 56 C-5.69 56 -3.38 56 -1 56 C-1.495 55.505 -1.495 55.505 -2 55 C-3.32 55 -4.64 55 -6 55 C-7.485 54.505 -7.485 54.505 -9 54 C-9 52.02 -9 50.04 -9 48 C-7.35 48.33 -5.7 48.66 -4 49 C-4 49.66 -4 50.32 -4 51 C-1.2160817 49.60804085 -1.02101003 47.84424221 0 45 C-1.485 44.505 -1.485 44.505 -3 44 C-2.79375 43.4225 -2.5875 42.845 -2.375 42.25 C-1.8967424 39.38045439 -2.62450777 38.53380148 -4 36 C-4.268125 34.845 -4.53625 33.69 -4.8125 32.5 C-6.17439762 28.48598595 -7.58387742 27.36500794 -11 25 C-11.33 24.34 -11.66 23.68 -12 23 C-15.96 23.495 -15.96 23.495 -20 24 C-20 23.34 -20 22.68 -20 22 C-20.78375 21.87625 -21.5675 21.7525 -22.375 21.625 C-25 21 -25 21 -27 19 C-27 18.01 -27 17.02 -27 16 C-25.081875 15.7215625 -25.081875 15.7215625 -23.125 15.4375 C-17.91852034 14.32886474 -14.46613168 11.749027 -10.359375 8.4609375 C-7.65262519 6.78490368 -6.12499756 6.70079811 -3 7 C-3.33 9.97 -3.66 12.94 -4 16 C-2.68 16 -1.36 16 0 16 C0 10.72 0 5.44 0 0 Z " fill="#6E6E6E" transform="translate(54,30)"/>
<path d="M0 0 C6.76645334 4.23025737 11.53225319 8.92440174 13.69921875 16.6875 C5.82199485 17.40361126 0.74655137 14.88912132 -5.39453125 10.03125 C-7.81900497 8.32219476 -9.39950762 8.4457272 -12.30078125 8.6875 C-11.80578125 12.1525 -11.80578125 12.1525 -11.30078125 15.6875 C-12.62078125 16.0175 -13.94078125 16.3475 -15.30078125 16.6875 C-15.63078125 11.7375 -15.96078125 6.7875 -16.30078125 1.6875 C-17.29078125 1.3575 -18.28078125 1.0275 -19.30078125 0.6875 C-19.30078125 5.9675 -19.30078125 11.2475 -19.30078125 16.6875 C-20.62078125 16.6875 -21.94078125 16.6875 -23.30078125 16.6875 C-22.97078125 13.7175 -22.64078125 10.7475 -22.30078125 7.6875 C-26.83205989 8.63151638 -29.61225593 9.76608422 -33.17578125 12.75 C-37.35399882 16.1171518 -41.02582835 16.66307892 -46.30078125 16.6875 C-45.10389287 11.13829022 -43.72556961 8.49487603 -39.30078125 4.6875 C-38.55828125 4.006875 -37.81578125 3.32625 -37.05078125 2.625 C-25.88766878 -5.23992015 -12.31526241 -5.91401414 0 0 Z " fill="#454545" transform="translate(73.30078125,29.3125)"/>
<path d="M0 0 C0.495 0.99 0.495 0.99 1 2 C-1.64 2 -4.28 2 -7 2 C-7 2.66 -7 3.32 -7 4 C-8.32 4 -9.64 4 -11 4 C-11 4.99 -11 5.98 -11 7 C-12.32 7.33 -13.64 7.66 -15 8 C-15 7.34 -15 6.68 -15 6 C-16.65376718 6.73233973 -18.29787304 7.48652714 -19.9375 8.25 C-20.85402344 8.66765625 -21.77054688 9.0853125 -22.71484375 9.515625 C-25.15582199 10.76943552 -25.15582199 10.76943552 -25.71875 13.0625 C-25.8115625 13.701875 -25.904375 14.34125 -26 15 C-27.5625 16.75 -27.5625 16.75 -29 18 C-29.66 17.67 -30.32 17.34 -31 17 C-31.99 17 -32.98 17 -34 17 C-34 18.32 -34 19.64 -34 21 C-35.53125 23.796875 -35.53125 23.796875 -37.5 26.75 C-38.1496875 27.73484375 -38.799375 28.7196875 -39.46875 29.734375 C-39.9740625 30.48203125 -40.479375 31.2296875 -41 32 C-41.66 31.67 -42.32 31.34 -43 31 C-44.64570159 32.05630262 -44.64570159 32.05630262 -46 34 C-46.2503577 37.62535976 -46.2503577 37.62535976 -46 41 C-45.67 41 -45.34 41 -45 41 C-44.7489219 46.52371826 -44.7489219 46.52371826 -46.0234375 48.94140625 C-48.6380375 54.45298305 -45.65163975 63.35419875 -44 69 C-43.47212891 69.99580078 -43.47212891 69.99580078 -42.93359375 71.01171875 C-42 73 -42 73 -42 77 C-39.77152212 79.47943955 -39.77152212 79.47943955 -37 82 C-32.75459406 86.43837894 -31.79162359 89.00627854 -31 95 C-27.98850009 98.47480758 -24.41826537 98.57516679 -20 99 C-20 99.99 -20 100.98 -20 102 C-19.34 102 -18.68 102 -18 102 C-18 102.66 -18 103.32 -18 104 C-30.28164911 101.76697289 -30.28164911 101.76697289 -34.31640625 96.17578125 C-35.15155118 94.92699088 -35.98486717 93.67697556 -36.81640625 92.42578125 C-37.20699219 91.95527344 -37.59757812 91.48476562 -38 91 C-38.66 91 -39.32 91 -40 91 C-40.33 90.01 -40.66 89.02 -41 88 C-41.66 87.67 -42.32 87.34 -43 87 C-43.12375 86.113125 -43.2475 85.22625 -43.375 84.3125 C-44.11083575 80.41257053 -45.75269272 78.23050421 -48 75 C-48.625 72.875 -48.625 72.875 -49 71 C-49.32919434 70.39526855 -49.65838867 69.79053711 -49.99755859 69.16748047 C-51.10437245 66.77432573 -51.30822052 65.06856518 -51.4140625 62.4453125 C-51.45273437 61.58292969 -51.49140625 60.72054687 -51.53125 59.83203125 C-51.5621875 58.93871094 -51.593125 58.04539063 -51.625 57.125 C-51.66367187 56.23941406 -51.70234375 55.35382812 -51.7421875 54.44140625 C-51.92925434 49.95848297 -52.04443193 45.48762523 -52 41 C-51.34 41 -50.68 41 -50 41 C-49.87882812 40.43152344 -49.75765625 39.86304688 -49.6328125 39.27734375 C-48.58677946 34.45754536 -47.40795516 29.7267066 -46 25 C-45.34 25 -44.68 25 -44 25 C-42.50475822 22.7272325 -41.21600285 20.4320057 -40 18 C-38.94390806 17.03191572 -37.85570611 16.09850569 -36.75 15.1875 C-34.44312441 13.25880074 -32.36097678 11.34645353 -30.25 9.1875 C-28 7 -28 7 -25 6 C-24.3503125 5.2265625 -24.3503125 5.2265625 -23.6875 4.4375 C-21.21416874 2.33058819 -19.1362632 2.79091579 -16 3 C-15.67 2.34 -15.34 1.68 -15 1 C-10.03901518 -0.24024621 -5.07558808 -0.10151176 0 0 Z " fill="#868686" transform="translate(55,7)"/>
<path d="M0 0 C0 0.66 0 1.32 0 2 C1.65 1.67 3.3 1.34 5 1 C5.33 1.99 5.66 2.98 6 4 C6.70769531 4.10570312 7.41539063 4.21140625 8.14453125 4.3203125 C18.32353604 6.74322198 27.31895168 14.40565474 33 23 C41.13610446 37.42931615 45.31401644 52.36300155 40.87109375 68.8515625 C37.43545973 79.64826263 32.61864403 88.28220101 23.8125 95.50390625 C21.87115357 97.04358275 21.87115357 97.04358275 19.875 99.25 C17.48495704 101.48070677 14.96151611 102.64263845 12 104 C11.29875 104.433125 10.5975 104.86625 9.875 105.3125 C8 106 8 106 5.75 105.125 C4.88375 104.568125 4.88375 104.568125 4 104 C5.2065625 103.5978125 5.2065625 103.5978125 6.4375 103.1875 C7.283125 102.795625 8.12875 102.40375 9 102 C9.495 100.515 9.495 100.515 10 99 C11.9375 98.25 11.9375 98.25 14 98 C14.66 98.33 15.32 98.66 16 99 C16.08636719 98.43667969 16.17273438 97.87335938 16.26171875 97.29296875 C17.21582559 94.32968453 18.74679906 92.63114391 20.8125 90.3125 C21.49957031 89.52488281 22.18664062 88.73726563 22.89453125 87.92578125 C25.07826933 85.92841043 26.18096567 85.5506394 29 85 C32.10534632 81.0585989 32.9412962 76.80488647 34 72 C34.66 72 35.32 72 36 72 C36 71.34 36 70.68 36 70 C36.66 70 37.32 70 38 70 C37.67 65.38 37.34 60.76 37 56 C37.99 56 38.98 56 40 56 C40 52.04 40 48.08 40 44 C38.35 43.34 36.7 42.68 35 42 C35.24621094 41.30648437 35.49242187 40.61296875 35.74609375 39.8984375 C36.09763192 35.88549414 34.3476524 33.72019452 32.0625 30.625 C31.65225586 30.05136719 31.24201172 29.47773437 30.81933594 28.88671875 C27.86502557 24.8748608 24.67588365 21.53160826 20.765625 18.421875 C19 17 19 17 16.5 14.25 C13.20698178 11.2862836 10.20096034 10.35285164 6 9 C6 8.34 6 7.68 6 7 C0.9752761 6.37470103 -3.92528427 5.86987908 -9 6 C-9 4.02 -9 2.04 -9 0 C-5.93109813 -1.53445094 -3.29905734 -0.54984289 0 0 Z " fill="#585858" transform="translate(67,7)"/>
<path d="M0 0 C1.32 0.33 2.64 0.66 4 1 C4 5.95 4 10.9 4 16 C4.99 15.67 5.98 15.34 7 15 C6.814375 13.865625 6.62875 12.73125 6.4375 11.5625 C6.293125 10.386875 6.14875 9.21125 6 8 C6.33 7.67 6.66 7.34 7 7 C11.75689898 7.09707957 14.19116916 7.91070513 17.875 10.9375 C21.98076819 14.29456929 25.80670581 15.30275217 31 16 C31 16.99 31 17.98 31 19 C25.32723489 19.29341888 22.00932754 19.00559652 17 16 C17.99 17.32 18.98 18.64 20 20 C18.68 19.34 17.36 18.68 16 18 C15.690625 18.928125 15.38125 19.85625 15.0625 20.8125 C12.2030293 25.23168199 8.95272438 25.81633002 4 27 C4.33 28.65 4.66 30.3 5 32 C4.34 32 3.68 32 3 32 C3 31.01 3 30.02 3 29 C2.34 29 1.68 29 1 29 C0.67 29.99 0.34 30.98 0 32 C-0.33 30.68 -0.66 29.36 -1 28 C-0.34 28 0.32 28 1 28 C1 27.34 1 26.68 1 26 C0.37351562 25.96261719 -0.25296875 25.92523438 -0.8984375 25.88671875 C-1.71570312 25.82097656 -2.53296875 25.75523438 -3.375 25.6875 C-4.18710937 25.62949219 -4.99921875 25.57148437 -5.8359375 25.51171875 C-8 25 -8 25 -10 22 C-7 20 -7 20 0 19 C0 12.73 0 6.46 0 0 Z " fill="#A6A6A6" transform="translate(54,30)"/>
<path d="M0 0 C-0.33 2.97 -0.66 5.94 -1 9 C0.32 9 1.64 9 3 9 C3.33 8.01 3.66 7.02 4 6 C4 9.96 4 13.92 4 18 C3.67 18 3.34 18 3 18 C2.505 15.525 2.505 15.525 2 13 C-0.64 13.66 -3.28 14.32 -6 15 C-5.67 15.66 -5.34 16.32 -5 17 C-2.88153715 17.68729254 -2.88153715 17.68729254 -0.4375 18.125 C0.38878906 18.29257812 1.21507813 18.46015625 2.06640625 18.6328125 C2.70449219 18.75398438 3.34257813 18.87515625 4 19 C4 19.66 4 20.32 4 21 C3.34 21 2.68 21 2 21 C1.67 21.99 1.34 22.98 1 24 C1 22.68 1 21.36 1 20 C0.34 20.33 -0.32 20.66 -1 21 C-1.33 21.99 -1.66 22.98 -2 24 C-2.598125 23.236875 -3.19625 22.47375 -3.8125 21.6875 C-4.534375 20.800625 -5.25625 19.91375 -6 19 C-6.4125 18.38125 -6.825 17.7625 -7.25 17.125 C-10.32084787 15.15088351 -13.52817323 16.37393288 -17 17 C-17 16.34 -17 15.68 -17 15 C-17.78375 14.87625 -18.5675 14.7525 -19.375 14.625 C-22 14 -22 14 -24 12 C-24 11.01 -24 10.02 -24 9 C-22.081875 8.7215625 -22.081875 8.7215625 -20.125 8.4375 C-14.91852034 7.32886474 -11.46613168 4.749027 -7.359375 1.4609375 C-4.65262519 -0.21509632 -3.12499756 -0.29920189 0 0 Z " fill="#A7A7A7" transform="translate(51,37)"/>
<path d="M0 0 C0.99 0.33 1.98 0.66 3 1 C3 2.32 3 3.64 3 5 C4.32 4.01 5.64 3.02 7 2 C7.66 3.32 8.32 4.64 9 6 C9.99 5.67 10.98 5.34 12 5 C14.04296875 6.21484375 14.04296875 6.21484375 16.1875 7.9375 C16.90292969 8.50339844 17.61835937 9.06929687 18.35546875 9.65234375 C18.89816406 10.09707031 19.44085938 10.54179687 20 11 C19.34 12.32 18.68 13.64 18 15 C20.475 15.495 20.475 15.495 23 16 C23 17.98 23 19.96 23 22 C24.32 22.33 25.64 22.66 27 23 C27.33 24.98 27.66 26.96 28 29 C26.02 29.99 26.02 29.99 24 31 C23.67 30.01 23.34 29.02 23 28 C22.01 28 21.02 28 20 28 C19.72027344 27.43152344 19.44054687 26.86304687 19.15234375 26.27734375 C13.55589094 15.4983237 7.42756393 11.0718906 -4 7 C-3.30621489 3.73988358 -2.54106009 2.20961747 0 0 Z " fill="#D2D2D2" transform="translate(68,20)"/>
<path d="M0 0 C0.103125 0.639375 0.20625 1.27875 0.3125 1.9375 C0.539375 2.618125 0.76625 3.29875 1 4 C1.99 4.33 2.98 4.66 4 5 C4.66015625 6.92578125 4.66015625 6.92578125 5.0625 9.3125 C5.49690119 11.8154783 5.88604791 13.78008509 7.05859375 16.04296875 C8 18 8 18 8 22 C10.22847788 24.47943955 10.22847788 24.47943955 13 27 C17.24540594 31.43837894 18.20837641 34.00627854 19 40 C22.01149991 43.47480758 25.58173463 43.57516679 30 44 C30 44.99 30 45.98 30 47 C30.66 47 31.32 47 32 47 C32 47.66 32 48.32 32 49 C19.71835089 46.76697289 19.71835089 46.76697289 15.68359375 41.17578125 C14.84844882 39.92699088 14.01513283 38.67697556 13.18359375 37.42578125 C12.79300781 36.95527344 12.40242188 36.48476562 12 36 C11.34 36 10.68 36 10 36 C9.505 34.515 9.505 34.515 9 33 C8.34 32.67 7.68 32.34 7 32 C6.87625 31.113125 6.7525 30.22625 6.625 29.3125 C5.88916425 25.41257053 4.24730728 23.23050421 2 20 C1.375 17.875 1.375 17.875 1 16 C0.649375 15.4225 0.29875 14.845 -0.0625 14.25 C-1.8997966 9.84048817 -1.49941024 4.49823073 0 0 Z " fill="#3D3D3D" transform="translate(5,62)"/>
<path d="M0 0 C0 0.66 0 1.32 0 2 C1.65 1.67 3.3 1.34 5 1 C5.33 1.99 5.66 2.98 6 4 C6.70640625 4.10441406 7.4128125 4.20882813 8.140625 4.31640625 C17.94854787 6.66119655 26.35593515 13.84746189 32 22 C32 22.99 32 23.98 32 25 C31.34 25 30.68 25 30 25 C29.401875 24.01 28.80375 23.02 28.1875 22 C27.465625 21.01 26.74375 20.02 26 19 C25.195625 19 24.39125 19 23.5625 19 C22.716875 19 21.87125 19 21 19 C19.84659171 17.55000101 18.69846471 16.09476487 17.6015625 14.6015625 C14.47938924 11.47938924 10.11953383 10.35984612 6 9 C6 8.34 6 7.68 6 7 C0.9752761 6.37470103 -3.92528427 5.86987908 -9 6 C-9 4.02 -9 2.04 -9 0 C-5.93109813 -1.53445094 -3.29905734 -0.54984289 0 0 Z " fill="#878787" transform="translate(67,7)"/>
<path d="M0 0 C0.639375 0.28875 1.27875 0.5775 1.9375 0.875 C5.88410292 2.3247725 9.8874607 3.15778062 14 4 C12.6875 5.5 12.6875 5.5 11 7 C10.01 7 9.02 7 8 7 C8 7.66 8 8.32 8 9 C4.95613276 9.08226668 2.92824652 8.97608217 0 8 C-0.680625 8.7425 -0.680625 8.7425 -1.375 9.5 C-3 11 -3 11 -5 11 C-5 11.66 -5 12.32 -5 13 C-5.66 13 -6.32 13 -7 13 C-7.33 16.3 -7.66 19.6 -8 23 C-8.99 23.33 -9.98 23.66 -11 24 C-10.34 25.65 -9.68 27.3 -9 29 C-9.99 29 -10.98 29 -12 29 C-12.86627399 27.40233897 -13.71766465 25.79660056 -14.5625 24.1875 C-15.03816406 23.29417969 -15.51382813 22.40085937 -16.00390625 21.48046875 C-17 19 -17 19 -16 16 C-15.67 15.34 -15.34 14.68 -15 14 C-14.34 14 -13.68 14 -13 14 C-13 14.99 -13 15.98 -13 17 C-12.34 17 -11.68 17 -11 17 C-11.7763932 13.9254644 -11.7763932 13.9254644 -14 12 C-11.38604592 10.53618571 -9.36177085 9.86795259 -6.375 9.25 C-2.71306986 8.34583597 -2.71306986 8.34583597 -1.5625 4.875 C-1.376875 3.92625 -1.19125 2.9775 -1 2 C-0.01 2.33 0.98 2.66 2 3 C1.34 2.01 0.68 1.02 0 0 Z " fill="#B4B4B4" transform="translate(70,45)"/>
<path d="M0 0 C2 2 2 2 2 5 C0.12536752 15.15250401 -7.48283697 21.67316227 -15 28 C-15.53367187 28.5465625 -16.06734375 29.093125 -16.6171875 29.65625 C-18.75378948 31.73249599 -21.32110089 32.74255756 -24 34 C-24.70125 34.433125 -25.4025 34.86625 -26.125 35.3125 C-28 36 -28 36 -30.25 35.125 C-30.8275 34.75375 -31.405 34.3825 -32 34 C-31.195625 33.731875 -30.39125 33.46375 -29.5625 33.1875 C-28.2940625 32.5996875 -28.2940625 32.5996875 -27 32 C-26.67 31.01 -26.34 30.02 -26 29 C-24.0625 28.25 -24.0625 28.25 -22 28 C-21.34 28.33 -20.68 28.66 -20 29 C-19.91363281 28.43667969 -19.82726562 27.87335938 -19.73828125 27.29296875 C-18.78417441 24.32968453 -17.25320094 22.63114391 -15.1875 20.3125 C-14.15689453 19.13107422 -14.15689453 19.13107422 -13.10546875 17.92578125 C-10.92173067 15.92841043 -9.81903433 15.5506394 -7 15 C-3.89465368 11.0585989 -3.0587038 6.80488647 -2 2 C-1.34 2 -0.68 2 0 2 C0 1.34 0 0.68 0 0 Z " fill="#7D7D7D" transform="translate(103,77)"/>
<path d="M0 0 C0.99 0.33 1.98 0.66 3 1 C2.67 2.98 2.34 4.96 2 7 C-0.475 6.505 -0.475 6.505 -3 6 C-3.103125 6.61875 -3.20625 7.2375 -3.3125 7.875 C-4 10 -4 10 -7 12 C-6.67 13.65 -6.34 15.3 -6 17 C-7.65 17 -9.3 17 -11 17 C-11.33 17.99 -11.66 18.98 -12 20 C-15.22791555 22.1519437 -16.28400809 22.20086443 -20 22 C-20.85383669 19.60925726 -21.15714007 18.41822176 -20.25 16.00390625 C-18.82741864 13.72333052 -17.71277554 12.96815393 -15.375 11.6875 C-11.41810913 9.36670062 -8.14025358 6.64148959 -4.76171875 3.55078125 C-3 2 -3 2 0 0 Z " fill="#DBDBDB" transform="translate(89,79)"/>
<path d="M0 0 C0 3.57575896 -1.08840607 5.05295935 -3 8 C-3.66 7.67 -4.32 7.34 -5 7 C-6.64570159 8.05630262 -6.64570159 8.05630262 -8 10 C-8.2503577 13.62535976 -8.2503577 13.62535976 -8 17 C-7.67 17 -7.34 17 -7 17 C-6.7486911 22.52879581 -6.7486911 22.52879581 -8 24.875 C-9.57080236 28.21295502 -9.12199962 31.34001139 -9 35 C-10.32 35 -11.64 35 -13 35 C-13.69260358 28.96445452 -14.11251733 23.07593562 -14 17 C-13.34 17 -12.68 17 -12 17 C-11.81824219 16.14728516 -11.81824219 16.14728516 -11.6328125 15.27734375 C-10.58677946 10.45754536 -9.40795516 5.7267066 -8 1 C-7.01 1 -6.02 1 -5 1 C-5 2.32 -5 3.64 -5 5 C-3.35 3.35 -1.7 1.7 0 0 Z " fill="#707070" transform="translate(17,31)"/>
<path d="M0 0 C0.99773437 0.02320313 1.99546875 0.04640625 3.0234375 0.0703125 C4.52777344 0.09738281 4.52777344 0.09738281 6.0625 0.125 C6.83335938 0.14820313 7.60421875 0.17140625 8.3984375 0.1953125 C8.3984375 1.8453125 8.3984375 3.4953125 8.3984375 5.1953125 C7.7384375 5.1953125 7.0784375 5.1953125 6.3984375 5.1953125 C6.3984375 4.5353125 6.3984375 3.8753125 6.3984375 3.1953125 C4.0884375 3.1953125 1.7784375 3.1953125 -0.6015625 3.1953125 C2.6984375 4.8453125 5.9984375 6.4953125 9.3984375 8.1953125 C8.3984375 13.1953125 8.3984375 13.1953125 6.6640625 14.53125 C3.93442471 15.33131625 1.96166312 15.19047377 -0.8515625 14.8203125 C-1.74359375 14.70945312 -2.635625 14.59859375 -3.5546875 14.484375 C-4.23015625 14.38898438 -4.905625 14.29359375 -5.6015625 14.1953125 C-5.6015625 12.8753125 -5.6015625 11.5553125 -5.6015625 10.1953125 C-1.9715625 10.8553125 1.6584375 11.5153125 5.3984375 12.1953125 C5.3984375 11.5353125 5.3984375 10.8753125 5.3984375 10.1953125 C4.068125 10.040625 4.068125 10.040625 2.7109375 9.8828125 C-0.6589327 9.18340548 -2.77427788 8.10788739 -5.6015625 6.1953125 C-4.84252152 2.40010759 -4.24028239 0.31833952 0 0 Z " fill="#A3A3A3" transform="translate(70.6015625,61.8046875)"/>
<path d="M0 0 C-0.33 0.99 -0.66 1.98 -1 3 C1.91307991 2.47034911 4.66132736 1.79923991 7.5 0.9375 C10.55955656 0.11797592 12.86934356 -0.18973675 16 0 C15.67 1.65 15.34 3.3 15 5 C16.65 5 18.3 5 20 5 C20 5.33 20 5.66 20 6 C18.02 6 16.04 6 14 6 C13.67 5.34 13.34 4.68 13 4 C11.68 4 10.36 4 9 4 C9.33 4.66 9.66 5.32 10 6 C2.60379867 8.46540044 -3.54034559 8.98386177 -11 6 C-11 5.34 -11 4.68 -11 4 C-9.35546875 2.67578125 -9.35546875 2.67578125 -7.1875 1.3125 C-6.47980469 0.85488281 -5.77210937 0.39726563 -5.04296875 -0.07421875 C-3 -1 -3 -1 0 0 Z " fill="#818181" transform="translate(50,107)"/>
<path d="M0 0 C0.66 0 1.32 0 2 0 C2 1.32 2 2.64 2 4 C3.32 4 4.64 4 6 4 C6.33 3.01 6.66 2.02 7 1 C7 4.96 7 8.92 7 13 C6.67 13 6.34 13 6 13 C5.67 11.35 5.34 9.7 5 8 C2.36 8.66 -0.28 9.32 -3 10 C-2.67 10.66 -2.34 11.32 -2 12 C0.11846285 12.68729254 0.11846285 12.68729254 2.5625 13.125 C3.38878906 13.29257812 4.21507813 13.46015625 5.06640625 13.6328125 C5.70449219 13.75398438 6.34257813 13.87515625 7 14 C7 14.66 7 15.32 7 16 C6.34 16 5.68 16 5 16 C4.67 16.99 4.34 17.98 4 19 C4 17.68 4 16.36 4 15 C3.01 15.495 3.01 15.495 2 16 C1.67 16.99 1.34 17.98 1 19 C0.4225 18.2575 -0.155 17.515 -0.75 16.75 C-2.89609655 14.00740053 -2.89609655 14.00740053 -5.25 11.875 C-7 10 -7 10 -7 7 C-7.99 7 -8.98 7 -10 7 C-10.33 6.67 -10.66 6.34 -11 6 C-11.66 5.67 -12.32 5.34 -13 5 C-11.4375 3.4375 -11.4375 3.4375 -9 2 C-5.375 2.3125 -5.375 2.3125 -2 3 C-1.34 3 -0.68 3 0 3 C0 2.01 0 1.02 0 0 Z " fill="#919191" transform="translate(48,42)"/>
<path d="M0 0 C0 1.98 0 3.96 0 6 C0.99 6 1.98 6 3 6 C3 4.02 3 2.04 3 0 C6.3 0.66 9.6 1.32 13 2 C13 2.99 13 3.98 13 5 C10.03 5.99 7.06 6.98 4 8 C4.33 9.65 4.66 11.3 5 13 C4.34 13 3.68 13 3 13 C3 12.01 3 11.02 3 10 C2.34 10 1.68 10 1 10 C0.67 10.99 0.34 11.98 0 13 C-0.33 11.68 -0.66 10.36 -1 9 C-0.34 9 0.32 9 1 9 C1 8.34 1 7.68 1 7 C0.37351562 6.96261719 -0.25296875 6.92523438 -0.8984375 6.88671875 C-1.71570312 6.82097656 -2.53296875 6.75523438 -3.375 6.6875 C-4.18710937 6.62949219 -4.99921875 6.57148437 -5.8359375 6.51171875 C-8 6 -8 6 -10 3 C-6.75540897 0.83693931 -3.93614833 0 0 0 Z " fill="#555555" transform="translate(54,49)"/>
<path d="M0 0 C1.32 0.33 2.64 0.66 4 1 C3.979375 2.051875 3.95875 3.10375 3.9375 4.1875 C3.98896802 7.32704904 4.26517187 9.96883396 5 13 C0.83861737 13.08159574 -2.9472484 12.98248524 -7 12 C-7 11.01 -7 10.02 -7 9 C-4.69 9 -2.38 9 0 9 C-0.33 8.67 -0.66 8.34 -1 8 C-2.32 8 -3.64 8 -5 8 C-5.99 7.67 -6.98 7.34 -8 7 C-8 5.02 -8 3.04 -8 1 C-5.525 1.495 -5.525 1.495 -3 2 C-3 2.66 -3 3.32 -3 4 C-2.34 3.67 -1.68 3.34 -1 3 C-0.67 2.01 -0.34 1.02 0 0 Z " fill="#A9A9A9" transform="translate(53,77)"/>
<path d="M0 0 C2.93756119 -0.0269501 5.87487555 -0.04681474 8.8125 -0.0625 C9.64587891 -0.07087891 10.47925781 -0.07925781 11.33789062 -0.08789062 C12.14033203 -0.09111328 12.94277344 -0.09433594 13.76953125 -0.09765625 C14.87711792 -0.10551147 14.87711792 -0.10551147 16.00708008 -0.11352539 C18 0 18 0 21 1 C21 1.66 21 2.32 21 3 C24.60992379 2.34414811 24.60992379 2.34414811 28 1 C26.69658383 4.91024852 25.51893809 5.84554811 22 8 C16.98269621 9.07925582 11.97145631 9.49143689 7 8 C8.1875 6 8.1875 6 10 4 C12.6875 3.75 12.6875 3.75 15 4 C15.33 4.66 15.66 5.32 16 6 C16.33 4.35 16.66 2.7 17 1 C15.01980257 1.47488898 13.04086365 1.95502859 11.0625 2.4375 C9.96035156 2.70433594 8.85820313 2.97117187 7.72265625 3.24609375 C5.10578746 3.72995725 5.10578746 3.72995725 4 5 C2.00041636 5.04080783 -0.00045254 5.04254356 -2 5 C-1.67 4.360625 -1.34 3.72125 -1 3.0625 C0.07271225 1.23205433 0.07271225 1.23205433 0 0 Z " fill="#A8A8A8" transform="translate(49,106)"/>
<path d="M0 0 C2 1 2 1 5 3 C5 5 5 5 3.5 6.625 C3.005 7.07875 2.51 7.5325 2 8 C1.34 7.67 0.68 7.34 0 7 C-0.99 7 -1.98 7 -3 7 C-3 8.32 -3 9.64 -3 11 C-4.91070654 14.05713046 -7.32861283 16.58713417 -10 19 C-10.66 19 -11.32 19 -12 19 C-12.25 13.375 -12.25 13.375 -10 10 C-9.67 9.34 -9.34 8.68 -9 8 C-7.88205685 6.96891459 -6.73183225 5.97241767 -5.5625 5 C-3.62370062 3.38096085 -1.78795167 1.78795167 0 0 Z " fill="#8E8E8E" transform="translate(24,17)"/>
<path d="M0 0 C0.103125 0.639375 0.20625 1.27875 0.3125 1.9375 C0.539375 2.618125 0.76625 3.29875 1 4 C1.99 4.33 2.98 4.66 4 5 C4.66015625 6.92578125 4.66015625 6.92578125 5.0625 9.3125 C5.63025418 12.5838455 6.51020566 15.04544988 8 18 C7.8125 20.1875 7.8125 20.1875 7 22 C6.01 22.33 5.02 22.66 4 23 C0.71221548 20.42695125 0.51358622 18.02309208 0 14 C-0.33 13.34 -0.66 12.68 -1 12 C-1.26470588 3.79411765 -1.26470588 3.79411765 0 0 Z " fill="#737373" transform="translate(5,62)"/>
<path d="M0 0 C8.73896464 0.45994551 15.40615558 6.02735892 21.125 12.1875 C25 16.55190311 25 16.55190311 25 20 C24.34 20 23.68 20 23 20 C22.401875 19.01 21.80375 18.02 21.1875 17 C20.465625 16.01 19.74375 15.02 19 14 C16.3295947 13.49758678 16.3295947 13.49758678 14 14 C13.608125 12.906875 13.21625 11.81375 12.8125 10.6875 C11.24061073 7.0515879 9.73811355 5.56479172 6 4 C2.80604974 3.28598768 2.80604974 3.28598768 0 3 C0 2.01 0 1.02 0 0 Z " fill="#484848" transform="translate(74,12)"/>
<path d="M0 0 C3.15140423 0.34069235 4.60781561 0.58076841 6.8125 2.9375 C8 5 8 5 8 7 C8.66 7 9.32 7 10 7 C10.33 6.34 10.66 5.68 11 5 C12.04008202 7.03192836 13.0563611 9.07605198 14.0625 11.125 C14.63097656 12.26195312 15.19945313 13.39890625 15.78515625 14.5703125 C17.10487196 18.2960694 17.0024611 20.23074628 16 24 C15.01 24 14.02 24 13 24 C13.25007813 23.31035156 13.50015625 22.62070312 13.7578125 21.91015625 C14.0984475 17.81704216 12.20817282 15.58583414 9.875 12.4375 C9.483125 11.87353516 9.09125 11.30957031 8.6875 10.72851562 C6.15327185 7.18804982 3.4032988 4.67056009 0 2 C0 1.34 0 0.68 0 0 Z " fill="#B1B1B1" transform="translate(89,25)"/>
<path d="M0 0 C0.66 0 1.32 0 2 0 C2 0.99 2 1.98 2 3 C2.99 2.67 3.98 2.34 5 2 C5.66 4.31 6.32 6.62 7 9 C6.01 9.33 5.02 9.66 4 10 C4.66 11.65 5.32 13.3 6 15 C5.01 15 4.02 15 3 15 C2.13372601 13.40233897 1.28233535 11.79660056 0.4375 10.1875 C-0.03816406 9.29417969 -0.51382813 8.40085937 -1.00390625 7.48046875 C-2 5 -2 5 -1 2 C-0.67 1.34 -0.34 0.68 0 0 Z " fill="#A9A9A9" transform="translate(55,59)"/>
<path d="M0 0 C0.061875 0.556875 0.12375 1.11375 0.1875 1.6875 C1.39432103 5.12229832 3.17912191 6.73103284 6 9 C9.68441504 9.88527109 9.68441504 9.88527109 13 10 C13 10.99 13 11.98 13 13 C13.66 13 14.32 13 15 13 C15 13.66 15 14.32 15 15 C7.07036305 13.55824783 2.52421512 12.53390117 -2.1875 5.9375 C-4 3 -4 3 -4 1 C-2.68 0.67 -1.36 0.34 0 0 Z " fill="#434343" transform="translate(22,96)"/>
<path d="M0 0 C0.99 0.33 1.98 0.66 3 1 C3 2.32 3 3.64 3 5 C4.32 4.01 5.64 3.02 7 2 C7.66 3.32 8.32 4.64 9 6 C9.99 6 10.98 6 12 6 C11.01 7.485 11.01 7.485 10 9 C9.34 9 8.68 9 8 9 C8 8.34 8 7.68 8 7 C7.505 7.556875 7.01 8.11375 6.5 8.6875 C4 10 4 10 1.953125 9.53125 C-0.07086761 8.75610389 -2.04126866 7.92706944 -4 7 C-3.30621489 3.73988358 -2.54106009 2.20961747 0 0 Z " fill="#A8A8A8" transform="translate(68,20)"/>
<path d="M0 0 C1.32 0 2.64 0 4 0 C3.67 2.64 3.34 5.28 3 8 C2.67 8 2.34 8 2 8 C1.7763932 10.9254644 1.7763932 10.9254644 3 13 C3.33 11.68 3.66 10.36 4 9 C4.33 10.65 4.66 12.3 5 14 C3.02 14 1.04 14 -1 14 C-1 12.68 -1 11.36 -1 10 C-1.66 11.32 -2.32 12.64 -3 14 C-3.99 13.67 -4.98 13.34 -6 13 C-5.67 12.01 -5.34 11.02 -5 10 C-5 10.66 -5 11.32 -5 12 C-4.34 12 -3.68 12 -3 12 C-3.66 10.35 -4.32 8.7 -5 7 C-4.54625 6.5875 -4.0925 6.175 -3.625 5.75 C-1.94049626 3.93591905 -1.00734029 2.24714373 0 0 Z " fill="#BCBCBC" transform="translate(42,62)"/>
<path d="M0 0 C2.64 0 5.28 0 8 0 C8.66 1.65 9.32 3.3 10 5 C8 7 8 7 4.5 7.25 C1 7 1 7 -1 5 C-0.625 2.375 -0.625 2.375 0 0 Z " fill="#929292" transform="translate(59,78)"/>
<path d="M0 0 C2.15229884 3.22844826 2.60309873 5.18974777 3 9 C2.67 9.99 2.34 10.98 2 12 C1.34 12 0.68 12 0 12 C0 12.66 0 13.32 0 14 C-0.66 14 -1.32 14 -2 14 C-2.0825 15.19625 -2.165 16.3925 -2.25 17.625 C-2.7767929 22.04377027 -4.29865987 24.51439983 -7 28 C-7.99 27.67 -8.98 27.34 -10 27 C-9.2575 26.113125 -8.515 25.22625 -7.75 24.3125 C-2.80855619 17.41974741 -0.77751185 8.35825237 0 0 Z " fill="#BFBFBF" transform="translate(103,65)"/>
<path d="M0 0 C-1.75 5.75 -1.75 5.75 -4 8 C-6.625 8.125 -6.625 8.125 -9 8 C-9.75 6.25 -9.75 6.25 -10 4 C-8.15254892 1.60515601 -6.70969118 0.27135251 -3.875 -0.8125 C-2 -1 -2 -1 0 0 Z " fill="#C2C2C2" transform="translate(70,95)"/>
<path d="M0 0 C0.66 0 1.32 0 2 0 C1.42655063 2.86724686 1.1385485 3.8614515 -1 6 C-3.625 6.125 -3.625 6.125 -6 6 C-6 5.34 -6 4.68 -6 4 C-7.2065625 3.814375 -7.2065625 3.814375 -8.4375 3.625 C-9.283125 3.41875 -10.12875 3.2125 -11 3 C-11.33 2.34 -11.66 1.68 -12 1 C-10.56496445 0.63597631 -9.12683494 0.28413409 -7.6875 -0.0625 C-6.88699219 -0.25972656 -6.08648437 -0.45695312 -5.26171875 -0.66015625 C-3 -1 -3 -1 0 0 Z " fill="#ADADAD" transform="translate(40,48)"/>
<path d="M0 0 C-1.26645221 3.94007353 -3.69239064 5.24711685 -7.26171875 7.109375 C-8.12216797 7.55023438 -8.12216797 7.55023438 -9 8 C-9.721875 8.45375 -10.44375 8.9075 -11.1875 9.375 C-13 10 -13 10 -15.25 9.125 C-15.8275 8.75375 -16.405 8.3825 -17 8 C-16.195625 7.731875 -15.39125 7.46375 -14.5625 7.1875 C-13.716875 6.795625 -12.87125 6.40375 -12 6 C-11.67 5.01 -11.34 4.02 -11 3 C-9.0625 2.25 -9.0625 2.25 -7 2 C-6.34 2.33 -5.68 2.66 -5 3 C-5 2.34 -5 1.68 -5 1 C-2 0 -2 0 0 0 Z " fill="#282828" transform="translate(88,103)"/>
<path d="M0 0 C4.95 0.99 4.95 0.99 10 2 C10 2.99 10 3.98 10 5 C3.375 7 3.375 7 0 7 C0 4.69 0 2.38 0 0 Z " fill="#4A4A4A" transform="translate(57,49)"/>
<path d="M0 0 C0 0.66 0 1.32 0 2 C1.65 1.67 3.3 1.34 5 1 C5.33 2.65 5.66 4.3 6 6 C5.38511719 5.83242187 4.77023438 5.66484375 4.13671875 5.4921875 C3.32847656 5.28851562 2.52023438 5.08484375 1.6875 4.875 C0.88699219 4.66617187 0.08648437 4.45734375 -0.73828125 4.2421875 C-3.28207233 3.72572666 -3.28207233 3.72572666 -6 6 C-6.99 6 -7.98 6 -9 6 C-9 4.02 -9 2.04 -9 0 C-5.93109813 -1.53445094 -3.29905734 -0.54984289 0 0 Z " fill="#464646" transform="translate(67,7)"/>
<path d="M0 0 C1.32 0.66 2.64 1.32 4 2 C4.1875 4.875 4.1875 4.875 4 8 C3.01 8.66 2.02 9.32 1 10 C-1.28773145 8.18887927 -1.95209822 7.39279457 -2.3125 4.4375 C-2 2 -2 2 0 0 Z " fill="#929292" transform="translate(94,52)"/>
<path d="M0 0 C-0.33 0.99 -0.66 1.98 -1 3 C-3.0625 3.6875 -3.0625 3.6875 -5 4 C-3.02 4.66 -1.04 5.32 1 6 C1 6.33 1 6.66 1 7 C-0.43739513 7.02712066 -1.87493863 7.04645067 -3.3125 7.0625 C-4.51326172 7.07990234 -4.51326172 7.07990234 -5.73828125 7.09765625 C-8 7 -8 7 -11 6 C-11 5.34 -11 4.68 -11 4 C-9.35546875 2.67578125 -9.35546875 2.67578125 -7.1875 1.3125 C-6.47980469 0.85488281 -5.77210937 0.39726563 -5.04296875 -0.07421875 C-3 -1 -3 -1 0 0 Z " fill="#626262" transform="translate(50,107)"/>
<path d="M0 0 C0.66 0 1.32 0 2 0 C2 1.65 2 3.3 2 5 C3.98 5.66 5.96 6.32 8 7 C8 7.66 8 8.32 8 9 C8.99 9.33 9.98 9.66 11 10 C11 10.33 11 10.66 11 11 C3.78846154 11.48076923 3.78846154 11.48076923 0.4375 9.4375 C-1.58093918 6.01492921 -0.87061285 3.77265569 0 0 Z " fill="#4B4B4B" transform="translate(57,78)"/>
<path d="M0 0 C0.66 0 1.32 0 2 0 C3.95031692 4.07723734 4.21581971 7.31692422 4.125 11.8125 C4.10695313 12.97394531 4.08890625 14.13539062 4.0703125 15.33203125 C4.04710938 16.21246094 4.02390625 17.09289062 4 18 C3.34 18 2.68 18 2 18 C2 14.04 2 10.08 2 6 C0.68 5.34 -0.64 4.68 -2 4 C-1.34 4 -0.68 4 0 4 C0 2.68 0 1.36 0 0 Z " fill="#737373" transform="translate(105,45)"/>
<path d="M0 0 C6.92307692 5.53846154 6.92307692 5.53846154 9 9 C9 9.99 9 10.98 9 12 C8.34 12 7.68 12 7 12 C6.1028125 10.515 6.1028125 10.515 5.1875 9 C4.465625 8.01 3.74375 7.02 3 6 C0.3295947 5.49758678 0.3295947 5.49758678 -2 6 C-2.33 5.34 -2.66 4.68 -3 4 C-2.01 2.68 -1.02 1.36 0 0 Z " fill="#4E4E4E" transform="translate(90,20)"/>
<path d="M0 0 C0.25181672 3.02180062 0.26307298 4.5814748 -1.375 7.1875 C-2.54560196 8.49317142 -3.76002282 9.76002282 -5 11 C-7.625 11.125 -7.625 11.125 -10 11 C-9.06558465 9.72689688 -8.12732889 8.456612 -7.1875 7.1875 C-6.66542969 6.47980469 -6.14335938 5.77210937 -5.60546875 5.04296875 C-1.64244742 0 -1.64244742 0 0 0 Z " fill="#838383" transform="translate(93,93)"/>
<path d="M0 0 C0.99 0.33 1.98 0.66 3 1 C3 2.32 3 3.64 3 5 C-1.16138263 5.08159574 -4.9472484 4.98248524 -9 4 C-9 3.01 -9 2.02 -9 1 C-7.88625 1.020625 -6.7725 1.04125 -5.625 1.0625 C-2.16784079 1.26380718 -2.16784079 1.26380718 0 0 Z " fill="#7E7E7E" transform="translate(55,85)"/>
<path d="M0 0 C0.56847656 0.40992187 1.13695313 0.81984375 1.72265625 1.2421875 C6.43455739 4.53029214 10.37025993 6.80218296 16 8 C15.67 9.32 15.34 10.64 15 12 C14.34 11.67 13.68 11.34 13 11 C13 10.01 13 9.02 13 8 C11.948125 8.0825 10.89625 8.165 9.8125 8.25 C5.40843693 7.96120898 3.99232337 7.16834239 1 4 C0.3671875 1.859375 0.3671875 1.859375 0 0 Z " fill="#959595" transform="translate(22,98)"/>
<path d="M0 0 C1.65 0 3.3 0 5 0 C4.01 0.495 4.01 0.495 3 1 C3.7734375 2.2684375 3.7734375 2.2684375 4.5625 3.5625 C6.24562656 7.58736786 5.92352855 9.80214298 5 14 C3.68 14 2.36 14 1 14 C0.67 13.34 0.34 12.68 0 12 C0.33 11.01 0.66 10.02 1 9 C1.3053818 4.345203 1.3053818 4.345203 0 0 Z " fill="#BCBCBC" transform="translate(30,62)"/>
<path d="M0 0 C0.66 0.33 1.32 0.66 2 1 C2 1.66 2 2.32 2 3 C3.051875 3.1546875 3.051875 3.1546875 4.125 3.3125 C7.39137647 4.09359003 10.0471852 5.42058743 13 7 C12.01 7.495 12.01 7.495 11 8 C8.74023451 7.1043974 6.5720641 6.15517767 4.375 5.125 C-0.79729511 2.78771191 -5.30273819 1.22789047 -11 1 C-7.22482858 -1.56711656 -4.33016827 -0.88207131 0 0 Z " fill="#C9C9C9" transform="translate(71,13)"/>
<path d="M0 0 C0 0.99 0 1.98 0 3 C-0.9075 3.103125 -1.815 3.20625 -2.75 3.3125 C-5.97754832 3.74668979 -5.97754832 3.74668979 -8 5.5625 C-10.71509367 7.51397357 -12.73898222 7.22234212 -16 7 C-15.01 6.67 -14.02 6.34 -13 6 C-13 5.34 -13 4.68 -13 4 C-11.40233897 3.13372601 -9.79660056 2.28233535 -8.1875 1.4375 C-7.29417969 0.96183594 -6.40085937 0.48617187 -5.48046875 -0.00390625 C-3 -1 -3 -1 0 0 Z " fill="#D3D3D3" transform="translate(83,103)"/>
<path d="M0 0 C3.63 0.66 7.26 1.32 11 2 C11.33 1.34 11.66 0.68 12 0 C12 0.66 12 1.32 12 2 C12.66 2.33 13.32 2.66 14 3 C10.6853333 5.02907167 8.5684021 5.12742133 4.75 4.625 C3.85796875 4.51414062 2.9659375 4.40328125 2.046875 4.2890625 C1.03367187 4.14597656 1.03367187 4.14597656 0 4 C0 2.68 0 1.36 0 0 Z " fill="#B6B6B6" transform="translate(65,72)"/>
<path d="M0 0 C2.0625 0.4375 2.0625 0.4375 4 1 C4.33 2.98 4.66 4.96 5 7 C3.02 7.99 3.02 7.99 1 9 C-1.14809171 5.77786243 -1.29386153 4.72224599 -1 1 C-0.67 0.67 -0.34 0.34 0 0 Z " fill="#939393" transform="translate(91,42)"/>
<path d="M0 0 C0.66 0.99 1.32 1.98 2 3 C1.67 3.66 1.34 4.32 1 5 C0.9310528 6.37342831 0.91532292 7.75002102 0.9375 9.125 C0.958125 10.40375 0.97875 11.6825 1 13 C-0.32 13 -1.64 13 -3 13 C-3.33 10.03 -3.66 7.06 -4 4 C-2.68 3.67 -1.36 3.34 0 3 C0 2.01 0 1.02 0 0 Z " fill="#888888" transform="translate(7,53)"/>
<path d="M0 0 C2.31 0.66 4.62 1.32 7 2 C6.67 3.65 6.34 5.3 6 7 C4.02 7.66 2.04 8.32 0 9 C0 6.03 0 3.06 0 0 Z " fill="#454545" transform="translate(3,48)"/>
<path d="M0 0 C0.33 0.99 0.66 1.98 1 3 C-2 6 -5 9 -8 12 C-8.66 11.67 -9.32 11.34 -10 11 C-9.525625 10.608125 -9.05125 10.21625 -8.5625 9.8125 C-6.64820367 7.59191626 -6.38733012 5.86624291 -6 3 C-4.02 2.67 -2.04 2.34 0 2 C0 1.34 0 0.68 0 0 Z " fill="#4B4B4B" transform="translate(99,90)"/>
<path d="M0 0 C1.32 1.32 2.64 2.64 4 4 C2.93453047 6.13093906 1.70840281 7.36587557 0 9 C-1.32 7.02 -2.64 5.04 -4 3 C-3 1 -3 1 0 0 Z " fill="#8E8E8E" transform="translate(21,79)"/>
<path d="M0 0 C0 3.51716303 -0.82445585 4.37121748 -3 7 C-2.34 7 -1.68 7 -1 7 C-1 7.66 -1 8.32 -1 9 C-3.97 8.505 -3.97 8.505 -7 8 C-6.34 5.69 -5.68 3.38 -5 1 C-3.35 0.67 -1.7 0.34 0 0 Z " fill="#6B6B6B" transform="translate(97,69)"/>
<path d="M0 0 C0.66 0.33 1.32 0.66 2 1 C1 4 1 4 -1.1796875 5.16796875 C-2.06914063 5.50441406 -2.95859375 5.84085938 -3.875 6.1875 C-4.75929688 6.53167969 -5.64359375 6.87585938 -6.5546875 7.23046875 C-9 8 -9 8 -12 8 C-8.2646504 3.81188075 -5.22578394 1.77479455 0 0 Z " fill="#C2C2C2" transform="translate(40,12)"/>
<path d="M0 0 C1.32 0.99 2.64 1.98 4 3 C3.67 4.32 3.34 5.64 3 7 C0.625 6.75 0.625 6.75 -2 6 C-3.3125 3.9375 -3.3125 3.9375 -4 2 C-2.68 1.34 -1.36 0.68 0 0 Z " fill="#888888" transform="translate(26,86)"/>
<path d="M0 0 C0.99 0 1.98 0 3 0 C3 1.98 3 3.96 3 6 C2.67 5.01 2.34 4.02 2 3 C-0.31 3.33 -2.62 3.66 -5 4 C-5 4.66 -5 5.32 -5 6 C-6.98 6.33 -8.96 6.66 -11 7 C-11 6.01 -11 5.02 -11 4 C-9.68 4 -8.36 4 -7 4 C-7 3.34 -7 2.68 -7 2 C-3.535 1.505 -3.535 1.505 0 1 C0 0.67 0 0.34 0 0 Z " fill="#A5A5A5" transform="translate(55,7)"/>
<path d="M0 0 C2 0 2 0 4.1875 1.75 C6 4 6 4 5.9375 6.1875 C5 8 5 8 2 9 C0.4375 7.875 0.4375 7.875 -1 6 C-0.6875 2.8125 -0.6875 2.8125 0 0 Z " fill="#323232" transform="translate(7,76)"/>
<path d="M0 0 C3.28788824 3.11016455 5.83735988 6.01618925 8 10 C7.01 10.66 6.02 11.32 5 12 C5 11.01 5 10.02 5 9 C4.360625 8.814375 3.72125 8.62875 3.0625 8.4375 C1 7 1 7 0.25 3.375 C0.1675 2.26125 0.085 1.1475 0 0 Z " fill="#8C8C8C" transform="translate(15,86)"/>
<path d="M0 0 C1.51400391 0.01740234 1.51400391 0.01740234 3.05859375 0.03515625 C4.07050781 0.04417969 5.08242187 0.05320313 6.125 0.0625 C7.29869141 0.07990234 7.29869141 0.07990234 8.49609375 0.09765625 C8.49609375 1.74765625 8.49609375 3.39765625 8.49609375 5.09765625 C7.83609375 5.09765625 7.17609375 5.09765625 6.49609375 5.09765625 C6.49609375 4.43765625 6.49609375 3.77765625 6.49609375 3.09765625 C1.84556503 2.82833104 1.84556503 2.82833104 -2.50390625 4.09765625 C-2.83390625 3.10765625 -3.16390625 2.11765625 -3.50390625 1.09765625 C-2.50390625 0.09765625 -2.50390625 0.09765625 0 0 Z " fill="#B2B2B2" transform="translate(70.50390625,61.90234375)"/>
<path d="M0 0 C0.309375 0.61875 0.61875 1.2375 0.9375 1.875 C4.04517188 5.07684376 7.70403806 5.31552808 12 6 C12 6.66 12 7.32 12 8 C11.34 8 10.68 8 10 8 C9.67 8.99 9.34 9.98 9 11 C9 9.68 9 8.36 9 7 C8.01 7.495 8.01 7.495 7 8 C6.67 8.99 6.34 9.98 6 11 C5.401875 10.236875 4.80375 9.47375 4.1875 8.6875 C2.53040668 6.6516425 0.89702326 4.8021721 -1 3 C-0.67 2.01 -0.34 1.02 0 0 Z " fill="#C5C5C5" transform="translate(43,50)"/>
<path d="M0 0 C0.66 0 1.32 0 2 0 C2 1.32 2 2.64 2 4 C3.32 4 4.64 4 6 4 C6.33 3.01 6.66 2.02 7 1 C7 4.96 7 8.92 7 13 C6.67 13 6.34 13 6 13 C6 11.02 6 9.04 6 7 C2.7 6.34 -0.6 5.68 -4 5 C-3.34 4.34 -2.68 3.68 -2 3 C-1.34 3 -0.68 3 0 3 C0 2.01 0 1.02 0 0 Z " fill="#878787" transform="translate(48,42)"/>
<path d="M0 0 C1.32 0.33 2.64 0.66 4 1 C3.67 3.31 3.34 5.62 3 8 C2.34 8 1.68 8 1 8 C1 9.65 1 11.3 1 13 C0.67 13 0.34 13 0 13 C0 8.71 0 4.42 0 0 Z " fill="#A6A6A6" transform="translate(54,30)"/>
<path d="M0 0 C1.67542976 0.28604898 3.34385343 0.61781233 5 1 C5.33 1.99 5.66 2.98 6 4 C5.67 4.66 5.34 5.32 5 6 C3.35 5.67 1.7 5.34 0 5 C-0.5625 3.0625 -0.5625 3.0625 -1 1 C-0.67 0.67 -0.34 0.34 0 0 Z " fill="#9C9C9C" transform="translate(34,94)"/>
<path d="M0 0 C0.103125 0.5775 0.20625 1.155 0.3125 1.75 C0.88521263 4.11051916 0.88521263 4.11051916 2.625 6.0625 C3.07875 6.701875 3.5325 7.34125 4 8 C3.67 8.99 3.34 9.98 3 11 C0 10 0 10 -1.0625 8.25 C-2.06580489 5.84206827 -3.05450633 3.43126943 -4 1 C-2.68 0.67 -1.36 0.34 0 0 Z " fill="#3C3C3C" transform="translate(22,96)"/>
<path d="M0 0 C-0.66 2.31 -1.32 4.62 -2 7 C-2.66 7 -3.32 7 -4 7 C-4.28875 6.38125 -4.5775 5.7625 -4.875 5.125 C-5.93720042 2.86674235 -5.93720042 2.86674235 -8 1 C-4.93251126 -0.86240388 -3.40254489 -1.2151946 0 0 Z " fill="#A7A7A7" transform="translate(64,56)"/>
<path d="M0 0 C3.15140423 0.34069235 4.60781561 0.58076841 6.8125 2.9375 C8 5 8 5 8 7 C8.66 7 9.32 7 10 7 C10.33 6.34 10.66 5.68 11 5 C11 5.99 11 6.98 11 8 C5.95575532 7.55491959 3.55556591 5.39019075 0 2 C0 1.34 0 0.68 0 0 Z " fill="#878787" transform="translate(89,25)"/>
<path d="M0 0 C2.97 0.33 5.94 0.66 9 1 C6.12835434 3.70272533 4.69008159 4.94791837 0.6875 5.25 C-0.199375 5.1675 -1.08625 5.085 -2 5 C-1.67 4.360625 -1.34 3.72125 -1 3.0625 C0.07271225 1.23205433 0.07271225 1.23205433 0 0 Z " fill="#BCBCBC" transform="translate(49,106)"/>
<path d="M0 0 C2.7053871 4.05808065 5 8.04889399 5 13 C3.35 12.01 1.7 11.02 0 10 C0.20625 9.4225 0.4125 8.845 0.625 8.25 C1.08979923 5.46120465 0.29883111 4.43530833 -1 2 C-0.67 1.34 -0.34 0.68 0 0 Z " fill="#BEBEBE" transform="translate(51,64)"/>
<path d="M0 0 C0.33 0 0.66 0 1 0 C1 3.3 1 6.6 1 10 C1.99 9.67 2.98 9.34 4 9 C4.33 8.01 4.66 7.02 5 6 C5.66 6.33 6.32 6.66 7 7 C6.6875 8.875 6.6875 8.875 6 11 C3 13 3 13 0 13 C0 8.71 0 4.42 0 0 Z " fill="#838383" transform="translate(57,36)"/>
<path d="M0 0 C-1 3 -1 3 -3.4375 4.75 C-4.7059375 5.36875 -4.7059375 5.36875 -6 6 C-6.66 5.67 -7.32 5.34 -8 5 C-8 4.01 -8 3.02 -8 2 C-3.71900826 -1.23966942 -3.71900826 -1.23966942 0 0 Z " fill="#9D9D9D" transform="translate(49,38)"/>
<path d="M0 0 C0 3.57575896 -1.08840607 5.05295935 -3 8 C-5.4375 7.25 -5.4375 7.25 -8 6 C-8.8125 3.875 -8.8125 3.875 -9 2 C-7.68 1.67 -6.36 1.34 -5 1 C-5 2.32 -5 3.64 -5 5 C-3.35 3.35 -1.7 1.7 0 0 Z " fill="#636363" transform="translate(17,31)"/>
<path d="M0 0 C1.32 1.65 2.64 3.3 4 5 C1.69 5.33 -0.62 5.66 -3 6 C-3.33 4.68 -3.66 3.36 -4 2 C-2.68 1.34 -1.36 0.68 0 0 Z " fill="#888888" transform="translate(72,95)"/>
<path d="M0 0 C1.38228901 3.14156592 0.91178547 4.23943945 -0.3125 7.5625 C-2 11 -2 11 -4 14 C-4.99 13.67 -5.98 13.34 -7 13 C-6.21625 11.96875 -5.4325 10.9375 -4.625 9.875 C-2.35603148 6.71901262 -1.01464129 3.78184481 0 0 Z " fill="#B7B7B7" transform="translate(100,79)"/>
<path d="M0 0 C3.24208567 0.35049575 4.61527704 0.56221181 6.8125 3.0625 C7.204375 3.701875 7.59625 4.34125 8 5 C6.68 4.34 5.36 3.68 4 3 C3.01 4.32 2.02 5.64 1 7 C0.34 6.67 -0.32 6.34 -1 6 C-0.67 4.02 -0.34 2.04 0 0 Z " fill="#919191" transform="translate(66,45)"/>
<path d="M0 0 C2.97 0 5.94 0 9 0 C7.80702902 2.38594197 6.85642735 2.83734847 4.5625 4.125 C3.94503906 4.47820312 3.32757813 4.83140625 2.69140625 5.1953125 C1 6 1 6 -1 6 C-0.67 4.02 -0.34 2.04 0 0 Z " fill="#C0C0C0" transform="translate(38,106)"/>
<path d="M0 0 C0.99 0 1.98 0 3 0 C3.625 1.875 3.625 1.875 4 4 C2 6 2 6 -1.625 6.125 C-2.73875 6.08375 -3.8525 6.0425 -5 6 C-3 3 -3 3 0 2 C0 1.34 0 0.68 0 0 Z " fill="#B0B0B0" transform="translate(65,79)"/>
<path d="M0 0 C0.99 0 1.98 0 3 0 C4.27253436 3.64793184 5.32829194 7.1936543 6 11 C5.34 11 4.68 11 4 11 C3.32591692 9.73308493 2.66099503 8.46129251 2 7.1875 C1.62875 6.47980469 1.2575 5.77210937 0.875 5.04296875 C0 3 0 3 0 0 Z " fill="#7C7C7C" transform="translate(33,63)"/>
<path d="M0 0 C0.763125 0.0825 1.52625 0.165 2.3125 0.25 C2.3125 1.9 2.3125 3.55 2.3125 5.25 C-0.3275 4.92 -2.9675 4.59 -5.6875 4.25 C-3.34903846 0.31153846 -3.34903846 0.31153846 0 0 Z " fill="#8E8E8E" transform="translate(61.6875,109.75)"/>
<path d="M0 0 C2 1.375 2 1.375 4 3 C4 3.66 4 4.32 4 5 C2.35 5 0.7 5 -1 5 C-1.33 5.99 -1.66 6.98 -2 8 C-2.66 6.35 -3.32 4.7 -4 3 C-2.68 2.67 -1.36 2.34 0 2 C0 1.34 0 0.68 0 0 Z " fill="#646464" transform="translate(79,91)"/>
<path d="M0 0 C1.32 0.33 2.64 0.66 4 1 C4 4.96 4 8.92 4 13 C3.67 13 3.34 13 3 13 C2.87625 11.906875 2.7525 10.81375 2.625 9.6875 C2.24535199 5.92618198 2.24535199 5.92618198 0 3 C0 2.01 0 1.02 0 0 Z " fill="#B1B1B1" transform="translate(103,50)"/>
<path d="M0 0 C1.32 1.32 2.64 2.64 4 4 C3.01 4.495 3.01 4.495 2 5 C2 5.66 2 6.32 2 7 C0.02 7 -1.96 7 -4 7 C-3.34 6.21625 -2.68 5.4325 -2 4.625 C0.20201441 2.28487188 0.20201441 2.28487188 0 0 Z " fill="#AAAAAA" transform="translate(63,43)"/>
<path d="M0 0 C1.22589844 0.01353516 1.22589844 0.01353516 2.4765625 0.02734375 C3.41628906 0.04474609 3.41628906 0.04474609 4.375 0.0625 C4.705 0.7225 5.035 1.3825 5.375 2.0625 C-0.565 2.5575 -0.565 2.5575 -6.625 3.0625 C-6.625 2.4025 -6.625 1.7425 -6.625 1.0625 C-4.21954362 -0.14022819 -2.67503047 -0.03821472 0 0 Z " fill="#595959" transform="translate(50.625,6.9375)"/>
<path d="M0 0 C4.7517398 0.43197635 6.92000054 1.32769295 10 5 C9.67 5.99 9.34 6.98 9 8 C7.88625 6.824375 7.88625 6.824375 6.75 5.625 C4.45566682 3.43495469 2.87841142 2.17268614 0 1 C0 0.67 0 0.34 0 0 Z " fill="#9A9A9A" transform="translate(77,16)"/>
<path d="M0 0 C1.65 0.33 3.3 0.66 5 1 C3.02 3.97 3.02 3.97 1 7 C0.01 6.67 -0.98 6.34 -2 6 C-1.34 4.02 -0.68 2.04 0 0 Z " fill="#2F2F2F" transform="translate(27,13)"/>
<path d="M0 0 C0.99 0.33 1.98 0.66 3 1 C3.84454356 4.37817425 4.10844919 6.67465243 3 10 C2.01 10 1.02 10 0 10 C0.185625 9.278125 0.37125 8.55625 0.5625 7.8125 C1.01995307 4.87173027 0.73516357 2.85896942 0 0 Z " fill="#9F9F9F" transform="translate(102,39)"/>
<path d="M0 0 C1.65 0.33 3.3 0.66 5 1 C4.67 2.65 4.34 4.3 4 6 C2.35 6 0.7 6 -1 6 C-1.33 5.34 -1.66 4.68 -2 4 C-1.01 4 -0.02 4 1 4 C0.34 3.67 -0.32 3.34 -1 3 C-0.67 2.01 -0.34 1.02 0 0 Z " fill="#7B7B7B" transform="translate(60,18)"/>
<path d="M0 0 C3 1 3 1 4.75 3.375 C6 6 6 6 5 9 C2.1997768 7.5998884 1.43223902 5.73427449 0 3 C0 2.01 0 1.02 0 0 Z " fill="#C0C0C0" transform="translate(55,66)"/>
<path d="M0 0 C0.66 0.99 1.32 1.98 2 3 C1.01 4.32 0.02 5.64 -1 7 C-1.99 6.67 -2.98 6.34 -4 6 C-2.25 1.125 -2.25 1.125 0 0 Z " fill="#B2B2B2" transform="translate(12,37)"/>
<path d="M0 0 C0.33 0.99 0.66 1.98 1 3 C1.99 3.33 2.98 3.66 4 4 C2.375 5.5625 2.375 5.5625 0 7 C-3.25 6.6875 -3.25 6.6875 -6 6 C-3 4 -3 4 -1 3 C-0.67 2.01 -0.34 1.02 0 0 Z " fill="#5D5D5D" transform="translate(77,106)"/>
<path d="M0 0 C0 3.52032428 -0.70351351 4.4385343 -3 7 C-3.66 7 -4.32 7 -5 7 C-5 5.02 -5 3.04 -5 1 C-4.01 1 -3.02 1 -2 1 C-1.34 0.67 -0.68 0.34 0 0 Z " fill="#A6A6A6" transform="translate(17,29)"/>
<path d="M0 0 C0.99 0.33 1.98 0.66 3 1 C2.67 2.98 2.34 4.96 2 7 C0.68 6.67 -0.64 6.34 -2 6 C-1.125 1.125 -1.125 1.125 0 0 Z " fill="#707070" transform="translate(89,79)"/>
<path d="M0 0 C2.35953094 2.35953094 2.49141413 3.77895617 3 7 C2.01 7.33 1.02 7.66 0 8 C-0.38063221 5.6739143 -0.71269945 3.33944736 -1 1 C-0.67 0.67 -0.34 0.34 0 0 Z " fill="#C1C1C1" transform="translate(59,61)"/>
<path d="M0 0 C0.33 0.99 0.66 1.98 1 3 C-0.25 4.5 -0.25 4.5 -2 6 C-3.32 6 -4.64 6 -6 6 C-6 5.34 -6 4.68 -6 4 C-4.03852126 2.61061923 -2.03833424 1.2739589 0 0 Z " fill="#BBBBBB" transform="translate(41,48)"/>
<path d="M0 0 C0.66 0 1.32 0 2 0 C2 2.31 2 4.62 2 7 C1.01 7.33 0.02 7.66 -1 8 C-1.125 2.25 -1.125 2.25 0 0 Z " fill="#4D4D4D" transform="translate(51,38)"/>
<path d="M0 0 C2.32590854 3.63423209 2.16265833 6.77088331 2 11 C1.67 10.01 1.34 9.02 1 8 C0.34 8 -0.32 8 -1 8 C-0.67 5.36 -0.34 2.72 0 0 Z " fill="#373737" transform="translate(5,62)"/>
<path d="M0 0 C1.65 0 3.3 0 5 0 C4.01 0.495 4.01 0.495 3 1 C3 2.98 3 4.96 3 7 C1.68 5.68 0.36 4.36 -1 3 C-0.67 2.01 -0.34 1.02 0 0 Z " fill="#636363" transform="translate(17,44)"/>
<path d="M0 0 C1.98 0 3.96 0 6 0 C5.67 1.98 5.34 3.96 5 6 C4.34 5.67 3.68 5.34 3 5 C3 4.34 3 3.68 3 3 C2.01 2.67 1.02 2.34 0 2 C0 1.34 0 0.68 0 0 Z " fill="#686868" transform="translate(85,36)"/>
<path d="M0 0 C0.93423645 3.01031744 1.04449911 3.86650268 0 7 C-1.32 6.34 -2.64 5.68 -4 5 C-2.25 1.125 -2.25 1.125 0 0 Z " fill="#7C7C7C" transform="translate(34,23)"/>
<path d="M0 0 C0.33 0.66 0.66 1.32 1 2 C0.01 3.32 -0.98 4.64 -2 6 C-2.99 5.67 -3.98 5.34 -5 5 C-4.1875 3.0625 -4.1875 3.0625 -3 1 C-2.01 0.67 -1.02 0.34 0 0 Z " fill="#BDBDBD" transform="translate(24,22)"/>
<path d="M0 0 C0 0.99 0 1.98 0 3 C-2.31 3 -4.62 3 -7 3 C-7 2.34 -7 1.68 -7 1 C-4.53721199 -0.231394 -2.7204945 -0.07159196 0 0 Z " fill="#D4D4D4" transform="translate(57,10)"/>
<path d="M0 0 C0.99 0.33 1.98 0.66 3 1 C3 1.99 3 2.98 3 4 C0.36 4 -2.28 4 -5 4 C-2.6875 1.9375 -2.6875 1.9375 0 0 Z " fill="#AEAEAE" transform="translate(80,102)"/>
<path d="M0 0 C0.33 0.99 0.66 1.98 1 3 C0.01 4.485 0.01 4.485 -1 6 C-1.99 6 -2.98 6 -4 6 C-4.33 5.01 -4.66 4.02 -5 3 C-3.35 2.67 -1.7 2.34 0 2 C0 1.34 0 0.68 0 0 Z " fill="#444444" transform="translate(99,90)"/>
<path d="M0 0 C0.33 0.66 0.66 1.32 1 2 C-1.64 2 -4.28 2 -7 2 C-7.33 1.34 -7.66 0.68 -8 0 C-4.69693408 -1.10102197 -3.28414305 -0.95067299 0 0 Z " fill="#A7A7A7" transform="translate(67,87)"/>
<path d="M0 0 C2.31 0.33 4.62 0.66 7 1 C7 1.66 7 2.32 7 3 C4.69 3 2.38 3 0 3 C0 2.01 0 1.02 0 0 Z " fill="#A8A8A8" transform="translate(46,86)"/>
<path d="M0 0 C4.455 0.99 4.455 0.99 9 2 C9 2.33 9 2.66 9 3 C4.545 3.495 4.545 3.495 0 4 C0 2.68 0 1.36 0 0 Z " fill="#A6A6A6" transform="translate(65,72)"/>
<path d="M0 0 C0.66 0.33 1.32 0.66 2 1 C2.625 4.0625 2.625 4.0625 3 7 C1.68 7 0.36 7 -1 7 C-1.33 6.34 -1.66 5.68 -2 5 C-1.0625 2.375 -1.0625 2.375 0 0 Z " fill="#B4B4B4" transform="translate(32,69)"/>
<path d="M0 0 C0.66 0.99 1.32 1.98 2 3 C1.67 3.99 1.34 4.98 1 6 C0.01 6.33 -0.98 6.66 -2 7 C-2 5.02 -2 3.04 -2 1 C-1.34 0.67 -0.68 0.34 0 0 Z " fill="#CECECE" transform="translate(10,42)"/>
<path d="M0 0 C0.99 0.33 1.98 0.66 3 1 C3 2.65 3 4.3 3 6 C2.67 5.34 2.34 4.68 2 4 C0.35 4.33 -1.3 4.66 -3 5 C-3 3 -3 3 -1.5 1.375 C-1.005 0.92125 -0.51 0.4675 0 0 Z " fill="#696969" transform="translate(68,20)"/>
<path d="M0 0 C2.0625 0.4375 2.0625 0.4375 4 1 C4 2.65 4 4.3 4 6 C3.67 5.34 3.34 4.68 3 4 C2.01 4 1.02 4 0 4 C-0.33 3.01 -0.66 2.02 -1 1 C-0.67 0.67 -0.34 0.34 0 0 Z " fill="#5A5A5A" transform="translate(11,84)"/>
<path d="M0 0 C0.99 0 1.98 0 3 0 C2.25 5.75 2.25 5.75 0 8 C0 5.36 0 2.72 0 0 Z " fill="#515151" transform="translate(102,80)"/>
<path d="M0 0 C1.98 0.495 1.98 0.495 4 1 C3.34 2.65 2.68 4.3 2 6 C1.01 6 0.02 6 -1 6 C-0.67 4.02 -0.34 2.04 0 0 Z " fill="#B3B3B3" transform="translate(91,79)"/>
<path d="M0 0 C1.32 0 2.64 0 4 0 C3.6875 1.9375 3.6875 1.9375 3 4 C2.01 4.33 1.02 4.66 0 5 C0 3.35 0 1.7 0 0 Z " fill="#101010" transform="translate(9,80)"/>
<path d="M0 0 C1.98 0.99 3.96 1.98 6 3 C6 3.66 6 4.32 6 5 C4.35 5.33 2.7 5.66 1 6 C0.67 4.02 0.34 2.04 0 0 Z " fill="#494949" transform="translate(15,73)"/>
<path d="M0 0 C3.465 1.485 3.465 1.485 7 3 C7 3.99 7 4.98 7 6 C5 6 5 6 3.5625 4.625 C3.046875 4.08875 2.53125 3.5525 2 3 C1.01 2.34 0.02 1.68 -1 1 C-0.67 0.67 -0.34 0.34 0 0 Z " fill="#5C5C5C" transform="translate(72,68)"/>
<path d="M0 0 C2.875 -0.1875 2.875 -0.1875 6 0 C6.66 0.99 7.32 1.98 8 3 C6.02 3 4.04 3 2 3 C2 2.34 2 1.68 2 1 C1.34 0.67 0.68 0.34 0 0 Z " fill="#ABABAB" transform="translate(45,47)"/>
<path d="M0 0 C1.32 0 2.64 0 4 0 C2.75023244 3.65316671 2.32901247 4.78065836 -1 7 C-0.67 4.69 -0.34 2.38 0 0 Z " fill="#707070" transform="translate(14,25)"/>
<path d="M0 0 C0.66 0 1.32 0 2 0 C2.66 0.99 3.32 1.98 4 3 C4.99 3.33 5.98 3.66 7 4 C5.02 4.66 3.04 5.32 1 6 C0.4465236 3.92446352 0 2.15634036 0 0 Z " fill="#8A8A8A" transform="translate(36,22)"/>
<path d="M0 0 C0.66 0.33 1.32 0.66 2 1 C-0.31 3.31 -2.62 5.62 -5 8 C-5.66 7.67 -6.32 7.34 -7 7 C-4.69 4.69 -2.38 2.38 0 0 Z " fill="#000000" transform="translate(95,98)"/>
<path d="M0 0 C2 1 2 1 2 1 Z " fill="#000000" transform="translate(37,113)"/>
<path d="M0 0 C2 1 2 1 2 1 Z " fill="#000000" transform="translate(32,111)"/>
<path d="M0 0 C2 1 2 1 2 1 Z " fill="#000000" transform="translate(30,110)"/>
<path d="M0 0 C2 1 2 1 2 1 Z " fill="#000000" transform="translate(82,109)"/>
<path d="" fill="#000000" transform="translate(0,0)"/>
<path d="" fill="#000000" transform="translate(0,0)"/>
<path d="" fill="#000000" transform="translate(0,0)"/>
<path d="" fill="#000000" transform="translate(0,0)"/>
<path d="" fill="#000000" transform="translate(0,0)"/>
<path d="" fill="#000000" transform="translate(0,0)"/>
<path d="" fill="#000000" transform="translate(0,0)"/>
<path d="" fill="#000000" transform="translate(0,0)"/>
<path d="M0 0 C2 1 2 1 2 1 Z " fill="#000000" transform="translate(87,16)"/>
<path d="M0 0 C2 1 2 1 2 1 Z " fill="#000000" transform="translate(85,15)"/>
<path d="" fill="#000000" transform="translate(0,0)"/>
<path d="" fill="#000000" transform="translate(0,0)"/>
<path d="" fill="#000000" transform="translate(0,0)"/>
<path d="" fill="#000000" transform="translate(0,0)"/>
<path d="" fill="#000000" transform="translate(0,0)"/>
<path d="" fill="#000000" transform="translate(0,0)"/>
<path d="" fill="#000000" transform="translate(0,0)"/>
<path d="" fill="#000000" transform="translate(0,0)"/>
<path d="" fill="#000000" transform="translate(0,0)"/>
<path d="" fill="#000000" transform="translate(0,0)"/>
<path d="" fill="#000000" transform="translate(0,0)"/>
<path d="" fill="#000000" transform="translate(0,0)"/>
<path d="" fill="#000000" transform="translate(0,0)"/>
<path d="" fill="#000000" transform="translate(0,0)"/>
<path d="" fill="#000000" transform="translate(0,0)"/>
<path d="" fill="#000000" transform="translate(0,0)"/>
<path d="" fill="#000000" transform="translate(0,0)"/>
<path d="" fill="#000000" transform="translate(0,0)"/>
<path d="" fill="#000000" transform="translate(0,0)"/>
<path d="" fill="#000000" transform="translate(0,0)"/>
<path d="" fill="#000000" transform="translate(0,0)"/>
<path d="" fill="#000000" transform="translate(0,0)"/>
<path d="" fill="#000000" transform="translate(0,0)"/>
<path d="" fill="#000000" transform="translate(0,0)"/>
<path d="" fill="#000000" transform="translate(0,0)"/>
<path d="" fill="#000000" transform="translate(0,0)"/>
<path d="" fill="#000000" transform="translate(0,0)"/>
<path d="" fill="#000000" transform="translate(0,0)"/>
<path d="" fill="#000000" transform="translate(0,0)"/>
<path d="" fill="#000000" transform="translate(0,0)"/>
<path d="" fill="#000000" transform="translate(0,0)"/>
<path d="" fill="#000000" transform="translate(0,0)"/>
<path d="" fill="#000000" transform="translate(0,0)"/>
<path d="" fill="#000000" transform="translate(0,0)"/>
<path d="" fill="#000000" transform="translate(0,0)"/>
<path d="" fill="#000000" transform="translate(0,0)"/>
<path d="" fill="#000000" transform="translate(0,0)"/>
<path d="" fill="#000000" transform="translate(0,0)"/>
<path d="" fill="#000000" transform="translate(0,0)"/>
<path d="" fill="#000000" transform="translate(0,0)"/>
<path d="" fill="#000000" transform="translate(0,0)"/>
<path d="" fill="#000000" transform="translate(0,0)"/>
<path d="" fill="#000000" transform="translate(0,0)"/>
<path d="" fill="#000000" transform="translate(0,0)"/>
<path d="" fill="#000000" transform="translate(0,0)"/>
<path d="" fill="#000000" transform="translate(0,0)"/>
<path d="" fill="#000000" transform="translate(0,0)"/>
<path d="" fill="#000000" transform="translate(0,0)"/>
<path d="" fill="#000000" transform="translate(0,0)"/>
<path d="" fill="#000000" transform="translate(0,0)"/>
<path d="" fill="#000000" transform="translate(0,0)"/>
<path d="" fill="#000000" transform="translate(0,0)"/>
<path d="" fill="#000000" transform="translate(0,0)"/>
<path d="" fill="#000000" transform="translate(0,0)"/>
<path d="" fill="#000000" transform="translate(0,0)"/>
<path d="" fill="#000000" transform="translate(0,0)"/>
<path d="" fill="#000000" transform="translate(0,0)"/>
<path d="" fill="#000000" transform="translate(0,0)"/>
<path d="" fill="#000000" transform="translate(0,0)"/>
<path d="" fill="#000000" transform="translate(0,0)"/>
<path d="" fill="#000000" transform="translate(0,0)"/>
<path d="" fill="#000000" transform="translate(0,0)"/>
<path d="" fill="#000000" transform="translate(0,0)"/>
<path d="" fill="#000000" transform="translate(0,0)"/>
<path d="" fill="#000000" transform="translate(0,0)"/>
<path d="" fill="#000000" transform="translate(0,0)"/>
<path d="" fill="#000000" transform="translate(0,0)"/>
<path d="" fill="#000000" transform="translate(0,0)"/>
<path d="" fill="#000000" transform="translate(0,0)"/>
<path d="" fill="#000000" transform="translate(0,0)"/>
<path d="" fill="#000000" transform="translate(0,0)"/>
</svg>
