<?xml version="1.0" encoding="UTF-8"?>
<svg version="1.1" xmlns="http://www.w3.org/2000/svg" width="34" height="34">
<path d="M0 0 C1 3 1 3 1.3125 5.5625 C1.6528125 6.7690625 1.6528125 6.7690625 2 8 C2.61875 8.28875 3.2375 8.5775 3.875 8.875 C7.29704435 10.68667054 7.83626726 13.44755268 9 17 C8.6875 19.4375 8.6875 19.4375 8 21 C6.88625 21.28875 5.7725 21.5775 4.625 21.875 C0.99708908 22.69241329 0.99708908 22.69241329 -1 25 C-4.29714793 24.67028521 -5.6226839 24.3773161 -8 22 C-10.31765729 21.28072705 -12.65095874 20.6090107 -15 20 C-14.32703961 16.1865578 -13.26852302 12.65633105 -12 9 C-11.5359375 7.4221875 -11.5359375 7.4221875 -11.0625 5.8125 C-8.76138649 -0.27868283 -6.35592292 -0.35976922 0 0 Z " fill="#12505A" transform="translate(20,4)"/>
<path d="M0 0 C1.1446875 0.3403125 1.1446875 0.3403125 2.3125 0.6875 C3 3 3 3 3.3125 5.6875 C2.1875 7.5625 2.1875 7.5625 0.3125 8.6875 C-2.375 8.375 -2.375 8.375 -4.6875 7.6875 C-5.375 5.375 -5.375 5.375 -5.6875 2.6875 C-4.0011022 -0.12316299 -3.27764429 -0.38112143 0 0 Z " fill="#13505A" transform="translate(26.6875,4.3125)"/>
</svg>
