<?xml version="1.0" encoding="UTF-8"?>
<svg version="1.1" xmlns="http://www.w3.org/2000/svg" width="24" height="24">
<path d="M0 0 C1.2065625 0.0309375 1.2065625 0.0309375 2.4375 0.0625 C2.7675 0.7225 3.0975 1.3825 3.4375 2.0625 C4.4275 2.0625 5.4175 2.0625 6.4375 2.0625 C8.4375 5.0625 8.4375 5.0625 8.4375 7.0625 C8.7675 7.3925 9.0975 7.7225 9.4375 8.0625 C9.47813832 9.72867115 9.480221 11.39638095 9.4375 13.0625 C8.4475 13.5575 8.4475 13.5575 7.4375 14.0625 C7.4375 15.0525 7.4375 16.0425 7.4375 17.0625 C4.4375 19.0625 4.4375 19.0625 2.4375 19.0625 C2.1075 19.3925 1.7775 19.7225 1.4375 20.0625 C-0.22867115 20.10313832 -1.89638095 20.105221 -3.5625 20.0625 C-3.8925 19.4025 -4.2225 18.7425 -4.5625 18.0625 C-5.5525 18.0625 -6.5425 18.0625 -7.5625 18.0625 C-9.5625 15.0625 -9.5625 15.0625 -9.5625 13.0625 C-9.8925 12.7325 -10.2225 12.4025 -10.5625 12.0625 C-10.60313832 10.39632885 -10.605221 8.72861905 -10.5625 7.0625 C-9.9025 6.7325 -9.2425 6.4025 -8.5625 6.0625 C-8.5625 5.0725 -8.5625 4.0825 -8.5625 3.0625 C-5.5625 1.0625 -5.5625 1.0625 -3.5625 1.0625 C-2.5625 0.0625 -2.5625 0.0625 0 0 Z M-0.5625 6.0625 C-1.8825 7.3825 -3.2025 8.7025 -4.5625 10.0625 C-3.2425 11.3825 -1.9225 12.7025 -0.5625 14.0625 C0.7575 12.7425 2.0775 11.4225 3.4375 10.0625 C2.1175 8.7425 0.7975 7.4225 -0.5625 6.0625 Z " fill="#68C4C4" transform="translate(12.5625,1.9375)"/>
</svg>
