<?xml version="1.0" encoding="UTF-8"?>
<svg version="1.1" xmlns="http://www.w3.org/2000/svg" width="226" height="108">
<path d="M0 0 C3.36939433 0.33693943 5.42910583 1.88819408 8 4 C8.33 3.01 8.66 2.02 9 1 C11.875 1.6875 11.875 1.6875 15 3 C16.375 5.625 16.375 5.625 17 8 C17.94875 7.95875 18.8975 7.9175 19.875 7.875 C23 8 23 8 25 10 C25.125 13.125 25.125 13.125 25 16 C25.804375 16.2475 26.60875 16.495 27.4375 16.75 C30 18 30 18 30.8125 19.875 C30.99203393 21.90971782 31 23.95737692 31 26 C31.6492959 27.34187818 32.31731862 28.67479497 33 30 C33.37668344 31.65740715 33.72057545 33.32345271 34 35 C32.68 35.66 31.36 36.32 30 37 C30.495 41.455 30.495 41.455 31 46 C30.21625 46.144375 29.4325 46.28875 28.625 46.4375 C26.03578982 46.87798925 26.03578982 46.87798925 24 48 C24.20625 48.598125 24.4125 49.19625 24.625 49.8125 C25 52 25 52 23 55 C19.875 55.6875 19.875 55.6875 17 56 C16.67 57.65 16.34 59.3 16 61 C15.37351563 60.90460938 14.74703125 60.80921875 14.1015625 60.7109375 C13.28429688 60.60007813 12.46703125 60.48921875 11.625 60.375 C10.81289063 60.25898437 10.00078125 60.14296875 9.1640625 60.0234375 C8.44992188 60.01570313 7.73578125 60.00796875 7 60 C6.34 60.66 5.68 61.32 5 62 C2.5625 62.8125 2.5625 62.8125 0 63 C-0.45375 62.505 -0.9075 62.01 -1.375 61.5 C-1.91125 61.005 -2.4475 60.51 -3 60 C-6.51745287 60.25248627 -6.51745287 60.25248627 -10 61 C-10.99 61 -11.98 61 -13 61 C-13.66 59.02 -14.32 57.04 -15 55 C-16.175625 55.061875 -16.175625 55.061875 -17.375 55.125 C-20 55 -20 55 -22 53 C-22.125 49.375 -22.125 49.375 -22 46 C-23.98 46.495 -23.98 46.495 -26 47 C-27.485 43.535 -27.485 43.535 -29 40 C-28.01 39.01 -27.02 38.02 -26 37 C-27.65 36.34 -29.3 35.68 -31 35 C-31 32.69 -31 30.38 -31 28 C-30.360625 27.87625 -29.72125 27.7525 -29.0625 27.625 C-28.381875 27.41875 -27.70125 27.2125 -27 27 C-26.67 26.34 -26.34 25.68 -26 25 C-26.66 24.67 -27.32 24.34 -28 24 C-28.3125 21.6875 -28.3125 21.6875 -28 19 C-27.175 18.54625 -26.35 18.0925 -25.5 17.625 C-24.675 17.08875 -23.85 16.5525 -23 16 C-22.66645597 12.41624258 -22.66645597 12.41624258 -23 9 C-22 8 -22 8 -18.4375 7.9375 C-17.303125 7.958125 -16.16875 7.97875 -15 8 C-14.690625 7.21625 -14.38125 6.4325 -14.0625 5.625 C-13 3 -13 3 -12 1 C-10.3603125 1.2475 -10.3603125 1.2475 -8.6875 1.5 C-5.12474127 2.06718184 -5.12474127 2.06718184 -2 2 C-1.34 1.34 -0.68 0.68 0 0 Z M-3 9 C-2 12 -2 12 -2 12 Z M6 9 C6.33 9.66 6.66 10.32 7 11 C7.66 10.67 8.32 10.34 9 10 C8.01 9.67 7.02 9.34 6 9 Z M-8 10 C-6.515 10.99 -6.515 10.99 -5 12 C-5 11.34 -5 10.68 -5 10 C-5.99 10 -6.98 10 -8 10 Z M-9 12 C-8.67 12.99 -8.34 13.98 -8 15 C-7.67 14.01 -7.34 13.02 -7 12 C-7.66 12 -8.32 12 -9 12 Z M6 13 C7 15 7 15 7 15 Z M-14 14 C-13 16 -13 16 -13 16 Z M-2 14 C-2 14.33 -2 14.66 -2 15 C0.31 15 2.62 15 5 15 C5 14.67 5 14.34 5 14 C2.69 14 0.38 14 -2 14 Z M14 14 C15 16 15 16 15 16 Z M11 16 C12 18 12 18 12 18 Z M-8 20 C-1.73 20 4.54 20 11 20 C6.91858096 16.93893572 6.24526617 16.58589066 1.5 16.625 C0.5615625 16.61726563 -0.376875 16.60953125 -1.34375 16.6015625 C-4.46598475 16.85502039 -4.46598475 16.85502039 -8 20 Z M-18 18 C-17 20 -17 20 -17 20 Z M-11 18 C-10.67 18.66 -10.34 19.32 -10 20 C-9.67 19.34 -9.34 18.68 -9 18 C-9.66 18 -10.32 18 -11 18 Z M17 18 C17.33 18.66 17.66 19.32 18 20 C18.33 19.34 18.66 18.68 19 18 C18.34 18 17.68 18 17 18 Z M-16 20 C-16 20.66 -16 21.32 -16 22 C-15.34 21.67 -14.68 21.34 -14 21 C-14.66 20.67 -15.32 20.34 -16 20 Z M-20 21 C-19 23 -19 23 -19 23 Z M18 21 C18.33 21.66 18.66 22.32 19 23 C19.33 22.34 19.66 21.68 20 21 C19.34 21 18.68 21 18 21 Z M-11 22 C-13.02558881 25.34939881 -13.21738987 27.86962551 -13.125 31.75 C-13.10695313 32.73484375 -13.08890625 33.7196875 -13.0703125 34.734375 C-13.04710938 35.48203125 -13.02390625 36.2296875 -13 37 C-11.02 37.99 -11.02 37.99 -9 39 C-9.33 33.39 -9.66 27.78 -10 22 C-10.33 22 -10.66 22 -11 22 Z M3 22 C3 24.31 3 26.62 3 29 C5.64 29 8.28 29 11 29 C11 26.69 11 24.38 11 22 C8.36 22 5.72 22 3 22 Z M13 22 C13 26.95 13 31.9 13 37 C13.99 37 14.98 37 16 37 C16.08142927 35.2507786 16.13938541 33.50045458 16.1875 31.75 C16.22230469 30.77546875 16.25710937 29.8009375 16.29296875 28.796875 C16.1944022 25.54615812 16.1944022 25.54615812 13 22 Z M21 22 C21.66 22.66 22.32 23.32 23 24 C23 23.34 23 22.68 23 22 C22.34 22 21.68 22 21 22 Z M-21 24 C-20.67 25.32 -20.34 26.64 -20 28 C-19.67 27.01 -19.34 26.02 -19 25 C-19.66 24.67 -20.32 24.34 -21 24 Z M17 24 C18 26 18 26 18 26 Z M-15 25 C-14 27 -14 27 -14 27 Z M18 27 C18 29.64 18 32.28 18 35 C18.33 34.01 18.66 33.02 19 32 C19.99 31.67 20.98 31.34 22 31 C21.34 30.34 20.68 29.68 20 29 C19.34 28.34 18.68 27.68 18 27 Z M23 27 C22.67 27.66 22.34 28.32 22 29 C22.66 29 23.32 29 24 29 C23.67 28.34 23.34 27.68 23 27 Z M-22 28 C-22.21192221 33.19209404 -21.5912689 37.126739 -20 42 C-19.31292445 39.50935112 -19 37.62113708 -19 35 C-17.68 34.34 -16.36 33.68 -15 33 C-15.33 32.01 -15.66 31.02 -16 30 C-17.32 30 -18.64 30 -20 30 C-20.66 29.34 -21.32 28.68 -22 28 Z M-8 34 C-8 34.99 -8 35.98 -8 37 C-6.515 37.99 -6.515 37.99 -5 39 C-4.835 39.680625 -4.67 40.36125 -4.5 41.0625 C-4.335 41.701875 -4.17 42.34125 -4 43 C-3.01 43.33 -2.02 43.66 -1 44 C-1 40.7 -1 37.4 -1 34 C-3.31 34 -5.62 34 -8 34 Z M23 36 C24 38 24 38 24 38 Z M22 38 C23 41 23 41 23 41 Z M-16 40 C-15.34 40.66 -14.68 41.32 -14 42 C-14 41.34 -14 40.68 -14 40 C-14.66 40 -15.32 40 -16 40 Z M17 40 C17.33 40.66 17.66 41.32 18 42 C18.33 41.34 18.66 40.68 19 40 C18.34 40 17.68 40 17 40 Z M-18 41 C-18.33 41.66 -18.66 42.32 -19 43 C-18.01 43.33 -17.02 43.66 -16 44 C-16 43.01 -16 42.02 -16 41 C-16.66 41 -17.32 41 -18 41 Z M-13 41 C-13 41.99 -13 42.98 -13 44 C-12.34 43.34 -11.68 42.68 -11 42 C-11.66 41.67 -12.32 41.34 -13 41 Z M-8 41 C-8 41.99 -8 42.98 -8 44 C-7.34 43.34 -6.68 42.68 -6 42 C-6.66 41.67 -7.32 41.34 -8 41 Z M10 41 C10 41.99 10 42.98 10 44 C10.66 43.34 11.32 42.68 12 42 C11.34 41.67 10.68 41.34 10 41 Z M20 41 C20.66 41.66 21.32 42.32 22 43 C22 42.34 22 41.68 22 41 C21.34 41 20.68 41 20 41 Z M14 42 C13.67 42.66 13.34 43.32 13 44 C13.66 44 14.32 44 15 44 C14.67 43.34 14.34 42.68 14 42 Z M18 42 C18.66 42.66 19.32 43.32 20 44 C20 43.34 20 42.68 20 42 C19.34 42 18.68 42 18 42 Z M-6 43 C-6 43.66 -6 44.32 -6 45 C-5.34 44.67 -4.68 44.34 -4 44 C-4.66 43.67 -5.32 43.34 -6 43 Z M8 43 C7.67 43.66 7.34 44.32 7 45 C7.66 45 8.32 45 9 45 C8.67 44.34 8.34 43.68 8 43 Z M7 47 C7 47.66 7 48.32 7 49 C7.66 49 8.32 49 9 49 C9 48.34 9 47.68 9 47 C8.34 47 7.68 47 7 47 Z M-13 48 C-12 50 -12 50 -12 50 Z M-3 48 C1.17908064 50.08954032 1.80410573 50.16552619 6 49 C6 48.67 6 48.34 6 48 C3.03 48 0.06 48 -3 48 Z M-4 49 C-3 51 -3 51 -3 51 Z M11 49 C12 51 12 51 12 51 Z M-10 51 C-9.67 51.66 -9.34 52.32 -9 53 C-8.01 53 -7.02 53 -6 53 C-6.33 52.34 -6.66 51.68 -7 51 C-7.99 51 -8.98 51 -10 51 Z M1 51 C0.34 52.32 -0.32 53.64 -1 55 C0.32 54.67 1.64 54.34 3 54 C2.34 53.01 1.68 52.02 1 51 Z M4 51 C3.67 51.66 3.34 52.32 3 53 C3.66 53 4.32 53 5 53 C4.67 52.34 4.34 51.68 4 51 Z M9 51 C9 51.66 9 52.32 9 53 C9.66 52.67 10.32 52.34 11 52 C10.34 51.67 9.68 51.34 9 51 Z " fill="#393939" transform="translate(43,22)"/>
<path d="M0 0 C1.40958984 -0.00193359 1.40958984 -0.00193359 2.84765625 -0.00390625 C3.83636719 -0.00003906 4.82507813 0.00382812 5.84375 0.0078125 C7.32681641 0.00201172 7.32681641 0.00201172 8.83984375 -0.00390625 C9.77957031 -0.00261719 10.71929687 -0.00132813 11.6875 0 C12.55568359 0.00112793 13.42386719 0.00225586 14.31835938 0.00341797 C16.34375 0.1328125 16.34375 0.1328125 17.34375 1.1328125 C17.52520851 3.71190316 17.62195018 6.23867903 17.65625 8.8203125 C17.68525391 9.52865234 17.71425781 10.23699219 17.74414062 10.96679688 C17.82148297 17.41000924 15.4594969 20.9027009 11.03125 25.5703125 C8.34375 27.1328125 8.34375 27.1328125 4.90625 27.3203125 C0.19302377 25.74923709 -1.89243341 23.14869365 -4.65625 19.1328125 C-6.24321844 15.95887561 -5.7993947 12.55107045 -5.78125 9.0703125 C-5.78511719 8.32458984 -5.78898437 7.57886719 -5.79296875 6.81054688 C-5.78061083 0.00751007 -5.78061083 0.00751007 0 0 Z M7.34375 2.1328125 C7.34375 4.4428125 7.34375 6.7528125 7.34375 9.1328125 C9.98375 9.1328125 12.62375 9.1328125 15.34375 9.1328125 C15.34375 6.8228125 15.34375 4.5128125 15.34375 2.1328125 C12.70375 2.1328125 10.06375 2.1328125 7.34375 2.1328125 Z M-3.65625 14.1328125 C-3.65625 15.1228125 -3.65625 16.1128125 -3.65625 17.1328125 C-2.17125 18.1228125 -2.17125 18.1228125 -0.65625 19.1328125 C-0.49125 19.8134375 -0.32625 20.4940625 -0.15625 21.1953125 C0.00875 21.8346875 0.17375 22.4740625 0.34375 23.1328125 C1.33375 23.4628125 2.32375 23.7928125 3.34375 24.1328125 C3.34375 20.8328125 3.34375 17.5328125 3.34375 14.1328125 C1.03375 14.1328125 -1.27625 14.1328125 -3.65625 14.1328125 Z " fill="#757575" transform="translate(38.65625,41.8671875)"/>
<path d="M0 0 C1.65 0 3.3 0 5 0 C5 4.95 5 9.9 5 15 C5.66 14.34 6.32 13.68 7 13 C7 12.34 7 11.68 7 11 C9.97 11.495 9.97 11.495 13 12 C11.35 14.31 9.7 16.62 8 19 C9.32 19.66 10.64 20.32 12 21 C12 21.66 12 22.32 12 23 C12.66 23 13.32 23 14 23 C13.731875 21.7625 13.46375 20.525 13.1875 19.25 C12.76105488 15.77663543 12.76143383 15.3131181 15 12.375 C18 11 18 11 21.625 11.5 C26.55830389 13.69257951 26.55830389 13.69257951 28 17 C28.2293511 20.01805202 28.17421551 22.98026447 28 26 C24.94755766 26.90025949 22.29954426 27.07911637 19.125 27 C15.295855 26.95468467 11.76328073 27.20773037 8 28 C7.87625 27.360625 7.7525 26.72125 7.625 26.0625 C7.41875 25.381875 7.2125 24.70125 7 24 C6.34 23.67 5.68 23.34 5 23 C5 24.65 5 26.3 5 28 C3.68 27.67 2.36 27.34 1 27 C0.67 18.09 0.34 9.18 0 0 Z M19 15 C19.33 15.66 19.66 16.32 20 17 C20.99 17 21.98 17 23 17 C23 16.34 23 15.68 23 15 C21.68 15 20.36 15 19 15 Z M17 20 C17.66 21.32 18.32 22.64 19 24 C19.99 24 20.98 24 22 24 C22.33 23.34 22.66 22.68 23 22 C24.32 22 25.64 22 27 22 C27 21.34 27 20.68 27 20 C23.7 20 20.4 20 17 20 Z " fill="#353535" transform="translate(151,22)"/>
<path d="M0 0 C0.99 0.33 1.98 0.66 3 1 C3 6.28 3 11.56 3 17 C-4.26 17 -11.52 17 -19 17 C-19 15.68 -19 14.36 -19 13 C-21.51083114 14.25541557 -21.87125446 15.50063488 -23 18 C-23.99 18 -24.98 18 -26 18 C-26.66 16.68 -27.32 15.36 -28 14 C-28.33 15.32 -28.66 16.64 -29 18 C-29.99 17.67 -30.98 17.34 -32 17 C-31.47462276 11.9697924 -30.89405214 6.98114761 -30 2 C-28.2925002 3.28062485 -26.62626404 4.61767557 -25 6 C-25 6.66 -25 7.32 -25 8 C-22.82890503 7.17280855 -22.82890503 7.17280855 -22.0625 5 C-21 3 -21 3 -18 2 C-17.34 4.64 -16.68 7.28 -16 10 C-15.443125 9.505 -14.88625 9.01 -14.3125 8.5 C-11.58890332 6.7333427 -10.18548267 6.66468603 -7 7 C-6.34 7.33 -5.68 7.66 -5 8 C-4.01 7.67 -3.02 7.34 -2 7 C-1.34 7.33 -0.68 7.66 0 8 C0 5.36 0 2.72 0 0 Z M-24 9 C-24.33 9.66 -24.66 10.32 -25 11 C-24.34 11 -23.68 11 -23 11 C-23.33 10.34 -23.66 9.68 -24 9 Z M-21 10 C-20 12 -20 12 -20 12 Z M-3 10 C-3.33 11.32 -3.66 12.64 -4 14 C-3.01 14.33 -2.02 14.66 -1 15 C-0.67 13.35 -0.34 11.7 0 10 C-0.99 10 -1.98 10 -3 10 Z M-13 13 C-9 14 -9 14 -9 14 Z " fill="#343434" transform="translate(114,50)"/>
<path d="M0 0 C3.3 0 6.6 0 10 0 C10.625 2.375 10.625 2.375 11 5 C10.34 5.66 9.68 6.32 9 7 C8.34 6.34 7.68 5.68 7 5 C4.89179203 5.3185177 4.89179203 5.3185177 3 6 C3 6.66 3 7.32 3 8 C4.1446875 8.1546875 4.1446875 8.1546875 5.3125 8.3125 C8.21894395 9.05600892 9.03566029 9.84858032 11 12 C11.66 12 12.32 12 13 12 C13.33 9.03 13.66 6.06 14 3 C15.32 3.33 16.64 3.66 18 4 C18 5.65 18 7.3 18 9 C18.99 9 19.98 9 21 9 C21.33 10.32 21.66 11.64 22 13 C20.68 13 19.36 13 18 13 C18 16.63 18 20.26 18 24 C16.68 24.33 15.36 24.66 14 25 C13.505 20.05 13.505 20.05 13 15 C12.525625 16.093125 12.05125 17.18625 11.5625 18.3125 C11.29566406 18.92738281 11.02882813 19.54226562 10.75390625 20.17578125 C10.10038058 21.75711021 9.54108198 23.37675406 9 25 C6.03 25 3.06 25 0 25 C-0.66 23.68 -1.32 22.36 -2 21 C-2.66 20.34 -3.32 19.68 -4 19 C-3.67 18.34 -3.34 17.68 -3 17 C-0.4375 16.375 -0.4375 16.375 2 16 C2.33 16.99 2.66 17.98 3 19 C4.32 19 5.64 19 7 19 C6.96877057 17.03243548 6.96877057 17.03243548 6 15 C4.00428677 14.32060826 2.00405227 13.65438441 0 13 C-2.18692517 10.117235 -2.35482037 7.54820371 -2 4 C-1.34 2.68 -0.68 1.36 0 0 Z " fill="#353535" transform="translate(85,25)"/>
<path d="M0 0 C3 1 3 1 4 3 C8.95 3 13.9 3 19 3 C19.495 4.485 19.495 4.485 20 6 C19.01 6 18.02 6 17 6 C17 8.31 17 10.62 17 13 C16.01 13.33 15.02 13.66 14 14 C13.34 13.67 12.68 13.34 12 13 C11.195625 13.061875 10.39125 13.12375 9.5625 13.1875 C7 13 7 13 5.25 11.1875 C4 9 4 9 3 6 C3 8.31 3 10.62 3 13 C-0.01031744 13.93423645 -0.86650268 14.04449911 -4 13 C-4 10.69 -4 8.38 -4 6 C-4.99 6 -5.98 6 -7 6 C-7 8.31 -7 10.62 -7 13 C-7.99 13.33 -8.98 13.66 -10 14 C-10.66 13.67 -11.32 13.34 -12 13 C-14.00800456 13.28112064 -16.01014051 13.61067967 -18 14 C-20.125 7.5 -20.125 7.5 -19 3 C-12.73 3 -6.46 3 0 3 C0 2.01 0 1.02 0 0 Z M-1 6 C-1 8.31 -1 10.62 -1 13 C-0.67 13 -0.34 13 0 13 C0.33 10.69 0.66 8.38 1 6 C0.34 6 -0.32 6 -1 6 Z M-17 9 C-16.67 9.66 -16.34 10.32 -16 11 C-15.01 10.67 -14.02 10.34 -13 10 C-14.32 9.67 -15.64 9.34 -17 9 Z M7 9 C7.33 9.66 7.66 10.32 8 11 C8.99 10.67 9.98 10.34 11 10 C9.68 9.67 8.36 9.34 7 9 Z " fill="#313131" transform="translate(183,54)"/>
<path d="M0 0 C64.35 0.495 64.35 0.495 130 1 C130.33 1.99 130.66 2.98 131 4 C66.65 3.505 66.65 3.505 1 3 C0.67 2.01 0.34 1.02 0 0 Z " fill="#7B7B7B" transform="translate(74,69)"/>
<path d="M0 0 C0.66 0.99 1.32 1.98 2 3 C4.72402595 3.88346788 6.51879734 4.10594546 9.32421875 3.48828125 C12.23356186 2.95737922 14.56847041 3.10399734 17.5 3.4375 C21.02800634 3.82895014 24.4491341 4.05789455 28 4 C28 5.98 28 7.96 28 10 C25.09600408 10.7687048 23.11060736 11.01923606 20.125 10.5 C16.51613698 9.92258192 13.60063449 10.47627135 10 11 C8.33333333 10.66666667 6.66666667 10.33333333 5 10 C2.6618385 10.29758419 0.32817964 10.63239269 -2 11 C-3.9996695 11.03635763 -6.00059462 11.04876598 -8 11 C-10.125 4.25 -10.125 4.25 -9 2 C-5.97971873 0.05839062 -3.56752573 -0.46941128 0 0 Z M-7 4 C-6 7 -6 7 -6 7 Z M-5 4 C-4.34 4.66 -3.68 5.32 -3 6 C-3 5.34 -3 4.68 -3 4 C-3.66 4 -4.32 4 -5 4 Z M-2 4 C-1 6 -1 6 -1 6 Z M3 4 C4 8 4 8 4 8 Z M20 6 C19.67 6.66 19.34 7.32 19 8 C19.66 8 20.32 8 21 8 C20.67 7.34 20.34 6.68 20 6 Z M25 6 C26 10 26 10 26 10 Z M22 8 C23 10 23 10 23 10 Z " fill="#373737" transform="translate(91,74)"/>
<path d="M0 0 C0.33 0.99 0.66 1.98 1 3 C1.99 3 2.98 3 4 3 C4.33 1.68 4.66 0.36 5 -1 C5.99 -0.67 6.98 -0.34 8 0 C7.67 1.32 7.34 2.64 7 4 C7.721875 3.814375 8.44375 3.62875 9.1875 3.4375 C12.12826973 2.98004693 14.14103058 3.26483643 17 4 C17 5.98 17 7.96 17 10 C10.99139451 11.05838127 5.15372439 11.11662571 -0.9375 11.0625 C-1.90751953 11.05798828 -2.87753906 11.05347656 -3.87695312 11.04882812 C-6.2513676 11.0371315 -8.62565021 11.02074086 -11 11 C-11.66 8.69 -12.32 6.38 -13 4 C-8.80802272 0.39024179 -5.53208425 -2.28913831 0 0 Z M-4 0 C-3 2 -3 2 -3 2 Z M-7 3 C-7 3.66 -7 4.32 -7 5 C-5.68 5 -4.36 5 -3 5 C-3.33 4.34 -3.66 3.68 -4 3 C-4.99 3 -5.98 3 -7 3 Z M-10 4 C-9.67 5.32 -9.34 6.64 -9 8 C-8.34 7.67 -7.68 7.34 -7 7 C-7 6.34 -7 5.68 -7 5 C-7.99 4.67 -8.98 4.34 -10 4 Z M1 6 C2 8 2 8 2 8 Z M7 6 C8 8 8 8 8 8 Z M9 6 C10 8 10 8 10 8 Z M13 6 C14 8 14 8 14 8 Z M-1 8 C0 10 0 10 0 10 Z " fill="#323232" transform="translate(162,74)"/>
<path d="M0 0 C0.66 0.33 1.32 0.66 2 1 C1.88658363 3.31309705 1.75896193 5.62550185 1.625 7.9375 C1.55539063 9.22527344 1.48578125 10.51304688 1.4140625 11.83984375 C1.27742187 12.88269531 1.14078125 13.92554688 1 15 C0.01 15.495 0.01 15.495 -1 16 C-2.585869 19.171738 -2.37866445 22.63513822 -2.5625 26.125 C-2.60568359 26.87910156 -2.64886719 27.63320313 -2.69335938 28.41015625 C-2.7994832 30.27321888 -2.90025001 32.13658524 -3 34 C-3.99 34 -4.98 34 -6 34 C-6.33 28.39 -6.66 22.78 -7 17 C-7.99 16.67 -8.98 16.34 -10 16 C-10.66 15.67 -11.32 15.34 -12 15 C-12 10.38 -12 5.76 -12 1 C-10.68 1 -9.36 1 -8 1 C-7.67 4.63 -7.34 8.26 -7 12 C-6.01 12 -5.02 12 -4 12 C-3.67 8.37 -3.34 4.74 -3 1 C-2.01 0.67 -1.02 0.34 0 0 Z M-4 16 C-4.33 16.66 -4.66 17.32 -5 18 C-4.34 18 -3.68 18 -3 18 C-3.33 17.34 -3.66 16.68 -4 16 Z " fill="#363636" transform="translate(148,33)"/>
<path d="M0 0 C1.98 0 3.96 0 6 0 C6 0.66 6 1.32 6 2 C6.99 1.67 7.98 1.34 9 1 C9.33 3.31 9.66 5.62 10 8 C9.34 8 8.68 8 8 8 C8 7.34 8 6.68 8 6 C5.36 6.33 2.72 6.66 0 7 C0 8.32 0 9.64 0 11 C-0.763125 11.061875 -1.52625 11.12375 -2.3125 11.1875 C-5.2058043 11.7646081 -5.2058043 11.7646081 -6.75 14.4375 C-7.1625 15.283125 -7.575 16.12875 -8 17 C-9 19 -9 19 -11 20 C-11.45375 19.21625 -11.9075 18.4325 -12.375 17.625 C-13.88428742 14.96301969 -13.88428742 14.96301969 -16 13 C-12.52992079 9.12167618 -9.95984441 7.46540858 -5 6 C-4.67 5.34 -4.34 4.68 -4 4 C-4.99 3.67 -5.98 3.34 -7 3 C-5 2 -5 2 -1.875 2.9375 C-0.92625 3.288125 0.0225 3.63875 1 4 C0.67 2.68 0.34 1.36 0 0 Z M-8 10 C-7.67 10.66 -7.34 11.32 -7 12 C-6.67 11.34 -6.34 10.68 -6 10 C-6.66 10 -7.32 10 -8 10 Z M-13 12 C-13 12.66 -13 13.32 -13 14 C-12.34 13.67 -11.68 13.34 -11 13 C-11.66 12.67 -12.32 12.34 -13 12 Z " fill="#2E2E2E" transform="translate(40,30)"/>
<path d="M0 0 C1.18142578 0.13148437 1.18142578 0.13148437 2.38671875 0.265625 C3.33998047 0.50539063 3.33998047 0.50539063 4.3125 0.75 C4.6425 1.41 4.9725 2.07 5.3125 2.75 C7.83983235 3.40555119 7.83983235 3.40555119 10.3125 3.75 C9.8330537 7.96912747 9.14624881 10.54663178 6.3125 13.75 C5.735 13.275625 5.1575 12.80125 4.5625 12.3125 C1.10454993 9.91114578 -0.74374822 9.62295649 -4.9375 10.1875 C-6.29875 10.4659375 -6.29875 10.4659375 -7.6875 10.75 C-9.8125 4 -9.8125 4 -8.6875 1.75 C-5.63766066 -0.21590086 -3.56410798 -0.44772266 0 0 Z M-6.6875 3.75 C-6.3575 5.07 -6.0275 6.39 -5.6875 7.75 C-4.0375 7.75 -2.3875 7.75 -0.6875 7.75 C-1.0175 6.1 -1.3475 4.45 -1.6875 2.75 C-3.40832924 2.75 -5.02978586 3.3222028 -6.6875 3.75 Z M6.3125 4.75 C7.3125 6.75 7.3125 6.75 7.3125 6.75 Z M4.3125 8.75 C5.3125 10.75 5.3125 10.75 5.3125 10.75 Z " fill="#313131" transform="translate(193.6875,74.25)"/>
<path d="M0 0 C0 6.6 0 13.2 0 20 C1.98 20 3.96 20 6 20 C6 21.32 6 22.64 6 24 C2.37 24.33 -1.26 24.66 -5 25 C-4.67 17.08 -4.34 9.16 -4 1 C-1 0 -1 0 0 0 Z " fill="#3A3A3A" transform="translate(129,25)"/>
<path d="M0 0 C1.0725 0.103125 2.145 0.20625 3.25 0.3125 C3.25 0.9725 3.25 1.6325 3.25 2.3125 C3.91 2.3125 4.57 2.3125 5.25 2.3125 C5.25 2.9725 5.25 3.6325 5.25 4.3125 C6.57 4.3125 7.89 4.3125 9.25 4.3125 C9.91 4.3125 10.57 4.3125 11.25 4.3125 C10.59 7.2825 9.93 10.2525 9.25 13.3125 C7.6 12.9825 5.95 12.6525 4.25 12.3125 C4.58 11.6525 4.91 10.9925 5.25 10.3125 C4.59 10.3125 3.93 10.3125 3.25 10.3125 C3.25 8.0025 3.25 5.6925 3.25 3.3125 C1.89381501 4.43784105 1.89381501 4.43784105 2.1875 7.375 C2.208125 8.344375 2.22875 9.31375 2.25 10.3125 C-0.75 11.3125 -0.75 11.3125 -3.3125 10.625 C-6.04875437 9.15163226 -6.69958421 8.17727034 -7.75 5.3125 C-5.36605526 1.49818842 -4.61542062 0.38461838 0 0 Z M-3.75 4.3125 C-4.40213292 6.33713255 -4.40213292 6.33713255 -4.75 8.3125 C-3.1 7.9825 -1.45 7.6525 0.25 7.3125 C0.25 5.9925 0.25 4.6725 0.25 3.3125 C-1.8245356 3.1634288 -1.8245356 3.1634288 -3.75 4.3125 Z " fill="#3C3C3C" transform="translate(129.75,73.6875)"/>
<path d="M0 0 C0 0.99 0 1.98 0 3 C0.66 3.33 1.32 3.66 2 4 C1.34 4 0.68 4 0 4 C0.57584432 6.38564077 1.22227595 8.66682784 2 11 C1 13.125 1 13.125 -1 15 C-4.6875 15.75 -4.6875 15.75 -8 16 C-8.66 14.02 -9.32 12.04 -10 10 C-8.68 9.67 -7.36 9.34 -6 9 C-6.66 8.01 -7.32 7.02 -8 6 C-7.9375 3.4375 -7.9375 3.4375 -7 1 C-2.77108434 -1.38554217 -2.77108434 -1.38554217 0 0 Z M-5 3 C-4.01 4.485 -4.01 4.485 -3 6 C-2.34 6 -1.68 6 -1 6 C-1 5.34 -1 4.68 -1 4 C-2.32 3.67 -3.64 3.34 -5 3 Z " fill="#3C3C3C" transform="translate(197,34)"/>
<path d="M0 0 C0.66 0 1.32 0 2 0 C2.33 0.66 2.66 1.32 3 2 C3.99 1.67 4.98 1.34 6 1 C6 1.66 6 2.32 6 3 C6.61875 3.2475 7.2375 3.495 7.875 3.75 C10.38895216 5.22879539 10.8534051 6.37921165 12 9 C12.66 9.66 13.32 10.32 14 11 C14.39764263 12.98821313 14.73775349 14.98944339 15 17 C12.61499846 17.85178626 11.3334349 18.09806909 8.875 17.375 C6.36813099 15.5366294 5.73047303 13.99493943 5 11 C5.66 10.01 6.32 9.02 7 8 C6.34 8 5.68 8 5 8 C5 7.34 5 6.68 5 6 C3.35 6.66 1.7 7.32 0 8 C-0.38063221 5.6739143 -0.71269945 3.33944736 -1 1 C-0.67 0.67 -0.34 0.34 0 0 Z " fill="#333333" transform="translate(24,56)"/>
<path d="M0 0 C1.98 0.495 1.98 0.495 4 1 C4 2.65 4 4.3 4 6 C4.99 6 5.98 6 7 6 C7.33 7.32 7.66 8.64 8 10 C6.68 10 5.36 10 4 10 C4 13.63 4 17.26 4 21 C2.68 21.33 1.36 21.66 0 22 C-0.19617816 19.45873828 -0.38217248 16.91739541 -0.5625 14.375 C-0.61857422 13.66214844 -0.67464844 12.94929688 -0.73242188 12.21484375 C-1.02495798 7.96331896 -0.89547939 4.20543653 0 0 Z " fill="#3C3C3C" transform="translate(99,28)"/>
<path d="M0 0 C1.4375 2.0625 1.4375 2.0625 2 4 C0.02 3.34 -1.96 2.68 -4 2 C-5.41377341 4.63904371 -6.37240135 7.07120629 -7 10 C-4.23735711 10.59732819 -1.83967231 11 1 11 C0.67 12.32 0.34 13.64 0 15 C-3.375 15.625 -3.375 15.625 -7 16 C-7.66 15.34 -8.32 14.68 -9 14 C-9.66 13.67 -10.32 13.34 -11 13 C-11.29787234 4.21276596 -11.29787234 4.21276596 -9 0 C-5.81926598 -1.59036701 -3.37573597 -0.78365299 0 0 Z " fill="#2F2F2F" transform="translate(162,52)"/>
<path d="M0 0 C0.66 0.99 1.32 1.98 2 3 C2.66 3.33 3.32 3.66 4 4 C3.34 6.31 2.68 8.62 2 11 C-1.3 11 -4.6 11 -8 11 C-10.125 4.25 -10.125 4.25 -9 2 C-5.97971873 0.05839062 -3.56752573 -0.46941128 0 0 Z M-7 4 C-6 7 -6 7 -6 7 Z M-5 4 C-4.34 4.66 -3.68 5.32 -3 6 C-3 5.34 -3 4.68 -3 4 C-3.66 4 -4.32 4 -5 4 Z M-2 4 C-1 6 -1 6 -1 6 Z " fill="#2E2E2E" transform="translate(91,74)"/>
<path d="M0 0 C1.7074998 1.28062485 3.37373596 2.61767557 5 4 C5 4.66 5 5.32 5 6 C5.66 6.33 6.32 6.66 7 7 C7 7.66 7 8.32 7 9 C7.66 9.33 8.32 9.66 9 10 C8.67 11.98 8.34 13.96 8 16 C6.68 16 5.36 16 4 16 C3.34 14.68 2.68 13.36 2 12 C1.67 13.32 1.34 14.64 1 16 C0.01 15.67 -0.98 15.34 -2 15 C-1.47462276 9.9697924 -0.89405214 4.98114761 0 0 Z " fill="#292929" transform="translate(84,52)"/>
<path d="M0 0 C0 2.97 0 5.94 0 9 C-6.625 9.25 -6.625 9.25 -10 7 C-10.4375 4.5625 -10.4375 4.5625 -10 2 C-6.86993817 -1.6116098 -4.40477201 -1.101193 0 0 Z M-7 2 C-6.67 2.99 -6.34 3.98 -6 5 C-5.01 5.33 -4.02 5.66 -3 6 C-3 4.68 -3 3.36 -3 2 C-4.32 2 -5.64 2 -7 2 Z " fill="#353535" transform="translate(141,58)"/>
<path d="M0 0 C1.65 0 3.3 0 5 0 C5 0.99 5 1.98 5 3 C6.44754255 4.44754255 8.03962913 4.55733561 10 5 C9.34 5 8.68 5 8 5 C8.33 5.99 8.66 6.98 9 8 C6.4345406 10.5654594 4.52313332 10.54046087 1 11 C-1.42857143 3.57142857 -1.42857143 3.57142857 0 0 Z M2 6 C2.33 6.66 2.66 7.32 3 8 C3.99 7.67 4.98 7.34 6 7 C4.68 6.67 3.36 6.34 2 6 Z " fill="#424242" transform="translate(164,57)"/>
<path d="M0 0 C0.99 0 1.98 0 3 0 C3 5.28 3 10.56 3 16 C2.01 16 1.02 16 0 16 C-0.71033431 10.47032059 -1.30267176 5.50016964 0 0 Z " fill="#3B3B3B" transform="translate(142,51)"/>
<path d="M0 0 C0.99 0.33 1.98 0.66 3 1 C2.67 1.99 2.34 2.98 2 4 C1.01 4 0.02 4 -1 4 C-1.33 4.66 -1.66 5.32 -2 6 C-0.35 6.33 1.3 6.66 3 7 C3 7.66 3 8.32 3 9 C3.66 9.33 4.32 9.66 5 10 C2.29120665 11.35439668 -0.00933268 11.06501451 -3 11 C-3.33 8.36 -3.66 5.72 -4 3 C-2.1875 1.4375 -2.1875 1.4375 0 0 Z " fill="#2D2D2D" transform="translate(127,57)"/>
<path d="M0 0 C0 5.28 0 10.56 0 16 C-0.33 16 -0.66 16 -1 16 C-1 13.03 -1 10.06 -1 7 C-1.66 7 -2.32 7 -3 7 C-3 11.62 -3 16.24 -3 21 C-3.33 21 -3.66 21 -4 21 C-4 14.4 -4 7.8 -4 1 C-1 0 -1 0 0 0 Z " fill="#454545" transform="translate(129,25)"/>
<path d="M0 0 C0.66 0 1.32 0 2 0 C2.33 0.66 2.66 1.32 3 2 C3.99 1.67 4.98 1.34 6 1 C6 1.66 6 2.32 6 3 C7.32 3.66 8.64 4.32 10 5 C10 5.99 10 6.98 10 8 C8.68 8 7.36 8 6 8 C5.67 7.34 5.34 6.68 5 6 C3.35 6.66 1.7 7.32 0 8 C-0.38063221 5.6739143 -0.71269945 3.33944736 -1 1 C-0.67 0.67 -0.34 0.34 0 0 Z " fill="#282828" transform="translate(24,56)"/>
<path d="M0 0 C0.99 0.33 1.98 0.66 3 1 C2.25 7.75 2.25 7.75 0 10 C-3.125 10.125 -3.125 10.125 -6 10 C-5.67 8.35 -5.34 6.7 -5 5 C-3.02 5 -1.04 5 1 5 C0.34 4.67 -0.32 4.34 -1 4 C-0.67 2.68 -0.34 1.36 0 0 Z M-4 6 C0 7 0 7 0 7 Z " fill="#2F2F2F" transform="translate(105,57)"/>
<path d="M0 0 C-0.33 1.32 -0.66 2.64 -1 4 C-1.66 4 -2.32 4 -3 4 C-2.01 4.99 -1.02 5.98 0 7 C-3.2830098 8.6415049 -6.42545033 7.51888624 -10 7 C-9.34 5.02 -8.68 3.04 -8 1 C-2.25 0 -2.25 0 0 0 Z " fill="#333333" transform="translate(103,77)"/>
<path d="M0 0 C3 1 3 1 4 3 C4.66 3.33 5.32 3.66 6 4 C5.34 6.31 4.68 8.62 4 11 C3.34 11 2.68 11 2 11 C2.33 9.35 2.66 7.7 3 6 C2.34 6 1.68 6 1 6 C0.34 5.34 -0.32 4.68 -1 4 C-1.99 4.99 -2.98 5.98 -4 7 C-4.33 5.68 -4.66 4.36 -5 3 C-2.6875 1.4375 -2.6875 1.4375 0 0 Z " fill="#232323" transform="translate(89,74)"/>
<path d="M0 0 C1.65 0.33 3.3 0.66 5 1 C5.59732819 3.76264289 6 6.16032769 6 9 C4.35 8.01 2.7 7.02 1 6 C-0.32 6.99 -1.64 7.98 -3 9 C-3 5.08045346 -2.17860377 3.26790565 0 0 Z " fill="#222222" transform="translate(56,59)"/>
<path d="M0 0 C1.98 0 3.96 0 6 0 C4.14285714 7.57142857 4.14285714 7.57142857 1 10 C0.01 9.67 -0.98 9.34 -2 9 C-2 8.01 -2 7.02 -2 6 C-1.34 6 -0.68 6 0 6 C-0.33 5.01 -0.66 4.02 -1 3 C-0.67 2.01 -0.34 1.02 0 0 Z " fill="#2C2C2C" transform="translate(181,25)"/>
<path d="M0 0 C0.99 0.33 1.98 0.66 3 1 C3 1.66 3 2.32 3 3 C3.33 3.66 3.66 4.32 4 5 C2.865625 5.268125 1.73125 5.53625 0.5625 5.8125 C-1.2009375 6.4003125 -1.2009375 6.4003125 -3 7 C-3.33 7.99 -3.66 8.98 -4 10 C-4.99 10 -5.98 10 -7 10 C-6.84819155 7.34335221 -6.47988575 5.54782138 -4.703125 3.51953125 C-3.125 2.125 -3.125 2.125 0 0 Z " fill="#3B3B3B" transform="translate(102,57)"/>
<path d="M0 0 C0 0.66 0 1.32 0 2 C-0.66 2 -1.32 2 -2 2 C-2.33 3.98 -2.66 5.96 -3 8 C-4.32 8.33 -5.64 8.66 -7 9 C-7.33 6.36 -7.66 3.72 -8 1 C-2.25 -1.125 -2.25 -1.125 0 0 Z " fill="#2E2E2E" transform="translate(68,55)"/>
<path d="M0 0 C0 0.66 0 1.32 0 2 C0.99 2 1.98 2 3 2 C3.33 2.66 3.66 3.32 4 4 C0.77856724 6.14762184 -0.2595467 6.561068 -4 6 C-5.97610386 3.95575462 -7 2.8823175 -7 0 C-4.3333581 -1.33332095 -2.83319697 -0.67102033 0 0 Z " fill="#3B3B3B" transform="translate(194,61)"/>
<path d="M0 0 C1.32 0.33 2.64 0.66 4 1 C4.33 3.97 4.66 6.94 5 10 C4.01 10.33 3.02 10.66 2 11 C1.896875 10.2575 1.79375 9.515 1.6875 8.75 C0.95746496 5.82985982 -0.06789398 4.26812446 -2 2 C-1.34 1.34 -0.68 0.68 0 0 Z " fill="#2B2B2B" transform="translate(171,57)"/>
<path d="M0 0 C1.65 0 3.3 0 5 0 C5.38218767 1.65614657 5.71395102 3.32457024 6 5 C5 6 5 6 2.4375 6.0625 C1.2309375 6.0315625 1.2309375 6.0315625 0 6 C0 5.34 0 4.68 0 4 C-1.32 3.67 -2.64 3.34 -4 3 C-3.34 2.34 -2.68 1.68 -2 1 C-1.67 1.33 -1.34 1.66 -1 2 C-0.67 1.34 -0.34 0.68 0 0 Z " fill="#3D3D3D" transform="translate(103,78)"/>
<path d="M0 0 C0.598125 0.350625 1.19625 0.70125 1.8125 1.0625 C1.8125 3.7025 1.8125 6.3425 1.8125 9.0625 C0.8225 9.0625 -0.1675 9.0625 -1.1875 9.0625 C-1.1875 6.7525 -1.1875 4.4425 -1.1875 2.0625 C-2.5075 2.3925 -3.8275 2.7225 -5.1875 3.0625 C-5.1875 2.0725 -5.1875 1.0825 -5.1875 0.0625 C-2.1875 -0.9375 -2.1875 -0.9375 0 0 Z " fill="#3A3A3A" transform="translate(180.1875,57.9375)"/>
<path d="M0 0 C0.99 0.33 1.98 0.66 3 1 C2.67 2.32 2.34 3.64 2 5 C3.11375 4.7215625 3.11375 4.7215625 4.25 4.4375 C6.94990963 4.00796892 8.44631077 4.14877026 11 5 C10.34 6.32 9.68 7.64 9 9 C9 8.01 9 7.02 9 6 C6.6568787 6.25561323 4.32156597 6.59270772 2 7 C1.67 7.66 1.34 8.32 1 9 C-1.09230769 4.56923077 -1.09230769 4.56923077 -0.625 1.6875 C-0.41875 1.130625 -0.2125 0.57375 0 0 Z " fill="#2B2B2B" transform="translate(167,73)"/>
<path d="M0 0 C1.65 0.33 3.3 0.66 5 1 C4.5205537 5.21912747 3.83374881 7.79663178 1 11 C0.34 10.67 -0.32 10.34 -1 10 C-0.67 6.7 -0.34 3.4 0 0 Z M1 2 C2 4 2 4 2 4 Z " fill="#252525" transform="translate(199,77)"/>
<path d="M0 0 C0 5.28 0 10.56 0 16 C-0.33 16 -0.66 16 -1 16 C-1.33 11.05 -1.66 6.1 -2 1 C-4.64 1 -7.28 1 -10 1 C-10 0.67 -10 0.34 -10 0 C-3.375 -1.125 -3.375 -1.125 0 0 Z " fill="#818181" transform="translate(56,43)"/>
<path d="M0 0 C2 1.8125 2 1.8125 4 4 C4 4.99 4 5.98 4 7 C-0.455 7.495 -0.455 7.495 -5 8 C-2.25 2.25 -2.25 2.25 0 0 Z M1 3 C2 5 2 5 2 5 Z M-1 5 C0 7 0 7 0 7 Z " fill="#282828" transform="translate(162,77)"/>
<path d="M0 0 C0.66 1.32 1.32 2.64 2 4 C3.98491642 3.73323796 3.98491642 3.73323796 6 3 C6.33 2.01 6.66 1.02 7 0 C7.66 0 8.32 0 9 0 C9 1.98 9 3.96 9 6 C6 7 6 7 3.4375 6.3125 C0.70124563 4.83913226 0.05041579 3.86477034 -1 1 C-0.67 0.67 -0.34 0.34 0 0 Z " fill="#3A3A3A" transform="translate(123,78)"/>
<path d="M0 0 C0.66 0.33 1.32 0.66 2 1 C2 5.62 2 10.24 2 15 C1.01 15.495 1.01 15.495 0 16 C-0.66 15.67 -1.32 15.34 -2 15 C-1.47462276 9.9697924 -0.89405214 4.98114761 0 0 Z " fill="#363636" transform="translate(84,52)"/>
<path d="M0 0 C2.77393671 1.42079685 3.91422561 2.70996148 5.5625 5.3125 C4.9025 5.3125 4.2425 5.3125 3.5625 5.3125 C3.2325 6.3025 2.9025 7.2925 2.5625 8.3125 C1.18687146 7.02284824 -0.14516393 5.68560707 -1.4375 4.3125 C-1.4375 3.6525 -1.4375 2.9925 -1.4375 2.3125 C-2.4275 1.6525 -3.4175 0.9925 -4.4375 0.3125 C-2.4375 -0.6875 -2.4375 -0.6875 0 0 Z M0.5625 1.3125 C1.5625 3.3125 1.5625 3.3125 1.5625 3.3125 Z " fill="#1F1F1F" transform="translate(56.4375,34.6875)"/>
<path d="M0 0 C6.52307692 0.61538462 6.52307692 0.61538462 8.9375 2.5625 C9.288125 3.036875 9.63875 3.51125 10 4 C9.67 4.66 9.34 5.32 9 6 C5.7 5.34 2.4 4.68 -1 4 C-0.67 2.68 -0.34 1.36 0 0 Z " fill="#3C3C3C" transform="translate(168,33)"/>
<path d="M0 0 C0 0.99 0 1.98 0 3 C-2.31 3.33 -4.62 3.66 -7 4 C-7.33 4.99 -7.66 5.98 -8 7 C-8.66 5.68 -9.32 4.36 -10 3 C-7.29536552 -0.8183075 -4.37912428 -0.24787496 0 0 Z " fill="#222222" transform="translate(133,74)"/>
<path d="M0 0 C2.09350689 3.4019487 2.17942163 6.05272412 2 10 C0.68 10.33 -0.64 10.66 -2 11 C-2 8.03 -2 5.06 -2 2 C-1.34 2 -0.68 2 0 2 C0 1.34 0 0.68 0 0 Z " fill="#4D4D4D" transform="translate(121,56)"/>
<path d="M0 0 C1.32 0.33 2.64 0.66 4 1 C4 4.63 4 8.26 4 12 C3.01 11.67 2.02 11.34 1 11 C0.67 7.37 0.34 3.74 0 0 Z " fill="#3B3B3B" transform="translate(179,73)"/>
<path d="M0 0 C3.125 0.375 3.125 0.375 6 1 C6 3.64 6 6.28 6 9 C4.5 7.6875 4.5 7.6875 3 6 C3 5.01 3 4.02 3 3 C1.35 2.67 -0.3 2.34 -2 2 C-1.34 1.34 -0.68 0.68 0 0 Z " fill="#404040" transform="translate(135,57)"/>
<path d="M0 0 C0.33 0 0.66 0 1 0 C1.0825 1.27875 1.165 2.5575 1.25 3.875 C1.45869931 6.05333418 1.45869931 6.05333418 2 8 C3.92064793 9.5899433 3.92064793 9.5899433 6 10 C6 10.66 6 11.32 6 12 C5.01 12.33 4.02 12.66 3 13 C-0.36055646 8.51925805 -0.27429625 5.39449293 0 0 Z " fill="#656565" transform="translate(33,51)"/>
<path d="M0 0 C0.66 0 1.32 0 2 0 C1.938125 0.9075 1.87625 1.815 1.8125 2.75 C2.01672076 6.28982642 2.64551835 7.44931155 5 10 C3.68 10.33 2.36 10.66 1 11 C-1.42857143 3.57142857 -1.42857143 3.57142857 0 0 Z " fill="#2B2B2B" transform="translate(164,57)"/>
<path d="M0 0 C0.66 0 1.32 0 2 0 C1.34 2.97 0.68 5.94 0 9 C-1.65 8.67 -3.3 8.34 -5 8 C-4.1875 6.0625 -4.1875 6.0625 -3 4 C-2.01 3.67 -1.02 3.34 0 3 C0 2.01 0 1.02 0 0 Z " fill="#363636" transform="translate(139,78)"/>
<path d="M0 0 C0.99 0 1.98 0 3 0 C2.67 0.99 2.34 1.98 2 3 C1.34 3 0.68 3 0 3 C1.32 4.65 2.64 6.3 4 8 C2.02 8 0.04 8 -2 8 C-1.125 1.125 -1.125 1.125 0 0 Z " fill="#2D2D2D" transform="translate(64,45)"/>
<path d="M0 0 C0.66 0.33 1.32 0.66 2 1 C2 2.98 2 4.96 2 7 C0.35 7 -1.3 7 -3 7 C-3.33 6.34 -3.66 5.68 -4 5 C-3.01 4.34 -2.02 3.68 -1 3 C-0.67 2.01 -0.34 1.02 0 0 Z " fill="#3B3B3B" transform="translate(115,60)"/>
<path d="M0 0 C0 2.31 0 4.62 0 7 C-1.98 7.99 -1.98 7.99 -4 9 C-4 7.68 -4 6.36 -4 5 C-3.34 5 -2.68 5 -2 5 C-2.33 3.68 -2.66 2.36 -3 1 C-1 0 -1 0 0 0 Z " fill="#444444" transform="translate(30,50)"/>
<path d="M0 0 C-0.495 0.61875 -0.99 1.2375 -1.5 1.875 C-3.19222773 3.83880904 -3.19222773 3.83880904 -3 6 C-3.99 5.67 -4.98 5.34 -6 5 C-6.33 3.35 -6.66 1.7 -7 0 C-3.98968256 -0.93423645 -3.13349732 -1.04449911 0 0 Z " fill="#1D1D1D" transform="translate(194,44)"/>
<path d="M0 0 C3.3 0.66 6.6 1.32 10 2 C10 2.33 10 2.66 10 3 C6.7 3 3.4 3 0 3 C0 2.01 0 1.02 0 0 Z " fill="#3D3D3D" transform="translate(40,36)"/>
<path d="M0 0 C1.32 0 2.64 0 4 0 C3.125 3.875 3.125 3.875 2 5 C0.33382885 5.04063832 -1.33388095 5.042721 -3 5 C-2.505 4.54625 -2.01 4.0925 -1.5 3.625 C0.22609337 2.12364481 0.22609337 2.12364481 0 0 Z " fill="#3D3D3D" transform="translate(155,79)"/>
<path d="M0 0 C0.66 0 1.32 0 2 0 C4 3 4 3 5 5 C3.02 5.99 3.02 5.99 1 7 C0.31292445 4.50935112 0 2.62113708 0 0 Z " fill="#272727" transform="translate(150,78)"/>
<path d="M0 0 C0.66 1.32 1.32 2.64 2 4 C0.68 4.33 -0.64 4.66 -2 5 C-2.66 3.68 -3.32 2.36 -4 1 C-2.68 0.67 -1.36 0.34 0 0 Z " fill="#2D2D2D" transform="translate(139,62)"/>
<path d="M0 0 C-0.33 1.32 -0.66 2.64 -1 4 C-2.65 4 -4.3 4 -6 4 C-5.67 3.01 -5.34 2.02 -5 1 C-3 0 -3 0 0 0 Z " fill="#383838" transform="translate(163,63)"/>
<path d="M0 0 C0.99 0.33 1.98 0.66 3 1 C2.67 1.99 2.34 2.98 2 4 C0.02 4.33 -1.96 4.66 -4 5 C-2.25 1.125 -2.25 1.125 0 0 Z " fill="#3D3D3D" transform="translate(127,57)"/>
<path d="M0 0 C1.98 0.495 1.98 0.495 4 1 C3.67 1.99 3.34 2.98 3 4 C1.68 3.67 0.36 3.34 -1 3 C-0.67 2.01 -0.34 1.02 0 0 Z " fill="#3B3B3B" transform="translate(108,45)"/>
<path d="M0 0 C0.33 0.99 0.66 1.98 1 3 C0.01 3.33 -0.98 3.66 -2 4 C-2.33 4.66 -2.66 5.32 -3 6 C-2.625 3.5625 -2.625 3.5625 -2 1 C-1.34 0.67 -0.68 0.34 0 0 Z " fill="#232323" transform="translate(121,52)"/>
<path d="M0 0 C1.32 0 2.64 0 4 0 C3.34 1.32 2.68 2.64 2 4 C1.34 2.68 0.68 1.36 0 0 Z " fill="#272727" transform="translate(143,79)"/>
<path d="M0 0 C2 1 2 1 2 1 Z " fill="#000000" transform="translate(96,84)"/>
<path d="M0 0 C2 1 2 1 2 1 Z " fill="#000000" transform="translate(137,77)"/>
<path d="M0 0 C2 1 2 1 2 1 Z " fill="#000000" transform="translate(117,67)"/>
<path d="M0 0 C2 1 2 1 2 1 Z " fill="#000000" transform="translate(163,66)"/>
<path d="" fill="#000000" transform="translate(0,0)"/>
<path d="M0 0 C2 1 2 1 2 1 Z " fill="#000000" transform="translate(164,35)"/>
<path d="" fill="#000000" transform="translate(0,0)"/>
<path d="" fill="#000000" transform="translate(0,0)"/>
<path d="" fill="#000000" transform="translate(0,0)"/>
<path d="" fill="#000000" transform="translate(0,0)"/>
<path d="" fill="#000000" transform="translate(0,0)"/>
<path d="" fill="#000000" transform="translate(0,0)"/>
<path d="" fill="#000000" transform="translate(0,0)"/>
<path d="" fill="#000000" transform="translate(0,0)"/>
<path d="" fill="#000000" transform="translate(0,0)"/>
<path d="" fill="#000000" transform="translate(0,0)"/>
<path d="" fill="#000000" transform="translate(0,0)"/>
<path d="" fill="#000000" transform="translate(0,0)"/>
<path d="" fill="#000000" transform="translate(0,0)"/>
<path d="" fill="#000000" transform="translate(0,0)"/>
<path d="" fill="#000000" transform="translate(0,0)"/>
<path d="" fill="#000000" transform="translate(0,0)"/>
<path d="" fill="#000000" transform="translate(0,0)"/>
<path d="" fill="#000000" transform="translate(0,0)"/>
<path d="" fill="#000000" transform="translate(0,0)"/>
<path d="" fill="#000000" transform="translate(0,0)"/>
<path d="" fill="#000000" transform="translate(0,0)"/>
<path d="" fill="#000000" transform="translate(0,0)"/>
<path d="" fill="#000000" transform="translate(0,0)"/>
<path d="" fill="#000000" transform="translate(0,0)"/>
<path d="" fill="#000000" transform="translate(0,0)"/>
<path d="" fill="#000000" transform="translate(0,0)"/>
<path d="" fill="#000000" transform="translate(0,0)"/>
<path d="" fill="#000000" transform="translate(0,0)"/>
<path d="" fill="#000000" transform="translate(0,0)"/>
<path d="" fill="#000000" transform="translate(0,0)"/>
<path d="" fill="#000000" transform="translate(0,0)"/>
<path d="" fill="#000000" transform="translate(0,0)"/>
<path d="" fill="#000000" transform="translate(0,0)"/>
<path d="" fill="#000000" transform="translate(0,0)"/>
<path d="" fill="#000000" transform="translate(0,0)"/>
<path d="" fill="#000000" transform="translate(0,0)"/>
<path d="" fill="#000000" transform="translate(0,0)"/>
<path d="" fill="#000000" transform="translate(0,0)"/>
<path d="" fill="#000000" transform="translate(0,0)"/>
<path d="" fill="#000000" transform="translate(0,0)"/>
<path d="" fill="#000000" transform="translate(0,0)"/>
<path d="" fill="#000000" transform="translate(0,0)"/>
<path d="" fill="#000000" transform="translate(0,0)"/>
<path d="" fill="#000000" transform="translate(0,0)"/>
<path d="" fill="#000000" transform="translate(0,0)"/>
<path d="" fill="#000000" transform="translate(0,0)"/>
<path d="" fill="#000000" transform="translate(0,0)"/>
<path d="" fill="#000000" transform="translate(0,0)"/>
<path d="" fill="#000000" transform="translate(0,0)"/>
<path d="" fill="#000000" transform="translate(0,0)"/>
<path d="" fill="#000000" transform="translate(0,0)"/>
<path d="" fill="#000000" transform="translate(0,0)"/>
<path d="" fill="#000000" transform="translate(0,0)"/>
<path d="" fill="#000000" transform="translate(0,0)"/>
<path d="" fill="#000000" transform="translate(0,0)"/>
<path d="" fill="#000000" transform="translate(0,0)"/>
<path d="" fill="#000000" transform="translate(0,0)"/>
<path d="" fill="#000000" transform="translate(0,0)"/>
<path d="" fill="#000000" transform="translate(0,0)"/>
<path d="" fill="#000000" transform="translate(0,0)"/>
<path d="" fill="#000000" transform="translate(0,0)"/>
<path d="" fill="#000000" transform="translate(0,0)"/>
<path d="" fill="#000000" transform="translate(0,0)"/>
<path d="" fill="#000000" transform="translate(0,0)"/>
<path d="" fill="#000000" transform="translate(0,0)"/>
<path d="" fill="#000000" transform="translate(0,0)"/>
<path d="" fill="#000000" transform="translate(0,0)"/>
<path d="" fill="#000000" transform="translate(0,0)"/>
<path d="" fill="#000000" transform="translate(0,0)"/>
<path d="" fill="#000000" transform="translate(0,0)"/>
<path d="" fill="#000000" transform="translate(0,0)"/>
<path d="" fill="#000000" transform="translate(0,0)"/>
<path d="" fill="#000000" transform="translate(0,0)"/>
<path d="" fill="#000000" transform="translate(0,0)"/>
<path d="" fill="#000000" transform="translate(0,0)"/>
<path d="" fill="#000000" transform="translate(0,0)"/>
<path d="" fill="#000000" transform="translate(0,0)"/>
<path d="" fill="#000000" transform="translate(0,0)"/>
<path d="" fill="#000000" transform="translate(0,0)"/>
<path d="" fill="#000000" transform="translate(0,0)"/>
<path d="" fill="#000000" transform="translate(0,0)"/>
<path d="" fill="#000000" transform="translate(0,0)"/>
<path d="" fill="#000000" transform="translate(0,0)"/>
<path d="" fill="#000000" transform="translate(0,0)"/>
<path d="" fill="#000000" transform="translate(0,0)"/>
<path d="" fill="#000000" transform="translate(0,0)"/>
<path d="" fill="#000000" transform="translate(0,0)"/>
<path d="" fill="#000000" transform="translate(0,0)"/>
<path d="" fill="#000000" transform="translate(0,0)"/>
<path d="" fill="#000000" transform="translate(0,0)"/>
<path d="" fill="#000000" transform="translate(0,0)"/>
<path d="" fill="#000000" transform="translate(0,0)"/>
<path d="" fill="#000000" transform="translate(0,0)"/>
<path d="" fill="#000000" transform="translate(0,0)"/>
<path d="" fill="#000000" transform="translate(0,0)"/>
<path d="" fill="#000000" transform="translate(0,0)"/>
<path d="" fill="#000000" transform="translate(0,0)"/>
<path d="" fill="#000000" transform="translate(0,0)"/>
<path d="" fill="#000000" transform="translate(0,0)"/>
<path d="" fill="#000000" transform="translate(0,0)"/>
<path d="" fill="#000000" transform="translate(0,0)"/>
<path d="" fill="#000000" transform="translate(0,0)"/>
<path d="" fill="#000000" transform="translate(0,0)"/>
<path d="" fill="#000000" transform="translate(0,0)"/>
<path d="" fill="#000000" transform="translate(0,0)"/>
<path d="" fill="#000000" transform="translate(0,0)"/>
<path d="" fill="#000000" transform="translate(0,0)"/>
<path d="" fill="#000000" transform="translate(0,0)"/>
<path d="" fill="#000000" transform="translate(0,0)"/>
<path d="" fill="#000000" transform="translate(0,0)"/>
<path d="" fill="#000000" transform="translate(0,0)"/>
<path d="" fill="#000000" transform="translate(0,0)"/>
<path d="" fill="#000000" transform="translate(0,0)"/>
<path d="" fill="#000000" transform="translate(0,0)"/>
<path d="" fill="#000000" transform="translate(0,0)"/>
<path d="" fill="#000000" transform="translate(0,0)"/>
<path d="" fill="#000000" transform="translate(0,0)"/>
<path d="" fill="#000000" transform="translate(0,0)"/>
<path d="" fill="#000000" transform="translate(0,0)"/>
<path d="" fill="#000000" transform="translate(0,0)"/>
<path d="" fill="#000000" transform="translate(0,0)"/>
<path d="" fill="#000000" transform="translate(0,0)"/>
<path d="" fill="#000000" transform="translate(0,0)"/>
<path d="" fill="#000000" transform="translate(0,0)"/>
<path d="" fill="#000000" transform="translate(0,0)"/>
<path d="" fill="#000000" transform="translate(0,0)"/>
<path d="" fill="#000000" transform="translate(0,0)"/>
<path d="" fill="#000000" transform="translate(0,0)"/>
<path d="" fill="#000000" transform="translate(0,0)"/>
<path d="" fill="#000000" transform="translate(0,0)"/>
<path d="" fill="#000000" transform="translate(0,0)"/>
<path d="" fill="#000000" transform="translate(0,0)"/>
<path d="" fill="#000000" transform="translate(0,0)"/>
<path d="" fill="#000000" transform="translate(0,0)"/>
<path d="" fill="#000000" transform="translate(0,0)"/>
<path d="" fill="#000000" transform="translate(0,0)"/>
<path d="" fill="#000000" transform="translate(0,0)"/>
<path d="" fill="#000000" transform="translate(0,0)"/>
<path d="" fill="#000000" transform="translate(0,0)"/>
<path d="" fill="#000000" transform="translate(0,0)"/>
<path d="" fill="#000000" transform="translate(0,0)"/>
<path d="" fill="#000000" transform="translate(0,0)"/>
<path d="" fill="#000000" transform="translate(0,0)"/>
<path d="" fill="#000000" transform="translate(0,0)"/>
<path d="" fill="#000000" transform="translate(0,0)"/>
<path d="" fill="#000000" transform="translate(0,0)"/>
<path d="" fill="#000000" transform="translate(0,0)"/>
<path d="" fill="#000000" transform="translate(0,0)"/>
<path d="" fill="#000000" transform="translate(0,0)"/>
<path d="" fill="#000000" transform="translate(0,0)"/>
<path d="" fill="#000000" transform="translate(0,0)"/>
<path d="" fill="#000000" transform="translate(0,0)"/>
<path d="" fill="#000000" transform="translate(0,0)"/>
<path d="" fill="#000000" transform="translate(0,0)"/>
<path d="" fill="#000000" transform="translate(0,0)"/>
<path d="" fill="#000000" transform="translate(0,0)"/>
<path d="" fill="#000000" transform="translate(0,0)"/>
<path d="" fill="#000000" transform="translate(0,0)"/>
<path d="" fill="#555555" transform="translate(0,0)"/>
<path d="" fill="#000000" transform="translate(0,0)"/>
<path d="" fill="#000000" transform="translate(0,0)"/>
<path d="" fill="#000000" transform="translate(0,0)"/>
<path d="" fill="#000000" transform="translate(0,0)"/>
<path d="" fill="#000000" transform="translate(0,0)"/>
<path d="" fill="#000000" transform="translate(0,0)"/>
<path d="" fill="#000000" transform="translate(0,0)"/>
<path d="" fill="#000000" transform="translate(0,0)"/>
<path d="" fill="#000000" transform="translate(0,0)"/>
<path d="" fill="#000000" transform="translate(0,0)"/>
<path d="" fill="#000000" transform="translate(0,0)"/>
<path d="" fill="#000000" transform="translate(0,0)"/>
<path d="" fill="#000000" transform="translate(0,0)"/>
<path d="" fill="#000000" transform="translate(0,0)"/>
<path d="" fill="#000000" transform="translate(0,0)"/>
<path d="" fill="#000000" transform="translate(0,0)"/>
<path d="" fill="#000000" transform="translate(0,0)"/>
<path d="" fill="#808080" transform="translate(0,0)"/>
<path d="" fill="#000000" transform="translate(0,0)"/>
<path d="" fill="#000000" transform="translate(0,0)"/>
<path d="" fill="#000000" transform="translate(0,0)"/>
<path d="" fill="#000000" transform="translate(0,0)"/>
<path d="" fill="#000000" transform="translate(0,0)"/>
<path d="" fill="#000000" transform="translate(0,0)"/>
<path d="" fill="#000000" transform="translate(0,0)"/>
<path d="" fill="#000000" transform="translate(0,0)"/>
<path d="" fill="#000000" transform="translate(0,0)"/>
<path d="" fill="#000000" transform="translate(0,0)"/>
<path d="" fill="#000000" transform="translate(0,0)"/>
<path d="" fill="#000000" transform="translate(0,0)"/>
<path d="" fill="#000000" transform="translate(0,0)"/>
<path d="" fill="#000000" transform="translate(0,0)"/>
<path d="" fill="#000000" transform="translate(0,0)"/>
<path d="" fill="#000000" transform="translate(0,0)"/>
<path d="" fill="#000000" transform="translate(0,0)"/>
<path d="" fill="#000000" transform="translate(0,0)"/>
<path d="" fill="#000000" transform="translate(0,0)"/>
<path d="" fill="#000000" transform="translate(0,0)"/>
<path d="" fill="#000000" transform="translate(0,0)"/>
<path d="" fill="#000000" transform="translate(0,0)"/>
<path d="" fill="#000000" transform="translate(0,0)"/>
<path d="" fill="#000000" transform="translate(0,0)"/>
<path d="" fill="#000000" transform="translate(0,0)"/>
<path d="" fill="#000000" transform="translate(0,0)"/>
<path d="" fill="#000000" transform="translate(0,0)"/>
<path d="" fill="#000000" transform="translate(0,0)"/>
<path d="" fill="#000000" transform="translate(0,0)"/>
<path d="" fill="#000000" transform="translate(0,0)"/>
<path d="" fill="#000000" transform="translate(0,0)"/>
<path d="" fill="#000000" transform="translate(0,0)"/>
<path d="" fill="#000000" transform="translate(0,0)"/>
<path d="" fill="#000000" transform="translate(0,0)"/>
<path d="" fill="#000000" transform="translate(0,0)"/>
<path d="" fill="#000000" transform="translate(0,0)"/>
<path d="" fill="#000000" transform="translate(0,0)"/>
<path d="" fill="#000000" transform="translate(0,0)"/>
<path d="" fill="#000000" transform="translate(0,0)"/>
<path d="" fill="#000000" transform="translate(0,0)"/>
<path d="" fill="#000000" transform="translate(0,0)"/>
<path d="" fill="#000000" transform="translate(0,0)"/>
<path d="" fill="#000000" transform="translate(0,0)"/>
<path d="" fill="#000000" transform="translate(0,0)"/>
<path d="" fill="#000000" transform="translate(0,0)"/>
<path d="" fill="#000000" transform="translate(0,0)"/>
<path d="" fill="#000000" transform="translate(0,0)"/>
<path d="" fill="#000000" transform="translate(0,0)"/>
<path d="" fill="#000000" transform="translate(0,0)"/>
</svg>
