<?xml version="1.0" encoding="UTF-8"?>
<svg version="1.1" xmlns="http://www.w3.org/2000/svg" width="34" height="34">
<path d="M0 0 C3.8841257 1.18901807 5.09881496 2.40286693 7.0625 5.9375 C6.99420718 9.35214098 6.6976705 11.1752954 4.5 13.8125 C4.025625 14.18375 3.55125 14.555 3.0625 14.9375 C3.84625 15.39125 4.63 15.845 5.4375 16.3125 C8.0625 17.9375 8.0625 17.9375 10.0625 19.9375 C10.69181533 22.61345823 10.84380812 25.18198232 11.0625 27.9375 C10.0625 28.9375 10.0625 28.9375 7.92944336 29.05102539 C7.01300049 29.04578857 6.09655762 29.04055176 5.15234375 29.03515625 C4.16298828 29.03193359 3.17363281 29.02871094 2.15429688 29.02539062 C1.11337891 29.01701172 0.07246094 29.00863281 -1 29 C-2.04478516 28.99548828 -3.08957031 28.99097656 -4.16601562 28.98632812 C-6.7565666 28.97449913 -9.34700559 28.95801689 -11.9375 28.9375 C-12.90512012 24.80437977 -12.94905746 22.75945918 -10.9375 18.9375 C-8.93334162 16.49765502 -8.02378136 15.96626045 -4.9375 14.9375 C-5.411875 14.545625 -5.88625 14.15375 -6.375 13.75 C-8.38369548 11.41991325 -8.79134384 10.00677932 -8.9375 6.9375 C-6.94364593 2.65071375 -5.05200744 -0.10748952 0 0 Z M-3.75 5.125 C-5.19040328 6.88804109 -5.19040328 6.88804109 -4.625 9.125 C-4.398125 9.723125 -4.17125 10.32125 -3.9375 10.9375 C-2.10049211 11.70992269 -2.10049211 11.70992269 0.0625 11.9375 C1.97916667 10.85416667 1.97916667 10.85416667 3.0625 8.9375 C2.83492269 6.77450789 2.83492269 6.77450789 2.0625 4.9375 C-0.94498915 3.77887694 -0.94498915 3.77887694 -3.75 5.125 Z M-7.9375 20.9375 C-8.2675 22.5875 -8.5975 24.2375 -8.9375 25.9375 C-3.6575 25.9375 1.6225 25.9375 7.0625 25.9375 C6.4025 23.9575 5.7425 21.9775 5.0625 19.9375 C3.27091511 19.91053635 1.47921527 19.89112083 -0.3125 19.875 C-1.80910156 19.85759766 -1.80910156 19.85759766 -3.3359375 19.83984375 C-5.92182453 19.75743398 -5.92182453 19.75743398 -7.9375 20.9375 Z " fill="#12505A" transform="translate(17.9375,2.0625)"/>
</svg>
